<?xml version="1.0" encoding="UTF-8"?>
<svg version="1.1" xmlns="http://www.w3.org/2000/svg" width="512" height="512">
<path d="M0 0 C0.76787338 -0.0065712 1.53574677 -0.0131424 2.32688904 -0.01991272 C4.86937562 -0.03962978 7.41180311 -0.05130622 9.9543457 -0.0612793 C10.82421427 -0.06535482 11.69408283 -0.06943035 12.59031105 -0.07362938 C17.19659817 -0.09448571 21.80285557 -0.10878797 26.40917969 -0.11816406 C31.15596477 -0.12921323 35.90227912 -0.16359699 40.64889812 -0.20333576 C44.30789533 -0.22954445 47.96678123 -0.23785978 51.62586403 -0.24144554 C53.37487776 -0.24630239 55.12388681 -0.25789058 56.87280846 -0.27648354 C59.32833956 -0.30096089 61.78266426 -0.2998945 64.23828125 -0.29296875 C64.95286499 -0.30577881 65.66744873 -0.31858887 66.40368652 -0.33178711 C73.262319 -0.26172901 78.41967852 2.15405352 83.25512695 6.98950195 C88.67812074 14.89157861 88.82765361 20.69393789 88.44262695 30.17700195 C89.58731445 29.43450195 89.58731445 29.43450195 90.75512695 28.67700195 C93.44262695 27.17700195 93.44262695 27.17700195 96.44262695 27.17700195 C96.44262695 26.51700195 96.44262695 25.85700195 96.44262695 25.17700195 C98.69262695 23.67700195 98.69262695 23.67700195 101.44262695 22.17700195 C102.14387695 21.78512695 102.84512695 21.39325195 103.56762695 20.98950195 C105.44262695 20.17700195 105.44262695 20.17700195 108.44262695 20.17700195 C108.44262695 19.51700195 108.44262695 18.85700195 108.44262695 18.17700195 C109.76262695 18.17700195 111.08262695 18.17700195 112.44262695 18.17700195 C112.44262695 17.51700195 112.44262695 16.85700195 112.44262695 16.17700195 C115.90762695 15.68200195 115.90762695 15.68200195 119.44262695 15.17700195 C119.44262695 14.51700195 119.44262695 13.85700195 119.44262695 13.17700195 C121.09262695 13.17700195 122.74262695 13.17700195 124.44262695 13.17700195 C124.44262695 12.51700195 124.44262695 11.85700195 124.44262695 11.17700195 C133.85264973 7.73281061 133.85264973 7.73281061 138.44262695 8.17700195 C138.44262695 7.51700195 138.44262695 6.85700195 138.44262695 6.17700195 C140.75262695 6.17700195 143.06262695 6.17700195 145.44262695 6.17700195 C145.44262695 5.51700195 145.44262695 4.85700195 145.44262695 4.17700195 C146.43004883 4.04422852 147.4174707 3.91145508 148.43481445 3.7746582 C149.71614258 3.59805664 150.9974707 3.42145508 152.31762695 3.23950195 C153.59379883 3.06547852 154.8699707 2.89145508 156.18481445 2.7121582 C159.3182215 2.36266968 159.3182215 2.36266968 161.44262695 1.17700195 C168.29888187 0.20427079 175.02560654 0.03044893 181.94262695 0.04418945 C183.01834961 0.04323273 184.09407227 0.042276 185.20239258 0.04129028 C187.46476297 0.04061325 189.72713535 0.04243412 191.98950195 0.04663086 C195.4322551 0.05198582 198.87487781 0.04666958 202.31762695 0.0402832 C204.52596057 0.04094407 206.73429411 0.04222541 208.94262695 0.04418945 C210.47113281 0.04115311 210.47113281 0.04115311 212.03051758 0.03805542 C228.3566632 0.0910382 228.3566632 0.0910382 230.44262695 2.17700195 C232.96458662 2.57643372 235.47226351 2.92780044 238.00512695 3.23950195 C238.71604492 3.33038086 239.42696289 3.42125977 240.15942383 3.51489258 C241.92001098 3.73939698 243.68126173 3.95868593 245.44262695 4.17700195 C245.44262695 4.50700195 245.44262695 4.83700195 245.44262695 5.17700195 C247.42262695 5.50700195 249.40262695 5.83700195 251.44262695 6.17700195 C251.44262695 6.83700195 251.44262695 7.49700195 251.44262695 8.17700195 C252.52543945 8.11512695 252.52543945 8.11512695 253.63012695 8.05200195 C256.68929493 8.18796497 258.64273952 8.9870498 261.44262695 10.17700195 C263.10182591 10.54571283 264.76739125 10.88981869 266.44262695 11.17700195 C266.44262695 11.83700195 266.44262695 12.49700195 266.44262695 13.17700195 C267.14387695 13.30075195 267.84512695 13.42450195 268.56762695 13.55200195 C271.61919083 14.2153854 274.49603633 15.1491215 277.44262695 16.17700195 C277.44262695 16.83700195 277.44262695 17.49700195 277.44262695 18.17700195 C278.76262695 18.17700195 280.08262695 18.17700195 281.44262695 18.17700195 C281.44262695 18.83700195 281.44262695 19.49700195 281.44262695 20.17700195 C282.76262695 20.17700195 284.08262695 20.17700195 285.44262695 20.17700195 C285.44262695 20.83700195 285.44262695 21.49700195 285.44262695 22.17700195 C287.42262695 22.50700195 289.40262695 22.83700195 291.44262695 23.17700195 C291.44262695 23.83700195 291.44262695 24.49700195 291.44262695 25.17700195 C292.43262695 25.17700195 293.42262695 25.17700195 294.44262695 25.17700195 C294.44262695 25.83700195 294.44262695 26.49700195 294.44262695 27.17700195 C295.06911133 27.3471582 295.6955957 27.51731445 296.34106445 27.69262695 C297.15833008 27.9349707 297.9755957 28.17731445 298.81762695 28.42700195 C299.62973633 28.6590332 300.4418457 28.89106445 301.27856445 29.13012695 C303.93233867 30.41390221 304.3195209 31.52478438 305.44262695 34.17700195 C307.73767328 35.58364325 309.87691615 36.32176502 312.44262695 37.17700195 C312.44262695 37.83700195 312.44262695 38.49700195 312.44262695 39.17700195 C313.10262695 39.17700195 313.76262695 39.17700195 314.44262695 39.17700195 C314.44262695 39.83700195 314.44262695 40.49700195 314.44262695 41.17700195 C316.09262695 41.50700195 317.74262695 41.83700195 319.44262695 42.17700195 C319.52512695 42.79575195 319.60762695 43.41450195 319.69262695 44.05200195 C320.24846172 46.33788989 320.24846172 46.33788989 322.38012695 47.36450195 C323.06075195 47.63262695 323.74137695 47.90075195 324.44262695 48.17700195 C325.10262695 48.50700195 325.76262695 48.83700195 326.44262695 49.17700195 C326.44262695 49.83700195 326.44262695 50.49700195 326.44262695 51.17700195 C327.10262695 51.17700195 327.76262695 51.17700195 328.44262695 51.17700195 C328.44262695 51.83700195 328.44262695 52.49700195 328.44262695 53.17700195 C329.02012695 53.42450195 329.59762695 53.67200195 330.19262695 53.92700195 C332.77202675 55.36000184 334.50384287 56.96124872 336.44262695 59.17700195 C336.44262695 59.83700195 336.44262695 60.49700195 336.44262695 61.17700195 C337.10262695 61.17700195 337.76262695 61.17700195 338.44262695 61.17700195 C338.44262695 61.83700195 338.44262695 62.49700195 338.44262695 63.17700195 C339.10262695 63.17700195 339.76262695 63.17700195 340.44262695 63.17700195 C340.77262695 64.49700195 341.10262695 65.81700195 341.44262695 67.17700195 C342.04075195 67.23887695 342.63887695 67.30075195 343.25512695 67.36450195 C346.34602225 68.51254878 347.03066135 70.28247247 348.44262695 73.17700195 C348.44262695 73.83700195 348.44262695 74.49700195 348.44262695 75.17700195 C349.10262695 75.17700195 349.76262695 75.17700195 350.44262695 75.17700195 C353.44262695 79.56161734 353.44262695 79.56161734 353.44262695 82.17700195 C354.10262695 82.17700195 354.76262695 82.17700195 355.44262695 82.17700195 C355.44262695 82.83700195 355.44262695 83.49700195 355.44262695 84.17700195 C356.10262695 84.17700195 356.76262695 84.17700195 357.44262695 84.17700195 C360.44262695 89.80200195 360.44262695 89.80200195 360.44262695 93.17700195 C361.10262695 93.17700195 361.76262695 93.17700195 362.44262695 93.17700195 C362.44262695 94.16700195 362.44262695 95.15700195 362.44262695 96.17700195 C363.10262695 96.17700195 363.76262695 96.17700195 364.44262695 96.17700195 C366.874233 99.5438411 367.44262695 100.9105056 367.44262695 105.17700195 C368.10262695 105.17700195 368.76262695 105.17700195 369.44262695 105.17700195 C369.44262695 106.16700195 369.44262695 107.15700195 369.44262695 108.17700195 C370.10262695 108.17700195 370.76262695 108.17700195 371.44262695 108.17700195 C371.94822604 109.61254221 372.44690185 111.05052215 372.94262695 112.48950195 C373.3602832 113.69026367 373.3602832 113.69026367 373.78637695 114.9152832 C374.44262695 117.17700195 374.44262695 117.17700195 374.44262695 120.17700195 C375.10262695 120.17700195 375.76262695 120.17700195 376.44262695 120.17700195 C376.44262695 122.15700195 376.44262695 124.13700195 376.44262695 126.17700195 C377.10262695 126.17700195 377.76262695 126.17700195 378.44262695 126.17700195 C378.77262695 128.81700195 379.10262695 131.45700195 379.44262695 134.17700195 C380.10262695 134.17700195 380.76262695 134.17700195 381.44262695 134.17700195 C381.44262695 136.48700195 381.44262695 138.79700195 381.44262695 141.17700195 C382.10262695 141.17700195 382.76262695 141.17700195 383.44262695 141.17700195 C383.44262695 143.48700195 383.44262695 145.79700195 383.44262695 148.17700195 C384.10262695 148.17700195 384.76262695 148.17700195 385.44262695 148.17700195 C385.57540039 149.46477539 385.70817383 150.75254883 385.8449707 152.0793457 C386.02312594 153.75775557 386.20152387 155.43613968 386.38012695 157.11450195 C386.46713867 157.96463867 386.55415039 158.81477539 386.64379883 159.69067383 C386.73081055 160.49956055 386.81782227 161.30844727 386.9074707 162.1418457 C386.98602295 162.89071045 387.0645752 163.6395752 387.14550781 164.41113281 C387.27070075 166.19840209 387.27070075 166.19840209 388.44262695 167.17700195 C388.68666388 170.07832981 388.87019149 172.95755894 389.00512695 175.86450195 C389.06772705 177.16073486 389.06772705 177.16073486 389.1315918 178.4831543 C389.60114421 188.82672327 389.56750185 199.08929194 389.00512695 209.42700195 C388.96597168 210.16708496 388.92681641 210.90716797 388.88647461 211.66967773 C388.56486267 216.93253051 388.56486267 216.93253051 387.44262695 219.17700195 C387.22480229 220.62212633 387.05289028 222.07436873 386.9074707 223.52856445 C386.82045898 224.3793457 386.73344727 225.23012695 386.64379883 226.10668945 C386.55678711 226.99614258 386.46977539 227.8855957 386.38012695 228.80200195 C386.28924805 229.69918945 386.19836914 230.59637695 386.10473633 231.52075195 C385.88053403 233.73917467 385.65998129 235.95789955 385.44262695 238.17700195 C384.78262695 238.17700195 384.12262695 238.17700195 383.44262695 238.17700195 C383.53543945 239.41450195 383.53543945 239.41450195 383.63012695 240.67700195 C383.43510653 244.31738311 382.59896328 246.68760203 381.2434082 250.0090332 C379.9044843 253.63392475 379.18725297 257.3925497 378.44262695 261.17700195 C377.78262695 261.17700195 377.12262695 261.17700195 376.44262695 261.17700195 C376.32016602 261.89243164 376.19770508 262.60786133 376.0715332 263.3449707 C375.4312732 266.22812908 374.5071114 268.76292669 373.38012695 271.48950195 C373.01790039 272.37250977 372.65567383 273.25551758 372.2824707 274.1652832 C372.00532227 274.82915039 371.72817383 275.49301758 371.44262695 276.17700195 C370.78262695 276.17700195 370.12262695 276.17700195 369.44262695 276.17700195 C369.44262695 277.49700195 369.44262695 278.81700195 369.44262695 280.17700195 C368.78262695 280.17700195 368.12262695 280.17700195 367.44262695 280.17700195 C367.11262695 282.48700195 366.78262695 284.79700195 366.44262695 287.17700195 C365.78262695 287.17700195 365.12262695 287.17700195 364.44262695 287.17700195 C364.44262695 288.16700195 364.44262695 289.15700195 364.44262695 290.17700195 C363.78262695 290.17700195 363.12262695 290.17700195 362.44262695 290.17700195 C361.45262695 293.14700195 360.46262695 296.11700195 359.44262695 299.17700195 C358.78262695 299.17700195 358.12262695 299.17700195 357.44262695 299.17700195 C357.44262695 299.83700195 357.44262695 300.49700195 357.44262695 301.17700195 C356.78262695 301.17700195 356.12262695 301.17700195 355.44262695 301.17700195 C355.44262695 302.16700195 355.44262695 303.15700195 355.44262695 304.17700195 C354.78262695 304.17700195 354.12262695 304.17700195 353.44262695 304.17700195 C353.11262695 305.49700195 352.78262695 306.81700195 352.44262695 308.17700195 C351.78262695 308.17700195 351.12262695 308.17700195 350.44262695 308.17700195 C350.44262695 309.16700195 350.44262695 310.15700195 350.44262695 311.17700195 C349.78262695 311.17700195 349.12262695 311.17700195 348.44262695 311.17700195 C348.44262695 311.83700195 348.44262695 312.49700195 348.44262695 313.17700195 C347.78262695 313.17700195 347.12262695 313.17700195 346.44262695 313.17700195 C346.13325195 314.19793945 346.13325195 314.19793945 345.81762695 315.23950195 C344.01367669 319.09339571 341.54159245 322.25487959 338.44262695 325.17700195 C337.78262695 325.17700195 337.12262695 325.17700195 336.44262695 325.17700195 C336.44262695 325.83700195 336.44262695 326.49700195 336.44262695 327.17700195 C335.78262695 327.50700195 335.12262695 327.83700195 334.44262695 328.17700195 C334.44042711 329.02265418 334.44042711 329.02265418 334.43818283 329.88539028 C334.40105443 343.63324254 334.34170975 357.38084642 334.25872421 371.12850094 C334.21925775 377.77693489 334.18706502 384.42518394 334.17163086 391.07373047 C334.15645916 397.49296358 334.12200339 403.91183297 334.07431793 410.33090401 C334.05950963 412.77679847 334.05158626 415.22274486 334.0507431 417.66868401 C334.04837017 421.10145473 334.0212619 424.533223 333.98852539 427.96582031 C333.99355576 428.97139481 333.99858612 429.9769693 334.00376892 431.01301575 C333.89887814 438.14763867 332.66940745 444.55263794 327.79534531 450.02725124 C323.28341637 454.3196878 317.76562681 457.17700195 311.44262695 457.17700195 C311.4583374 458.19012451 311.47404785 459.20324707 311.49023438 460.24707031 C311.5449629 464.04337461 311.57913137 467.83964478 311.60742188 471.63623047 C311.62241152 473.27235804 311.64281028 474.9084461 311.66894531 476.54443359 C311.9956072 497.53406095 311.9956072 497.53406095 304.4309082 506.5715332 C297.06402794 512.52003574 290.43944346 512.75316235 281.28555298 512.69166565 C279.96678583 512.69861118 278.64801867 512.70555671 277.28928888 512.71271271 C273.64383123 512.73129561 269.99878103 512.72505031 266.35330677 512.71455967 C262.41589663 512.70755514 258.47856914 512.72357516 254.54118347 512.73655701 C246.83322468 512.75818194 239.12541362 512.75807389 231.41743447 512.74993146 C225.15101049 512.74362719 218.88462955 512.74477242 212.61820602 512.75120354 C211.72573549 512.75210519 210.83326496 512.75300685 209.91374987 512.75393583 C208.10058844 512.75578706 206.28742702 512.75764962 204.47426562 512.75952338 C187.47695437 512.77609687 170.47972615 512.76738678 153.48241989 512.75053781 C137.94084852 512.73584415 122.39947053 512.75046532 106.85792406 512.77930797 C90.89052619 512.80871968 74.92321751 512.81966889 58.95579374 512.81012577 C57.14875565 512.80910324 55.34171754 512.80810863 53.53467941 512.80714226 C52.20111852 512.80642767 52.20111852 512.80642767 50.84061701 512.80569865 C44.5849397 512.80353671 38.32934705 512.813327 32.07368851 512.82791328 C24.44527118 512.84545259 16.81710029 512.84529653 9.18869258 512.82256163 C5.29873536 512.81143334 1.40921203 512.80822433 -2.48072624 512.82686234 C-6.0463659 512.84372624 -9.61119521 512.83723771 -13.17678292 512.81264555 C-15.06784567 512.8054881 -16.95895303 512.82274451 -18.84994066 512.84105688 C-26.38370419 512.75897323 -32.33286312 511.62389409 -38.55737305 507.17700195 C-44.47504639 500.84513109 -45.70800945 495.95060877 -45.6550293 487.3527832 C-45.65361435 486.49138229 -45.6521994 485.62998138 -45.65074158 484.74247742 C-45.64514445 481.99145026 -45.6325925 479.24050451 -45.61987305 476.48950195 C-45.61485767 474.62426875 -45.61029483 472.75903428 -45.60620117 470.89379883 C-45.59517596 466.32150184 -45.57791332 461.7492657 -45.55737305 457.17700195 C-47.45664551 456.96660278 -47.45664551 456.96660278 -49.39428711 456.75195312 C-56.05053068 456.01458229 -60.73430127 452.32729174 -64.99487305 447.30200195 C-69.25350672 438.7847346 -68.84088205 430.05441331 -68.81134033 420.76660156 C-68.81364637 419.18972346 -68.81682386 417.61284643 -68.82079482 416.03597164 C-68.82913171 411.71406078 -68.82502256 407.39223843 -68.81882238 403.07032728 C-68.81429439 398.40496189 -68.82128339 393.73961164 -68.82678223 389.07424927 C-68.83567414 379.93922778 -68.83375511 370.80423917 -68.82795694 361.66921639 C-68.82343968 354.24479671 -68.82282784 346.82038624 -68.82500458 339.39596558 C-68.82531104 338.33917129 -68.82561751 337.28237699 -68.82593326 336.19355863 C-68.82657272 334.04668275 -68.82722114 331.89980687 -68.82787845 329.752931 C-68.83358115 309.62299248 -68.82702478 289.49307218 -68.81627771 269.36313665 C-68.80734226 252.09177273 -68.80889432 234.8204357 -68.81811523 217.54907227 C-68.82881891 197.49102238 -68.83303183 177.43298845 -68.82689071 157.3749361 C-68.82625361 155.23597018 -68.82562487 153.09700426 -68.82500458 150.95803833 C-68.82454175 149.37943154 -68.82454175 149.37943154 -68.82406957 147.76893371 C-68.82234293 140.35367286 -68.82525709 132.93842213 -68.82996368 125.52316284 C-68.83557359 116.48611137 -68.83405373 107.44909464 -68.8234022 98.41204715 C-68.81814699 93.80147435 -68.81608621 89.19095948 -68.8227005 84.58038712 C-68.82866513 80.35881569 -68.82537632 76.13735582 -68.8147454 71.91579449 C-68.81251356 70.38965754 -68.81364281 68.86351115 -68.81849697 67.33738029 C-68.87579146 47.82561372 -68.87579146 47.82561372 -62.55737305 40.17700195 C-56.4608129 34.82055919 -52.40819132 33.04091319 -44.26049805 33.0793457 C-43.05522461 33.08256836 -41.84995117 33.08579102 -40.6081543 33.08911133 C-39.35389648 33.09749023 -38.09963867 33.10586914 -36.80737305 33.11450195 C-34.9027832 33.12126953 -34.9027832 33.12126953 -32.9597168 33.12817383 C-29.82555468 33.13995639 -26.69148764 33.15640779 -23.55737305 33.17700195 C-23.61538086 32.13801758 -23.67338867 31.0990332 -23.7331543 30.02856445 C-24.06945934 21.48764683 -24.12822972 14.20054613 -18.55737305 7.17700195 C-12.70927986 1.63610432 -7.99201336 0.02965311 0 0 Z " fill="#CC0100" transform="translate(95.557373046875,-0.177001953125)"/>
<path d="M0 0 C1.20527344 0.00322266 2.41054688 0.00644531 3.65234375 0.00976562 C4.90660156 0.01814453 6.16085938 0.02652344 7.453125 0.03515625 C9.35771484 0.04192383 9.35771484 0.04192383 11.30078125 0.04882812 C14.43494336 0.06061069 17.56901041 0.07706209 20.703125 0.09765625 C20.74888672 1.08008301 20.79464844 2.06250977 20.84179688 3.07470703 C21.48978294 16.84580958 21.48978294 16.84580958 28.703125 28.09765625 C36.23046162 33.0258763 42.86220515 33.83490948 51.7109375 33.8046875 C52.9175705 33.81980881 54.12420349 33.83493011 55.36740112 33.85050964 C59.18783541 33.89319286 63.00747659 33.9022066 66.828125 33.91015625 C69.43231247 33.93331538 72.03648128 33.95868363 74.640625 33.98632812 C80.99479936 34.04898946 87.34866621 34.08407691 93.703125 34.09765625 C92.74815586 35.3777646 91.79224461 36.65717017 90.8359375 37.9362793 C90.30371582 38.6488237 89.77149414 39.3613681 89.22314453 40.09550476 C87.45239442 42.42791556 85.58730287 44.66876966 83.703125 46.91015625 C79.62583204 51.96786698 76.67326572 57.34356274 73.703125 63.09765625 C72.98172675 64.35215559 72.25360411 65.60283865 71.515625 66.84765625 C69.6419845 70.20728749 68.15511913 73.54027062 66.703125 77.09765625 C66.043125 77.09765625 65.383125 77.09765625 64.703125 77.09765625 C64.58710937 77.60683594 64.47109375 78.11601563 64.3515625 78.640625 C63.48011042 81.94269342 62.40662049 85.17145996 61.328125 88.41015625 C61.11929688 89.04888672 60.91046875 89.68761719 60.6953125 90.34570312 C59.62737553 93.55928174 58.47913569 96.68320065 57.109375 99.78125 C55.942902 102.53218215 55.14619886 104.93498664 54.578125 107.84765625 C54.07509439 110.37163439 53.52095071 112.64417913 52.703125 115.09765625 C52.47861042 117.3233996 52.29529622 119.55347144 52.140625 121.78515625 C52.01494141 123.55439453 52.01494141 123.55439453 51.88671875 125.359375 C51.82613281 126.26300781 51.76554687 127.16664063 51.703125 128.09765625 C51.043125 128.09765625 50.383125 128.09765625 49.703125 128.09765625 C49.72375 129.39703125 49.744375 130.69640625 49.765625 132.03515625 C49.78711954 133.38931258 49.77460699 134.74521708 49.703125 136.09765625 C49.373125 136.42765625 49.043125 136.75765625 48.703125 137.09765625 C48.59464495 138.4752138 48.55411226 139.85822114 48.54199219 141.23999023 C48.53238464 142.1227916 48.5227771 143.00559296 48.51287842 143.91514587 C48.50862854 144.88158524 48.50437866 145.8480246 48.5 146.84375 C48.49429993 147.84285904 48.48859985 148.84196808 48.48272705 149.87135315 C48.4732476 152.00252213 48.46673147 154.13370597 48.46289062 156.26489258 C48.45334142 159.46268321 48.42241508 162.65978673 48.390625 165.85742188 C48.31234234 180.71909524 48.52177715 195.35269143 54.703125 209.09765625 C55.36328125 212.1171875 55.36328125 212.1171875 55.765625 214.91015625 C56.24558237 218.97447684 56.24558237 218.97447684 58.703125 222.09765625 C59.31969885 223.9765993 59.87189379 225.87688263 60.390625 227.78515625 C63.51665929 238.27886986 67.9356514 248.3751914 74.5390625 257.16796875 C75.9154416 259.44961733 76.31343086 261.47854911 76.703125 264.09765625 C77.363125 264.09765625 78.023125 264.09765625 78.703125 264.09765625 C78.765 264.65453125 78.826875 265.21140625 78.890625 265.78515625 C79.81774224 268.42387456 81.1949389 269.68974546 83.203125 271.578125 C84.91618874 273.31349426 86.35190284 275.15656606 87.828125 277.09765625 C97.34316002 289.52476746 97.34316002 289.52476746 108.58984375 300.3359375 C112.29082055 303.421225 115.76400984 306.77086607 119.28515625 310.05859375 C121.60592349 312.27072323 121.60592349 312.27072323 124.703125 313.09765625 C124.703125 313.75765625 124.703125 314.41765625 124.703125 315.09765625 C127.03526648 316.30393633 129.19954639 317.26313005 131.703125 318.09765625 C131.703125 318.75765625 131.703125 319.41765625 131.703125 320.09765625 C134.35541312 321.17290819 136.98680954 322.19221776 139.703125 323.09765625 C139.703125 323.75765625 139.703125 324.41765625 139.703125 325.09765625 C140.54101562 325.35289062 141.37890625 325.608125 142.2421875 325.87109375 C146.03520338 327.21534543 149.50537291 328.88779818 153.078125 330.72265625 C154.03912109 331.20992188 154.03912109 331.20992188 155.01953125 331.70703125 C156.58260001 332.50023032 158.14313122 333.29842656 159.703125 334.09765625 C159.703125 334.75765625 159.703125 335.41765625 159.703125 336.09765625 C160.46625 336.18015625 161.229375 336.26265625 162.015625 336.34765625 C165.17866052 336.99098551 167.82720233 337.8348245 170.828125 338.97265625 C176.67968912 341.17806006 182.61551664 342.69527527 188.703125 344.09765625 C188.703125 344.75765625 188.703125 345.41765625 188.703125 346.09765625 C191.013125 346.09765625 193.323125 346.09765625 195.703125 346.09765625 C195.703125 346.75765625 195.703125 347.41765625 195.703125 348.09765625 C197.3428125 348.03578125 197.3428125 348.03578125 199.015625 347.97265625 C202.41502416 347.9613858 205.47757848 348.39238027 208.80126953 349.09106445 C214.52372404 350.16599967 220.01057532 350.37195805 225.8203125 350.328125 C226.83932648 350.32766678 227.85834045 350.32720856 228.90823364 350.32673645 C231.04772111 350.32373739 233.18720685 350.31592241 235.32666016 350.3034668 C238.56290625 350.28524195 241.79886419 350.28295747 245.03515625 350.28320312 C264.35573575 350.87863116 264.35573575 350.87863116 282.703125 346.09765625 C284.42457219 345.74510387 286.15533184 345.43661832 287.890625 345.16015625 C293.14417397 344.30509587 297.97063471 342.78783135 302.9765625 341 C305.54510962 340.14995074 308.04166149 339.56704163 310.703125 339.09765625 C310.703125 338.43765625 310.703125 337.77765625 310.703125 337.09765625 C311.50363281 336.85982422 311.50363281 336.85982422 312.3203125 336.6171875 C318.46566242 334.69277861 324.02136288 332.10967472 329.703125 329.09765625 C330.5796875 328.64390625 331.45625 328.19015625 332.359375 327.72265625 C338.53405401 324.45788344 344.31827962 320.78684428 350.07421875 316.83203125 C352.24457863 315.40017421 354.34906384 314.1884269 356.703125 313.09765625 C356.703125 312.43765625 356.703125 311.77765625 356.703125 311.09765625 C358.10651863 310.15355508 359.51445601 309.21557498 360.94335938 308.31054688 C364.72048975 305.70721951 367.90152753 302.34024442 371.19921875 299.16796875 C375.50011546 295.09765625 375.50011546 295.09765625 377.703125 295.09765625 C377.7967621 309.41475723 377.86693242 323.7318104 377.91037369 338.04915524 C377.93122601 344.69768813 377.95950107 351.34596014 378.00488281 357.99438477 C378.0484236 364.41346315 378.07227986 370.83234361 378.08263397 377.2515583 C378.09001047 379.69751665 378.10441501 382.14346447 378.12604523 384.5893383 C378.15518759 388.02195306 378.15907633 391.45375555 378.15722656 394.88647461 C378.17160767 395.8920491 378.18598877 396.8976236 378.20080566 397.93367004 C378.15923663 405.08788283 376.94268378 411.4597314 372.05548477 416.94790554 C367.54419983 421.24068986 362.02572097 424.09765625 355.703125 424.09765625 C355.71883545 425.11077881 355.7345459 426.12390137 355.75073242 427.16772461 C355.80546095 430.9640289 355.83962942 434.76029907 355.86791992 438.55688477 C355.88290956 440.19301234 355.90330832 441.8291004 355.92944336 443.46508789 C356.25610524 464.45471525 356.25610524 464.45471525 348.69140625 473.4921875 C341.32452598 479.44069003 334.6999415 479.67381665 325.54605103 479.61231995 C324.22728387 479.61926547 322.90851672 479.626211 321.54978693 479.633367 C317.90432928 479.65194991 314.25927908 479.64570461 310.61380482 479.63521397 C306.67639468 479.62820944 302.73906718 479.64422945 298.80168152 479.6572113 C291.09372273 479.67883624 283.38591166 479.67872819 275.67793252 479.67058576 C269.41150854 479.66428149 263.14512759 479.66542672 256.87870407 479.67185783 C255.98623354 479.67275949 255.09376301 479.67366114 254.17424791 479.67459012 C252.36108649 479.67644136 250.54792507 479.67830392 248.73476367 479.68017768 C231.73745241 479.69675117 214.7402242 479.68804108 197.74291794 479.6711921 C182.20134656 479.65649845 166.65996857 479.67111961 151.11842211 479.69996227 C135.15102423 479.72937398 119.18371556 479.74032319 103.21629179 479.73078007 C101.40925369 479.72975754 99.60221558 479.72876293 97.79517746 479.72779655 C96.46161657 479.72708197 96.46161657 479.72708197 95.10111506 479.72635295 C88.84543775 479.724191 82.58984509 479.7339813 76.33418655 479.74856758 C68.70576923 479.76610689 61.07759834 479.76595083 53.44919063 479.74321593 C49.5592334 479.73208764 45.66971008 479.72887863 41.7797718 479.74751663 C38.21413215 479.76438053 34.64930284 479.75789201 31.08371513 479.73329984 C29.19265238 479.7261424 27.30154502 479.74339881 25.41055739 479.76171118 C17.87679386 479.67962753 11.92763493 478.54454839 5.703125 474.09765625 C-0.21454835 467.76578539 -1.4475114 462.87126307 -1.39453125 454.2734375 C-1.3931163 453.41203659 -1.39170135 452.55063568 -1.39024353 451.66313171 C-1.3846464 448.91210456 -1.37209446 446.16115881 -1.359375 443.41015625 C-1.35435963 441.54492305 -1.34979679 439.67968858 -1.34570312 437.81445312 C-1.33467792 433.24215614 -1.31741527 428.66992 -1.296875 424.09765625 C-3.19614746 423.88725708 -3.19614746 423.88725708 -5.13378906 423.67260742 C-11.79003263 422.93523659 -16.47380323 419.24794603 -20.734375 414.22265625 C-24.99300868 405.7053889 -24.58038401 396.97506761 -24.55084229 387.68725586 C-24.55314833 386.11037776 -24.55632582 384.53350073 -24.56029677 382.95662594 C-24.56863367 378.63471508 -24.56452451 374.31289273 -24.55832434 369.99098158 C-24.55379634 365.32561619 -24.56078534 360.66026594 -24.56628418 355.99490356 C-24.57517609 346.85988208 -24.57325706 337.72489346 -24.5674589 328.58987069 C-24.56294163 321.16545101 -24.56232979 313.74104054 -24.56450653 306.31661987 C-24.564813 305.25982558 -24.56511946 304.20303129 -24.56543522 303.11421293 C-24.56607467 300.96733705 -24.56672309 298.82046117 -24.5673804 296.6735853 C-24.5730831 276.54364678 -24.56652673 256.41372648 -24.55577967 236.28379095 C-24.54684421 219.01242703 -24.54839627 201.74109 -24.55761719 184.46972656 C-24.56832086 164.41167667 -24.57253378 144.35364275 -24.56639266 124.2955904 C-24.56575556 122.15662448 -24.56512682 120.01765855 -24.56450653 117.87869263 C-24.5640437 116.30008584 -24.5640437 116.30008584 -24.56357153 114.68958801 C-24.56184488 107.27432715 -24.56475904 99.85907643 -24.56946564 92.44381714 C-24.57507554 83.40676567 -24.57355569 74.36974894 -24.56290415 65.33270144 C-24.55764894 60.72212865 -24.55558816 56.11161378 -24.56220245 51.50104141 C-24.56816708 47.27946999 -24.56487828 43.05801011 -24.55424735 38.83644879 C-24.55201551 37.31031184 -24.55314476 35.78416545 -24.55799893 34.25803459 C-24.61529342 14.74626802 -24.61529342 14.74626802 -18.296875 7.09765625 C-12.20031485 1.74121349 -8.14769327 -0.03843252 0 0 Z " fill="#D2D5CD" transform="translate(51.296875,32.90234375)"/>
<path d="M0 0 C0.76787338 -0.0065712 1.53574677 -0.0131424 2.32688904 -0.01991272 C4.86937562 -0.03962978 7.41180311 -0.05130622 9.9543457 -0.0612793 C10.82421427 -0.06535482 11.69408283 -0.06943035 12.59031105 -0.07362938 C17.19659817 -0.09448571 21.80285557 -0.10878797 26.40917969 -0.11816406 C31.15596477 -0.12921323 35.90227912 -0.16359699 40.64889812 -0.20333576 C44.30789533 -0.22954445 47.96678123 -0.23785978 51.62586403 -0.24144554 C53.37487776 -0.24630239 55.12388681 -0.25789058 56.87280846 -0.27648354 C59.32833956 -0.30096089 61.78266426 -0.2998945 64.23828125 -0.29296875 C64.95286499 -0.30577881 65.66744873 -0.31858887 66.40368652 -0.33178711 C73.262319 -0.26172901 78.41967852 2.15405352 83.25512695 6.98950195 C88.67812074 14.89157861 88.82765361 20.69393789 88.44262695 30.17700195 C89.58731445 29.43450195 89.58731445 29.43450195 90.75512695 28.67700195 C93.44262695 27.17700195 93.44262695 27.17700195 96.44262695 27.17700195 C96.44262695 26.51700195 96.44262695 25.85700195 96.44262695 25.17700195 C98.69262695 23.67700195 98.69262695 23.67700195 101.44262695 22.17700195 C102.14387695 21.78512695 102.84512695 21.39325195 103.56762695 20.98950195 C105.44262695 20.17700195 105.44262695 20.17700195 108.44262695 20.17700195 C108.44262695 19.51700195 108.44262695 18.85700195 108.44262695 18.17700195 C109.76262695 18.17700195 111.08262695 18.17700195 112.44262695 18.17700195 C112.44262695 17.51700195 112.44262695 16.85700195 112.44262695 16.17700195 C115.90762695 15.68200195 115.90762695 15.68200195 119.44262695 15.17700195 C119.44262695 14.51700195 119.44262695 13.85700195 119.44262695 13.17700195 C121.09262695 13.17700195 122.74262695 13.17700195 124.44262695 13.17700195 C124.44262695 12.51700195 124.44262695 11.85700195 124.44262695 11.17700195 C133.85264973 7.73281061 133.85264973 7.73281061 138.44262695 8.17700195 C138.44262695 7.51700195 138.44262695 6.85700195 138.44262695 6.17700195 C140.75262695 6.17700195 143.06262695 6.17700195 145.44262695 6.17700195 C145.44262695 5.51700195 145.44262695 4.85700195 145.44262695 4.17700195 C146.43004883 4.04422852 147.4174707 3.91145508 148.43481445 3.7746582 C149.71614258 3.59805664 150.9974707 3.42145508 152.31762695 3.23950195 C153.59379883 3.06547852 154.8699707 2.89145508 156.18481445 2.7121582 C159.3182215 2.36266968 159.3182215 2.36266968 161.44262695 1.17700195 C168.29888187 0.20427079 175.02560654 0.03044893 181.94262695 0.04418945 C183.01834961 0.04323273 184.09407227 0.042276 185.20239258 0.04129028 C187.46476297 0.04061325 189.72713535 0.04243412 191.98950195 0.04663086 C195.4322551 0.05198582 198.87487781 0.04666958 202.31762695 0.0402832 C204.52596057 0.04094407 206.73429411 0.04222541 208.94262695 0.04418945 C210.47113281 0.04115311 210.47113281 0.04115311 212.03051758 0.03805542 C228.3566632 0.0910382 228.3566632 0.0910382 230.44262695 2.17700195 C232.96458662 2.57643372 235.47226351 2.92780044 238.00512695 3.23950195 C238.71604492 3.33038086 239.42696289 3.42125977 240.15942383 3.51489258 C241.92001098 3.73939698 243.68126173 3.95868593 245.44262695 4.17700195 C245.44262695 4.50700195 245.44262695 4.83700195 245.44262695 5.17700195 C247.42262695 5.50700195 249.40262695 5.83700195 251.44262695 6.17700195 C251.44262695 6.83700195 251.44262695 7.49700195 251.44262695 8.17700195 C252.52543945 8.11512695 252.52543945 8.11512695 253.63012695 8.05200195 C256.68929493 8.18796497 258.64273952 8.9870498 261.44262695 10.17700195 C263.10182591 10.54571283 264.76739125 10.88981869 266.44262695 11.17700195 C266.44262695 11.83700195 266.44262695 12.49700195 266.44262695 13.17700195 C267.14387695 13.30075195 267.84512695 13.42450195 268.56762695 13.55200195 C271.61919083 14.2153854 274.49603633 15.1491215 277.44262695 16.17700195 C277.44262695 16.83700195 277.44262695 17.49700195 277.44262695 18.17700195 C278.76262695 18.17700195 280.08262695 18.17700195 281.44262695 18.17700195 C281.44262695 18.83700195 281.44262695 19.49700195 281.44262695 20.17700195 C282.76262695 20.17700195 284.08262695 20.17700195 285.44262695 20.17700195 C285.44262695 20.83700195 285.44262695 21.49700195 285.44262695 22.17700195 C287.42262695 22.50700195 289.40262695 22.83700195 291.44262695 23.17700195 C291.44262695 23.83700195 291.44262695 24.49700195 291.44262695 25.17700195 C292.43262695 25.17700195 293.42262695 25.17700195 294.44262695 25.17700195 C294.44262695 25.83700195 294.44262695 26.49700195 294.44262695 27.17700195 C295.06911133 27.3471582 295.6955957 27.51731445 296.34106445 27.69262695 C297.15833008 27.9349707 297.9755957 28.17731445 298.81762695 28.42700195 C299.62973633 28.6590332 300.4418457 28.89106445 301.27856445 29.13012695 C303.93233867 30.41390221 304.3195209 31.52478438 305.44262695 34.17700195 C307.73767328 35.58364325 309.87691615 36.32176502 312.44262695 37.17700195 C312.44262695 37.83700195 312.44262695 38.49700195 312.44262695 39.17700195 C313.10262695 39.17700195 313.76262695 39.17700195 314.44262695 39.17700195 C314.44262695 39.83700195 314.44262695 40.49700195 314.44262695 41.17700195 C316.09262695 41.50700195 317.74262695 41.83700195 319.44262695 42.17700195 C319.52512695 42.79575195 319.60762695 43.41450195 319.69262695 44.05200195 C320.24846172 46.33788989 320.24846172 46.33788989 322.38012695 47.36450195 C323.06075195 47.63262695 323.74137695 47.90075195 324.44262695 48.17700195 C325.10262695 48.50700195 325.76262695 48.83700195 326.44262695 49.17700195 C326.44262695 49.83700195 326.44262695 50.49700195 326.44262695 51.17700195 C327.10262695 51.17700195 327.76262695 51.17700195 328.44262695 51.17700195 C328.44262695 51.83700195 328.44262695 52.49700195 328.44262695 53.17700195 C329.02012695 53.42450195 329.59762695 53.67200195 330.19262695 53.92700195 C332.77202675 55.36000184 334.50384287 56.96124872 336.44262695 59.17700195 C336.44262695 59.83700195 336.44262695 60.49700195 336.44262695 61.17700195 C337.10262695 61.17700195 337.76262695 61.17700195 338.44262695 61.17700195 C338.44262695 61.83700195 338.44262695 62.49700195 338.44262695 63.17700195 C339.10262695 63.17700195 339.76262695 63.17700195 340.44262695 63.17700195 C340.77262695 64.49700195 341.10262695 65.81700195 341.44262695 67.17700195 C342.04075195 67.23887695 342.63887695 67.30075195 343.25512695 67.36450195 C346.34602225 68.51254878 347.03066135 70.28247247 348.44262695 73.17700195 C348.44262695 73.83700195 348.44262695 74.49700195 348.44262695 75.17700195 C349.10262695 75.17700195 349.76262695 75.17700195 350.44262695 75.17700195 C353.44262695 79.56161734 353.44262695 79.56161734 353.44262695 82.17700195 C354.10262695 82.17700195 354.76262695 82.17700195 355.44262695 82.17700195 C355.44262695 82.83700195 355.44262695 83.49700195 355.44262695 84.17700195 C356.10262695 84.17700195 356.76262695 84.17700195 357.44262695 84.17700195 C360.44262695 89.80200195 360.44262695 89.80200195 360.44262695 93.17700195 C361.10262695 93.17700195 361.76262695 93.17700195 362.44262695 93.17700195 C362.44262695 94.16700195 362.44262695 95.15700195 362.44262695 96.17700195 C363.10262695 96.17700195 363.76262695 96.17700195 364.44262695 96.17700195 C366.874233 99.5438411 367.44262695 100.9105056 367.44262695 105.17700195 C368.10262695 105.17700195 368.76262695 105.17700195 369.44262695 105.17700195 C369.44262695 106.16700195 369.44262695 107.15700195 369.44262695 108.17700195 C370.10262695 108.17700195 370.76262695 108.17700195 371.44262695 108.17700195 C371.94822604 109.61254221 372.44690185 111.05052215 372.94262695 112.48950195 C373.3602832 113.69026367 373.3602832 113.69026367 373.78637695 114.9152832 C374.44262695 117.17700195 374.44262695 117.17700195 374.44262695 120.17700195 C375.10262695 120.17700195 375.76262695 120.17700195 376.44262695 120.17700195 C376.44262695 122.15700195 376.44262695 124.13700195 376.44262695 126.17700195 C377.10262695 126.17700195 377.76262695 126.17700195 378.44262695 126.17700195 C378.77262695 128.81700195 379.10262695 131.45700195 379.44262695 134.17700195 C380.10262695 134.17700195 380.76262695 134.17700195 381.44262695 134.17700195 C381.44262695 136.48700195 381.44262695 138.79700195 381.44262695 141.17700195 C382.10262695 141.17700195 382.76262695 141.17700195 383.44262695 141.17700195 C383.44262695 143.48700195 383.44262695 145.79700195 383.44262695 148.17700195 C384.10262695 148.17700195 384.76262695 148.17700195 385.44262695 148.17700195 C385.57540039 149.46477539 385.70817383 150.75254883 385.8449707 152.0793457 C386.02312594 153.75775557 386.20152387 155.43613968 386.38012695 157.11450195 C386.46713867 157.96463867 386.55415039 158.81477539 386.64379883 159.69067383 C386.73081055 160.49956055 386.81782227 161.30844727 386.9074707 162.1418457 C386.98602295 162.89071045 387.0645752 163.6395752 387.14550781 164.41113281 C387.27070075 166.19840209 387.27070075 166.19840209 388.44262695 167.17700195 C388.68666388 170.07832981 388.87019149 172.95755894 389.00512695 175.86450195 C389.06772705 177.16073486 389.06772705 177.16073486 389.1315918 178.4831543 C389.60114421 188.82672327 389.56750185 199.08929194 389.00512695 209.42700195 C388.96597168 210.16708496 388.92681641 210.90716797 388.88647461 211.66967773 C388.56486267 216.93253051 388.56486267 216.93253051 387.44262695 219.17700195 C387.22480229 220.62212633 387.05289028 222.07436873 386.9074707 223.52856445 C386.82045898 224.3793457 386.73344727 225.23012695 386.64379883 226.10668945 C386.55678711 226.99614258 386.46977539 227.8855957 386.38012695 228.80200195 C386.28924805 229.69918945 386.19836914 230.59637695 386.10473633 231.52075195 C385.88053403 233.73917467 385.65998129 235.95789955 385.44262695 238.17700195 C384.78262695 238.17700195 384.12262695 238.17700195 383.44262695 238.17700195 C383.53543945 239.41450195 383.53543945 239.41450195 383.63012695 240.67700195 C383.43510653 244.31738311 382.59896328 246.68760203 381.2434082 250.0090332 C379.9044843 253.63392475 379.18725297 257.3925497 378.44262695 261.17700195 C377.78262695 261.17700195 377.12262695 261.17700195 376.44262695 261.17700195 C376.32016602 261.89243164 376.19770508 262.60786133 376.0715332 263.3449707 C375.4312732 266.22812908 374.5071114 268.76292669 373.38012695 271.48950195 C373.01790039 272.37250977 372.65567383 273.25551758 372.2824707 274.1652832 C372.00532227 274.82915039 371.72817383 275.49301758 371.44262695 276.17700195 C370.78262695 276.17700195 370.12262695 276.17700195 369.44262695 276.17700195 C369.44262695 277.49700195 369.44262695 278.81700195 369.44262695 280.17700195 C368.78262695 280.17700195 368.12262695 280.17700195 367.44262695 280.17700195 C367.11262695 282.48700195 366.78262695 284.79700195 366.44262695 287.17700195 C365.78262695 287.17700195 365.12262695 287.17700195 364.44262695 287.17700195 C364.44262695 288.16700195 364.44262695 289.15700195 364.44262695 290.17700195 C363.78262695 290.17700195 363.12262695 290.17700195 362.44262695 290.17700195 C361.45262695 293.14700195 360.46262695 296.11700195 359.44262695 299.17700195 C358.78262695 299.17700195 358.12262695 299.17700195 357.44262695 299.17700195 C357.44262695 299.83700195 357.44262695 300.49700195 357.44262695 301.17700195 C356.78262695 301.17700195 356.12262695 301.17700195 355.44262695 301.17700195 C355.44262695 302.16700195 355.44262695 303.15700195 355.44262695 304.17700195 C354.78262695 304.17700195 354.12262695 304.17700195 353.44262695 304.17700195 C353.11262695 305.49700195 352.78262695 306.81700195 352.44262695 308.17700195 C351.78262695 308.17700195 351.12262695 308.17700195 350.44262695 308.17700195 C350.44262695 309.16700195 350.44262695 310.15700195 350.44262695 311.17700195 C349.78262695 311.17700195 349.12262695 311.17700195 348.44262695 311.17700195 C348.44262695 311.83700195 348.44262695 312.49700195 348.44262695 313.17700195 C347.78262695 313.17700195 347.12262695 313.17700195 346.44262695 313.17700195 C346.13325195 314.19793945 346.13325195 314.19793945 345.81762695 315.23950195 C344.01367669 319.09339571 341.54159245 322.25487959 338.44262695 325.17700195 C337.78262695 325.17700195 337.12262695 325.17700195 336.44262695 325.17700195 C336.44262695 325.83700195 336.44262695 326.49700195 336.44262695 327.17700195 C335.59700195 327.52762695 334.75137695 327.87825195 333.88012695 328.23950195 C330.32988559 330.24054709 328.15939084 332.34949132 325.38012695 335.2590332 C316.37134386 344.17700195 316.37134386 344.17700195 312.44262695 344.17700195 C312.44262695 344.83700195 312.44262695 345.49700195 312.44262695 346.17700195 C301.47526555 355.33710064 288.25027407 361.99860634 275.44262695 368.17700195 C274.70657227 368.56887695 273.97051758 368.96075195 273.2121582 369.36450195 C270.89224461 370.42971614 268.96229012 370.31698324 266.44262695 370.17700195 C266.44262695 370.83700195 266.44262695 371.49700195 266.44262695 372.17700195 C263.28079679 373.33649024 260.11243436 374.47702191 256.94262695 375.61450195 C255.61231445 376.10273437 255.61231445 376.10273437 254.25512695 376.60083008 C248.91049632 378.50681968 244.07599413 379.58695798 238.44262695 380.17700195 C237.39075195 380.67200195 236.33887695 381.16700195 235.25512695 381.67700195 C224.68544698 386.48179807 209.36731794 384.39620439 197.99780273 384.41723633 C194.84502527 384.42691782 191.69290796 384.45801998 188.5402832 384.48950195 C175.87610326 384.55353391 163.87378083 383.61650322 151.44262695 381.17700195 C151.44262695 380.51700195 151.44262695 379.85700195 151.44262695 379.17700195 C149.13262695 379.17700195 146.82262695 379.17700195 144.44262695 379.17700195 C144.44262695 378.51700195 144.44262695 377.85700195 144.44262695 377.17700195 C143.42168945 377.23887695 143.42168945 377.23887695 142.38012695 377.30200195 C135.88655486 377.02567974 129.57836071 374.22733333 123.50512695 372.05200195 C122.72588867 371.77485352 121.94665039 371.49770508 121.14379883 371.2121582 C119.24272097 370.53570105 117.34257579 369.8566237 115.44262695 369.17700195 C115.44262695 368.51700195 115.44262695 367.85700195 115.44262695 367.17700195 C114.86287109 367.05010986 114.28311523 366.92321777 113.68579102 366.79248047 C111.4554922 366.18053192 109.61043031 365.37516011 107.55200195 364.3293457 C106.84301758 363.97163086 106.1340332 363.61391602 105.40356445 363.24536133 C104.67395508 362.87217773 103.9443457 362.49899414 103.19262695 362.11450195 C102.44754883 361.73745117 101.7024707 361.36040039 100.93481445 360.97192383 C99.10225164 360.04389523 97.27219019 359.11093016 95.44262695 358.17700195 C95.44262695 357.51700195 95.44262695 356.85700195 95.44262695 356.17700195 C94.67950195 356.05325195 93.91637695 355.92950195 93.13012695 355.80200195 C90.44262695 355.17700195 90.44262695 355.17700195 87.44262695 353.17700195 C87.44262695 352.51700195 87.44262695 351.85700195 87.44262695 351.17700195 C86.84450195 351.05325195 86.24637695 350.92950195 85.63012695 350.80200195 C83.44262695 350.17700195 83.44262695 350.17700195 80.44262695 348.17700195 C80.44262695 347.51700195 80.44262695 346.85700195 80.44262695 346.17700195 C79.64211914 346.0996582 79.64211914 346.0996582 78.82543945 346.02075195 C75.28427968 344.76683308 72.97008567 342.24008265 70.31762695 339.67700195 C69.15430807 338.57335302 67.99023853 337.47049481 66.82543945 336.3684082 C66.25212891 335.8232959 65.67881836 335.27818359 65.08813477 334.71655273 C62.84505767 332.61791116 60.51718293 330.62207302 58.19262695 328.61450195 C50.58011703 321.77928235 44.58107462 313.67345072 38.95043945 305.1730957 C37.4273288 302.92877415 37.4273288 302.92877415 34.44262695 301.17700195 C34.44262695 299.85700195 34.44262695 298.53700195 34.44262695 297.17700195 C33.78262695 297.17700195 33.12262695 297.17700195 32.44262695 297.17700195 C32.2002832 296.66911133 31.95793945 296.1612207 31.70825195 295.63793945 C30.12606843 292.3883779 28.56006757 289.34748026 26.50512695 286.36450195 C21.67342446 278.89732537 18.68172831 270.41031956 15.5559082 262.12231445 C13.73995875 257.11714378 13.73995875 257.11714378 11.38012695 252.36450195 C10.2624405 249.7565669 10.06401222 247.28577152 9.8840332 244.4699707 C9.49399676 241.96603764 9.49399676 241.96603764 8.01953125 239.02758789 C2.24968085 225.72549565 3.02038765 209.97499817 3.16137695 195.79345703 C3.19316407 192.55986259 3.20242409 189.32675439 3.20825195 186.09301758 C3.21739993 184.03637092 3.22776854 181.97972924 3.23950195 179.9230957 C3.24375183 178.95665634 3.24800171 177.99021698 3.25238037 176.99449158 C3.26198792 176.11169022 3.27159546 175.22888885 3.28149414 174.31933594 C3.29173615 173.15167946 3.29173615 173.15167946 3.30218506 171.96043396 C3.44262695 170.17700195 3.44262695 170.17700195 4.44262695 169.17700195 C4.67337777 167.82953111 4.85415758 166.4732263 5.00512695 165.11450195 C5.14950195 163.81512695 5.29387695 162.51575195 5.44262695 161.17700195 C6.10262695 161.17700195 6.76262695 161.17700195 7.44262695 161.17700195 C7.41942383 160.29657227 7.3962207 159.41614258 7.37231445 158.5090332 C7.34524414 156.76686523 7.34524414 156.76686523 7.31762695 154.98950195 C7.29442383 153.84094727 7.2712207 152.69239258 7.24731445 151.5090332 C7.44137451 148.19836863 8.13699031 146.18142232 9.44262695 143.17700195 C9.97654809 140.42434189 10.38106947 137.67048672 10.7824707 134.89575195 C11.5207364 131.85532044 12.82128261 129.84006003 14.44262695 127.17700195 C15.18840313 125.00867762 15.87418153 122.8189793 16.50512695 120.61450195 C17.56358448 116.93753104 18.59485159 113.53584694 20.44262695 110.17700195 C21.10262695 110.17700195 21.76262695 110.17700195 22.44262695 110.17700195 C22.52512695 109.51700195 22.60762695 108.85700195 22.69262695 108.17700195 C24.36427176 101.49042272 28.15469311 95.94705076 32.0168457 90.3215332 C33.59305366 88.02343422 33.59305366 88.02343422 35.25512695 84.80200195 C38.63174438 78.69535341 43.5230271 73.09660181 48.44262695 68.17700195 C47.78831696 68.17557693 47.13400696 68.17415192 46.45986938 68.17268372 C39.61304489 68.15290636 32.76710229 68.09846051 25.9206543 68.02441406 C23.36993754 68.00130213 20.81912627 67.98685444 18.26831055 67.98144531 C14.58884238 67.97210656 10.91084696 67.93100377 7.23168945 67.8840332 C6.10211823 67.88796585 4.972547 67.8918985 3.80874634 67.89595032 C-4.35932866 67.74743917 -11.60380005 66.22664523 -17.49960327 60.18757629 C-23.82352341 52.53290118 -23.95615002 43.93655415 -23.98291016 34.38085938 C-23.99478315 32.37965381 -24.04449152 30.37879013 -24.09448242 28.37817383 C-24.13887127 20.30343883 -23.46473864 13.80805241 -18.55737305 7.17700195 C-12.65176656 1.67910327 -8.03582729 0.02981568 0 0 Z M168.30981445 40.0012207 C167.29928513 40.10524956 167.29928513 40.10524956 166.26834106 40.21138 C161.97669616 40.73992069 158.23985546 41.84718981 154.26394653 43.46176147 C151.39131798 44.58985576 148.42311377 45.32535033 145.44262695 46.11450195 C140.02307913 47.62381688 135.34320894 49.43267604 130.44262695 52.17700195 C130.44262695 52.83700195 130.44262695 53.49700195 130.44262695 54.17700195 C129.45262695 54.17700195 128.46262695 54.17700195 127.44262695 54.17700195 C127.44262695 54.83700195 127.44262695 55.49700195 127.44262695 56.17700195 C126.8393457 56.28657227 126.23606445 56.39614258 125.61450195 56.5090332 C121.1225597 57.40017659 117.96099209 58.12775216 114.44262695 61.17700195 C113.37012695 61.77512695 112.29762695 62.37325195 111.19262695 62.98950195 C107.03594161 65.32481975 102.97684078 67.96408029 99.44262695 71.17700195 C99.44262695 71.83700195 99.44262695 72.49700195 99.44262695 73.17700195 C98.70149658 73.430625 97.96036621 73.68424805 97.19677734 73.94555664 C94.26652182 75.25574269 92.62947091 76.6167084 90.3762207 78.88012695 C89.64338867 79.61360352 88.91055664 80.34708008 88.15551758 81.1027832 C87.40463867 81.86977539 86.65375977 82.63676758 85.88012695 83.42700195 C85.12538086 84.17852539 84.37063477 84.93004883 83.59301758 85.7043457 C79.68862544 89.64657777 76.3556297 93.45865677 73.44262695 98.17700195 C72.44262695 99.17700195 71.44262695 100.17700195 70.44262695 101.17700195 C70.44262695 101.83700195 70.44262695 102.49700195 70.44262695 103.17700195 C69.78262695 103.17700195 69.12262695 103.17700195 68.44262695 103.17700195 C64.54658623 108.39731268 61.26941687 114.14047833 58.47387695 120.02075195 C57.6699071 121.70177982 56.82897097 123.36514438 55.97387695 125.02075195 C51.38087736 133.93657469 48.54771273 142.46606772 46.20043945 152.1887207 C45.30516762 155.71904519 44.23147618 159.17210428 43.09106445 162.63012695 C41.47607461 168.97334008 41.27597099 175.40998512 41.23950195 181.91918945 C41.23380188 182.72760284 41.22810181 183.53601624 41.222229 184.368927 C41.21284447 186.06812253 41.20627133 187.76733572 41.20239258 189.46655273 C41.19267858 192.03833262 41.16158977 194.60931482 41.13012695 197.1809082 C41.08129523 204.86412284 41.04212285 211.85112148 43.72094727 219.15844727 C44.82523949 222.24717802 45.10097349 225.36523513 45.44262695 228.61450195 C46.46014273 236.93122178 47.60648198 245.14260926 52.44262695 252.17700195 C52.77262695 253.16700195 53.10262695 254.15700195 53.44262695 255.17700195 C54.10262695 255.17700195 54.76262695 255.17700195 55.44262695 255.17700195 C55.57797852 255.73387695 55.71333008 256.29075195 55.8527832 256.86450195 C56.47880449 259.31883706 57.16522255 261.74706782 57.88012695 264.17700195 C58.12633789 265.02262695 58.37254883 265.86825195 58.6262207 266.73950195 C59.39022766 269.02055621 60.3100108 271.05886264 61.44262695 273.17700195 C62.10262695 273.17700195 62.76262695 273.17700195 63.44262695 273.17700195 C63.77262695 274.82700195 64.10262695 276.47700195 64.44262695 278.17700195 C65.10262695 278.17700195 65.76262695 278.17700195 66.44262695 278.17700195 C66.66950195 278.85762695 66.89637695 279.53825195 67.13012695 280.23950195 C68.75488842 283.87587285 70.77065952 287.20529458 73.44262695 290.17700195 C74.10262695 290.17700195 74.76262695 290.17700195 75.44262695 290.17700195 C75.64887695 290.91950195 75.85512695 291.66200195 76.06762695 292.42700195 C77.54696947 295.38568699 78.83309498 296.22033562 81.59887695 297.88793945 C86.82931803 301.54481563 91.29370221 306.63826778 95.25512695 311.61450195 C97.34157606 314.05862805 98.57841176 314.93584204 101.44262695 316.17700195 C102.44262695 317.17700195 103.44262695 318.17700195 104.44262695 319.17700195 C106.98261094 320.84804405 109.35398302 322.14275316 112.19262695 323.23950195 C114.44262695 324.17700195 114.44262695 324.17700195 115.44262695 326.17700195 C117.15433655 327.19661174 117.15433655 327.19661174 119.19262695 328.11450195 C121.660647 329.29332369 123.92544563 330.47742247 126.25512695 331.92700195 C128.45683927 333.42507142 128.45683927 333.42507142 131.44262695 333.17700195 C131.44262695 333.83700195 131.44262695 334.49700195 131.44262695 335.17700195 C132.32305664 335.44254883 133.20348633 335.7080957 134.1105957 335.98168945 C135.27204102 336.33489258 136.43348633 336.6880957 137.63012695 337.05200195 C138.77868164 337.40004883 139.92723633 337.7480957 141.1105957 338.10668945 C144.44262695 339.17700195 144.44262695 339.17700195 147.1340332 340.2746582 C150.17644144 341.46382284 153.21671229 341.74274421 156.44262695 342.17700195 C156.77262695 342.50700195 157.10262695 342.83700195 157.44262695 343.17700195 C169.93547477 346.40473907 182.68826348 346.50550448 195.50512695 346.55200195 C196.30357025 346.55958527 197.10201355 346.56716858 197.9246521 346.57498169 C209.72261799 346.66544832 220.86858956 345.45190789 232.44262695 343.17700195 C232.44262695 342.51700195 232.44262695 341.85700195 232.44262695 341.17700195 C234.75262695 341.17700195 237.06262695 341.17700195 239.44262695 341.17700195 C239.44262695 340.51700195 239.44262695 339.85700195 239.44262695 339.17700195 C240.37075195 339.09450195 241.29887695 339.01200195 242.25512695 338.92700195 C254.19032983 337.1944725 265.05107885 330.67826125 275.25512695 324.61450195 C275.88966797 324.23849854 276.52420898 323.86249512 277.17797852 323.47509766 C280.82925542 321.27149122 284.13879493 318.88813942 287.44262695 316.17700195 C288.22637695 315.74387695 289.01012695 315.31075195 289.81762695 314.86450195 C292.86616782 312.90472568 295.11286087 310.59367552 297.62231445 307.99731445 C299.32564232 306.29398658 301.08180543 304.76654383 302.94262695 303.23950195 C306.26077164 300.45702188 309.01966026 297.35236865 311.8137207 294.05200195 C313.44262695 292.17700195 313.44262695 292.17700195 316.13012695 289.61450195 C318.32820829 287.2976054 319.72352733 285.05444696 321.2121582 282.24731445 C322.76058608 279.6420231 324.59293832 277.32715245 326.44262695 274.92700195 C331.18644335 268.52240813 333.60443819 261.86884039 335.44262695 254.17700195 C336.10262695 254.17700195 336.76262695 254.17700195 337.44262695 254.17700195 C337.44262695 253.18700195 337.44262695 252.19700195 337.44262695 251.17700195 C338.10262695 251.17700195 338.76262695 251.17700195 339.44262695 251.17700195 C339.77262695 247.54700195 340.10262695 243.91700195 340.44262695 240.17700195 C341.10262695 240.17700195 341.76262695 240.17700195 342.44262695 240.17700195 C342.54575195 239.18700195 342.64887695 238.19700195 342.75512695 237.17700195 C343.26102763 233.59233428 344.36950988 230.4808106 345.68481445 227.12231445 C353.70102558 206.54461784 353.54421006 179.55914932 345.44262695 159.17700195 C345.02581501 157.54125742 344.64380564 155.89570237 344.31762695 154.23950195 C343.55880361 150.48117878 342.42254486 146.93843147 341.16918945 143.31762695 C340.14503619 140.30022918 339.30170333 137.24513188 338.44262695 134.17700195 C338.11262695 133.18700195 337.78262695 132.19700195 337.44262695 131.17700195 C336.78262695 131.17700195 336.12262695 131.17700195 335.44262695 131.17700195 C335.24926758 130.58532227 335.0559082 129.99364258 334.85668945 129.3840332 C333.49847976 125.26233745 332.12212111 121.18194955 330.44262695 117.17700195 C329.78262695 117.17700195 329.12262695 117.17700195 328.44262695 117.17700195 C328.19512695 116.31075195 327.94762695 115.44450195 327.69262695 114.55200195 C325.88577605 109.67350452 323.427474 106.161849 319.75512695 102.48950195 C317.44262695 100.17700195 317.44262695 100.17700195 316.44262695 97.17700195 C315.78262695 97.17700195 315.12262695 97.17700195 314.44262695 97.17700195 C314.33950195 96.55825195 314.23637695 95.93950195 314.13012695 95.30200195 C313.56737322 92.81173711 313.56737322 92.81173711 310.44262695 91.17700195 C309.75233398 90.01491211 309.75233398 90.01491211 309.0480957 88.8293457 C304.90497799 81.98463298 297.40525477 76.93531657 290.9387207 72.3684082 C289.44262695 71.17700195 289.44262695 71.17700195 288.44262695 69.17700195 C285.20913984 66.87664011 285.20913984 66.87664011 281.44262695 66.17700195 C281.44262695 65.51700195 281.44262695 64.85700195 281.44262695 64.17700195 C280.52481445 63.7180957 279.60700195 63.25918945 278.66137695 62.78637695 C278.0701001 62.49069824 277.47882324 62.19501953 276.86962891 61.89038086 C275.58183582 61.24656589 274.29391196 60.60301244 273.00585938 59.9597168 C270.27989211 58.59794225 267.5552761 57.23408653 264.8371582 55.85668945 C262.06113451 54.45044856 259.40001009 53.16279633 256.44262695 52.17700195 C256.11262695 51.51700195 255.78262695 50.85700195 255.44262695 50.17700195 C240.32469814 43.12526756 221.29639564 39.03634829 204.70043945 39.0090332 C203.97380096 39.0057048 203.24716248 39.0023764 202.49850464 38.99894714 C200.96393459 38.99390995 199.4293537 38.99153782 197.89477539 38.99169922 C195.60844499 38.98954049 193.32262047 38.97142813 191.03637695 38.95239258 C183.41647248 38.92185703 175.88807063 39.17056817 168.30981445 40.0012207 Z " fill="#FE5100" transform="translate(95.557373046875,-0.177001953125)"/>
<path d="M0 0 C117.81 0 235.62 0 357 0 C357 42.01769912 357 42.01769912 349.98828125 50.39453125 C342.62140098 56.34303378 335.9968165 56.5761604 326.84292603 56.5146637 C325.52415887 56.52160922 324.20539172 56.52855475 322.84666193 56.53571075 C319.20120428 56.55429366 315.55615408 56.54804836 311.91067982 56.53755772 C307.97326968 56.53055319 304.03594218 56.5465732 300.09855652 56.55955505 C292.39059773 56.58117999 284.68278666 56.58107194 276.97480752 56.57292951 C270.70838354 56.56662524 264.44200259 56.56777047 258.17557907 56.57420158 C257.28310854 56.57510324 256.39063801 56.57600489 255.47112291 56.57693387 C253.65796149 56.57878511 251.84480007 56.58064767 250.03163867 56.58252143 C233.03432741 56.59909492 216.0370992 56.59038483 199.03979294 56.57353585 C183.49822156 56.5588422 167.95684357 56.57346336 152.41529711 56.60230602 C136.44789923 56.63171773 120.48059056 56.64266694 104.51316679 56.63312382 C102.70612869 56.63210129 100.89909058 56.63110668 99.09205246 56.6301403 C97.75849157 56.62942572 97.75849157 56.62942572 96.39799006 56.6286967 C90.14231275 56.62653475 83.88672009 56.63632505 77.63106155 56.65091133 C70.00264423 56.66845064 62.37447334 56.66829458 54.74606563 56.64555968 C50.8561084 56.63443139 46.96658508 56.63122238 43.0766468 56.64986038 C39.51100715 56.66672428 35.94617784 56.66023576 32.38059013 56.63564359 C30.48952738 56.62848615 28.59842002 56.64574256 26.70743239 56.66405493 C19.17366886 56.58197128 13.22450993 55.44689214 7 51 C-6.72276483 36.31673351 0 24.01451931 0 0 Z " fill="#A5A8A0" transform="translate(50,456)"/>
<path d="M0 0 C0 0.66 0 1.32 0 2 C1.11375 2.020625 2.2275 2.04125 3.375 2.0625 C11.91086297 3.13514827 19.72958194 10.51644223 25 17 C28.52486712 22.31131204 31.00505776 27.96498606 33 34 C33.556875 35.5778125 33.556875 35.5778125 34.125 37.1875 C35.20400854 41.88889436 35.48553044 46.4958312 35.75390625 51.3046875 C35.70246459 53.915759 35.70246459 53.915759 37 55 C37.10118539 57.99470569 37.13968437 60.96586052 37.1328125 63.9609375 C37.13376923 64.86244537 37.13472595 65.76395325 37.13571167 66.69277954 C37.13639367 68.60443186 37.134538 70.51608648 37.13037109 72.42773438 C37.1250355 75.35552181 37.13030899 78.28315495 37.13671875 81.2109375 C37.13605773 83.06510451 37.13477607 84.91927142 37.1328125 86.7734375 C37.13483673 87.65164154 37.13686096 88.52984558 37.13894653 89.43466187 C37.13421829 90.66075668 37.13421829 90.66075668 37.12939453 91.91162109 C37.12859894 92.63030365 37.12780334 93.34898621 37.12698364 94.08944702 C37 96 37 96 36 99 C35.81008797 100.56646852 35.65956696 102.13791106 35.53515625 103.7109375 C35.41817383 105.08378906 35.41817383 105.08378906 35.29882812 106.484375 C35.14193624 108.40338321 34.98826253 110.32265738 34.83789062 112.2421875 C34.09111703 120.88776149 34.09111703 120.88776149 32 125 C31.34 125 30.68 125 30 125 C29.67 127.97 29.34 130.94 29 134 C28.34 134 27.68 134 27 134 C26.34 135.65 25.68 137.3 25 139 C24.34 139 23.68 139 23 139 C22.73445313 139.58910156 22.46890625 140.17820313 22.1953125 140.78515625 C18.18881657 148.20895753 10.42497954 153.1779496 2.8125 156.3125 C0.08398301 156.97947082 -2.20462676 157.16443372 -5 157 C-5 157.66 -5 158.32 -5 159 C-13.58 159 -22.16 159 -31 159 C-31 158.34 -31 157.68 -31 157 C-34.63 156.67 -38.26 156.34 -42 156 C-42 155.34 -42 154.68 -42 154 C-42.70511719 153.7834375 -43.41023438 153.566875 -44.13671875 153.34375 C-47.69725724 151.67277423 -50.11640259 149.28608731 -52.8125 146.5 C-53.31458984 146.00113281 -53.81667969 145.50226563 -54.33398438 144.98828125 C-58 141.26740009 -58 141.26740009 -58 139 C-58.66 139 -59.32 139 -60 139 C-60 138.34 -60 137.68 -60 137 C-60.66 137 -61.32 137 -62 137 C-62.25394531 136.35933594 -62.50789063 135.71867188 -62.76953125 135.05859375 C-64.35463515 131.07505547 -65.93806133 127.10208555 -67.6875 123.1875 C-70.0789468 117.37970062 -70.12149928 112.19646342 -70 106 C-70.66 106 -71.32 106 -72 106 C-73.72954157 87.00592735 -73.89725155 67.87237468 -71 49 C-70.7834375 47.34097656 -70.7834375 47.34097656 -70.5625 45.6484375 C-69.29343863 36.69702247 -66.18902293 28.95914356 -62 21 C-61.34 21 -60.68 21 -60 21 C-59.93167969 20.28199219 -59.86335938 19.56398438 -59.79296875 18.82421875 C-58.76013271 15.14569432 -57.01830479 13.48594838 -54.3125 10.8125 C-53.03826172 9.52279297 -53.03826172 9.52279297 -51.73828125 8.20703125 C-47.58049742 4.85589307 -44.29797296 4 -39 4 C-39 3.34 -39 2.68 -39 2 C-25.65781528 -2.54202033 -13.86691986 -3.16958168 0 0 Z " fill="#FEFCFC" transform="translate(349,108)"/>
<path d="M0 0 C0 51.81 0 103.62 0 157 C-14.52 157 -29.04 157 -44 157 C-44 121.03 -44 85.06 -44 48 C-47.63 50.31 -51.26 52.62 -55 55 C-56.98 55.495 -56.98 55.495 -59 56 C-59 56.66 -59 57.32 -59 58 C-61.27649967 60.19218487 -62.44585647 60.98199238 -65.64453125 61.0859375 C-66.81048828 61.04339844 -66.81048828 61.04339844 -68 61 C-68.10130235 54.64637854 -68.17142368 48.29296477 -68.21972656 41.9387207 C-68.23985958 39.77653216 -68.26716833 37.61439817 -68.30175781 35.45239258 C-68.35020117 32.34703116 -68.37295172 29.24238864 -68.390625 26.13671875 C-68.41127014 25.16788254 -68.43191528 24.19904633 -68.45318604 23.20085144 C-68.45348816 22.3001442 -68.45379028 21.39943695 -68.45410156 20.47143555 C-68.46298401 19.67867722 -68.47186646 18.88591888 -68.48101807 18.06913757 C-68 16 -68 16 -66.09661865 14.22053528 C-64 13 -64 13 -62 13 C-62 12.34 -62 11.68 -62 11 C-61.05125 10.54625 -60.1025 10.0925 -59.125 9.625 C-55.99686321 8.19761746 -55.99686321 8.19761746 -54 6 C-51.36587655 4.85179234 -48.72650879 3.90883626 -46 3 C-46 2.34 -46 1.68 -46 1 C-32.28220944 -5.85889528 -15.33695609 0 0 0 Z " fill="#FEFDFD" transform="translate(264,108)"/>
<path d="M0 0 C0.76787338 -0.0065712 1.53574677 -0.0131424 2.32688904 -0.01991272 C4.86937562 -0.03962978 7.41180311 -0.05130622 9.9543457 -0.0612793 C10.82421427 -0.06535482 11.69408283 -0.06943035 12.59031105 -0.07362938 C17.19659817 -0.09448571 21.80285557 -0.10878797 26.40917969 -0.11816406 C31.15596477 -0.12921323 35.90227912 -0.16359699 40.64889812 -0.20333576 C44.30789533 -0.22954445 47.96678123 -0.23785978 51.62586403 -0.24144554 C53.37487776 -0.24630239 55.12388681 -0.25789058 56.87280846 -0.27648354 C59.32833956 -0.30096089 61.78266426 -0.2998945 64.23828125 -0.29296875 C64.95286499 -0.30577881 65.66744873 -0.31858887 66.40368652 -0.33178711 C73.262319 -0.26172901 78.41967852 2.15405352 83.25512695 6.98950195 C88.11295085 14.06804534 89.43188989 19.81334042 89.3371582 28.4855957 C87.89671871 34.42976742 84.13965166 36.60550737 79.26293945 39.7355957 C76.44262695 41.17700195 76.44262695 41.17700195 74.44262695 41.17700195 C74.44262695 41.83700195 74.44262695 42.49700195 74.44262695 43.17700195 C72.84246021 44.56481012 71.18487699 45.88665899 69.50512695 47.17700195 C63.35676778 52.08935078 56.7694682 57.70272642 53.08740234 64.78295898 C48.73804382 68.71998563 43.81303735 67.88990035 38.15356445 67.84106445 C36.93996246 67.84584808 35.72636047 67.85063171 34.47598267 67.8555603 C31.90544339 67.85896395 29.33486109 67.84972934 26.7644043 67.82885742 C22.85276006 67.80224101 18.94402221 67.82852167 15.0324707 67.8605957 C12.53116233 67.85728898 10.02985576 67.85087733 7.52856445 67.84106445 C5.7874086 67.85624619 5.7874086 67.85624619 4.01107788 67.87173462 C-4.2476632 67.75420427 -11.53454691 66.30039084 -17.4984436 60.18740845 C-23.82532951 52.53552155 -23.95615349 43.93531503 -23.98291016 34.38085938 C-23.99478315 32.37965381 -24.04449152 30.37879013 -24.09448242 28.37817383 C-24.13887127 20.30343883 -23.46473864 13.80805241 -18.55737305 7.17700195 C-12.65176656 1.67910327 -8.03582729 0.02981568 0 0 Z " fill="#474747" transform="translate(95.557373046875,-0.177001953125)"/>
<path d="M0 0 C1.6329879 -0.02409439 1.6329879 -0.02409439 3.29896545 -0.04867554 C8.29272782 -0.09328576 13.28635805 -0.13421743 18.28027344 -0.15722656 C20.90764241 -0.17374988 23.53496712 -0.20099131 26.16210938 -0.23925781 C29.96044116 -0.2942749 33.75771882 -0.31594316 37.55639648 -0.33056641 C39.30225792 -0.36457047 39.30225792 -0.36457047 41.08338928 -0.39926147 C48.59628165 -0.37998394 54.47041149 0.76920472 60.67749023 5.19287109 C66.34561464 11.25541699 68.07359439 16.24962346 68.04077148 24.52099609 C67.67749023 27.19287109 67.67749023 27.19287109 65.23999023 30.31787109 C64.39436523 30.93662109 63.54874023 31.55537109 62.67749023 32.19287109 C62.34749023 32.52287109 62.01749023 32.85287109 61.67749023 33.19287109 C59.33132591 33.3090566 57.01417522 33.36084565 54.66674805 33.36987305 C53.56666916 33.37972984 53.56666916 33.37972984 52.44436646 33.38978577 C50.00644845 33.40956771 47.56859224 33.4211935 45.13061523 33.43115234 C44.29929832 33.43522787 43.46798141 33.4393034 42.61147308 33.44350243 C38.20965318 33.46438625 33.80786464 33.47867666 29.40600586 33.48803711 C24.85839719 33.49909321 20.31127897 33.53347692 15.76384354 33.57320881 C12.26880993 33.59935914 8.77389328 33.60772763 5.27877045 33.61131859 C3.60263515 33.61619041 1.92650528 33.6278214 0.25046539 33.64635658 C-2.09814685 33.67071036 -4.44548955 33.66979024 -6.79418945 33.6628418 C-7.83085251 33.68205688 -7.83085251 33.68205688 -8.88845825 33.70166016 C-13.62730345 33.650636 -15.99181151 32.52932189 -19.32250977 29.19287109 C-21.5930871 25.19233007 -21.8435059 21.73298023 -21.32250977 17.19287109 C-18.81541701 9.84650627 -15.0872985 5.02813835 -8.32250977 1.19287109 C-5.28994707 0.18201686 -3.17528815 0.04262535 0 0 Z " fill="#646562" transform="translate(93.322509765625,-0.19287109375)"/>
<path d="M0 0 C0.90909622 -0.0065712 1.81819244 -0.0131424 2.75483704 -0.01991272 C5.77169878 -0.03966855 8.7885107 -0.05131312 11.80541992 -0.0612793 C12.83440588 -0.06535482 13.86339184 -0.06943035 14.92355919 -0.07362938 C20.36928483 -0.09449942 25.81498519 -0.10879735 31.26074219 -0.11816406 C36.89004688 -0.12923318 42.51895679 -0.16363638 48.14812183 -0.20333576 C52.47267907 -0.22946089 56.79714164 -0.23785223 61.12177086 -0.24144554 C63.1970251 -0.24632176 65.27227482 -0.25796506 67.34745216 -0.27648354 C70.25148571 -0.30078849 73.15448998 -0.29992574 76.05859375 -0.29296875 C76.9164447 -0.30577881 77.77429565 -0.31858887 78.65814209 -0.33178711 C82.71519499 -0.29634749 84.72432493 -0.13871532 88.23368835 2.08137512 C90.59622278 4.56968479 91.1450226 5.5892564 91.59838867 8.98950195 C91.22338867 12.17700195 91.22338867 12.17700195 89.28125 14.83578491 C85.0961528 18.04005739 82.05821574 17.88359372 76.92260742 17.82397461 C75.99356598 17.83273621 75.06452454 17.8414978 74.10733032 17.8505249 C71.04137239 17.87250208 67.97686085 17.85797179 64.91088867 17.84106445 C62.77766646 17.84443306 60.64444612 17.84928605 58.51123047 17.8555603 C54.0423758 17.86292937 49.57402112 17.85222462 45.10522461 17.82885742 C39.37825218 17.80037008 33.6524513 17.8167738 27.92552185 17.84671974 C23.52110982 17.8647915 19.11697534 17.85903514 14.71255493 17.84608078 C12.60104229 17.84274646 10.48950441 17.84683475 8.37802124 17.85847855 C5.42605899 17.87118487 2.47599113 17.85181262 -0.47583008 17.82397461 C-1.78358902 17.83915634 -1.78358902 17.83915634 -3.11776733 17.85464478 C-7.4899108 17.77829737 -9.25346894 17.5810935 -12.82275391 14.82406616 C-14.77661133 12.17700195 -14.77661133 12.17700195 -15.33911133 9.17700195 C-14.65303476 5.51792691 -13.34926819 3.8253252 -10.77661133 1.17700195 C-7.43519705 -0.49370519 -3.67529655 0.01143911 0 0 Z " fill="#A6A9A1" transform="translate(266.776611328125,391.822998046875)"/>
<path d="M0 0 C0.88856689 -0.00554901 1.77713379 -0.01109802 2.69262695 -0.01681519 C5.61855656 -0.02858885 8.5429296 -0.00435942 11.46875 0.02148438 C13.50846282 0.02319616 15.54817785 0.0231291 17.58789062 0.0213623 C21.85828765 0.02301426 26.1281589 0.04168973 30.3984375 0.07324219 C35.86611667 0.11291908 41.3331075 0.11728655 46.80090332 0.10977936 C51.01145712 0.10670653 55.22185682 0.11884139 59.43237305 0.13591003 C61.44815097 0.14293009 63.46394636 0.14606578 65.47973633 0.1452179 C68.29931058 0.14702013 71.1180675 0.16843855 73.9375 0.1953125 C74.76677002 0.1923819 75.59604004 0.18945129 76.45043945 0.18643188 C81.33836847 0.25813729 84.73424472 0.90514272 88.96875 3.61523438 C90.53810594 6.75394625 90.32076103 9.15379259 89.96875 12.61523438 C87.98604633 15.35336467 86.3988712 17.27935169 83.00556946 18.07631302 C80.57737454 18.26722832 78.19538298 18.29078858 75.75976562 18.26220703 C74.38083382 18.27534943 74.38083382 18.27534943 72.9740448 18.28875732 C69.94054729 18.31073289 66.90851188 18.29620486 63.875 18.27929688 C61.764198 18.28266553 59.6533979 18.28751856 57.54260254 18.29379272 C53.12082433 18.30116158 48.69955146 18.29045779 44.27783203 18.26708984 C38.61138943 18.23860248 32.94613091 18.25500632 27.27973175 18.28495216 C22.92164191 18.30302455 18.56383256 18.29726729 14.20573425 18.2843132 C12.11655029 18.28097905 10.02734082 18.28506658 7.93818665 18.29671097 C5.01735032 18.30941836 2.0984282 18.29004373 -0.82226562 18.26220703 C-1.68475418 18.27232819 -2.54724274 18.28244934 -3.43586731 18.2928772 C-7.76234527 18.2165316 -9.52159527 18.00541473 -13.06384277 15.29354858 C-15.03125 12.61523438 -15.03125 12.61523438 -15.71875 9.11523438 C-14.967898 5.29271511 -13.93183323 4.00879684 -10.89794922 1.64640808 C-7.41708721 -0.27643698 -3.89297074 -0.0622637 0 0 Z " fill="#A5A9A1" transform="translate(82.03125,391.384765625)"/>
<path d="M0 0 C0.93064774 -0.0071553 1.86129547 -0.01431061 2.82014465 -0.02168274 C5.8909337 -0.03856737 8.96026252 -0.01916964 12.03100586 0.00219727 C14.16662212 0.00136862 16.30223832 -0.0010906 18.43785095 -0.00511169 C22.91091131 -0.00796945 27.38347086 0.00673105 31.85644531 0.03417969 C37.59236327 0.06828267 43.3273869 0.06223698 49.06334782 0.04351711 C53.47199469 0.03295389 57.88043311 0.04187851 62.28906059 0.05690193 C64.40418313 0.06208777 66.5193274 0.06159709 68.6344471 0.05535698 C71.5888065 0.04991226 74.54188075 0.07025572 77.49609375 0.09765625 C78.37152832 0.09113037 79.24696289 0.08460449 80.14892578 0.07788086 C86.0712079 0.17137325 86.0712079 0.17137325 89.22434998 2.53944397 C91.25120965 5.44520233 91.25102876 7.28504035 91.07788086 10.72875977 C90.46946853 13.66239147 89.07188447 14.92500719 86.68334961 16.63110352 C82.80073356 17.92530887 79.11573081 17.78680049 75.06860352 17.79223633 C73.74863121 17.79968369 73.74863121 17.79968369 72.4019928 17.80728149 C69.48795798 17.82189867 66.57397758 17.82870411 63.65991211 17.83422852 C61.63593545 17.83997998 59.6119588 17.84573772 57.58798218 17.85150146 C53.34275051 17.86200995 49.09753777 17.86785373 44.85229492 17.87133789 C39.41253711 17.87682469 33.97302934 17.90085741 28.53334999 17.92930984 C24.35205351 17.94793218 20.17081733 17.95314159 15.98948288 17.95467377 C13.98401903 17.95770133 11.97855627 17.96573335 9.97313309 17.97885895 C7.16752325 17.99591215 4.36252539 17.99404103 1.55688477 17.98754883 C0.72865707 17.99676361 -0.09957062 18.00597839 -0.95289612 18.01547241 C-5.56215674 17.98205818 -8.58448548 17.63287688 -12.31665039 14.63110352 C-14.66214713 11.1128584 -14.89656442 9.77334657 -14.31665039 5.63110352 C-10.16536625 -0.03725839 -6.51967596 -0.08727782 0 0 Z " fill="#A6A9A1" transform="translate(81.316650390625,347.368896484375)"/>
<path d="M0 0 C4.5732017 2.92176775 5.72436136 7.97869631 7 13 C8.05745522 18.12994861 8.14535985 23.06191556 8.1328125 28.2734375 C8.13424759 29.59729965 8.13424759 29.59729965 8.13571167 30.94790649 C8.1363899 32.8086962 8.1345606 34.66948832 8.13037109 36.53027344 C8.12503063 39.35877885 8.13032165 42.18712457 8.13671875 45.015625 C8.13605766 46.83072951 8.13477585 48.64583393 8.1328125 50.4609375 C8.13483673 51.29764984 8.13686096 52.13436218 8.13894653 52.99642944 C8.11892396 58.08363524 7.72750244 62.96383367 7 68 C6.34 68 5.68 68 5 68 C4.731875 69.258125 4.46375 70.51625 4.1875 71.8125 C3.58977141 74.10989219 3.04174069 75.92579432 1.875 78 C-1.30216659 79.69448885 -4.5089121 79.7741743 -8 79 C-16.47541388 69.39453093 -14.16110356 51.77345082 -14.125 39.9375 C-14.12886719 38.66583984 -14.13273437 37.39417969 -14.13671875 36.08398438 C-14.10863927 8.72052629 -14.10863927 8.72052629 -9.3125 1.4375 C-6.00195663 -0.62040534 -3.82147209 -0.54592458 0 0 Z " fill="#CC0404" transform="translate(335,147)"/>
<path d="M0 0 C0.5880542 0.85835449 1.1761084 1.71670898 1.78198242 2.60107422 C2.34143555 3.28169922 2.90088867 3.96232422 3.47729492 4.66357422 C3.9490918 5.30294922 4.42088867 5.94232422 4.90698242 6.60107422 C5.38393555 7.24044922 5.86088867 7.87982422 6.35229492 8.53857422 C7.94190649 10.83178435 9.35567354 13.20365091 10.78198242 15.60107422 C1.22003658 15.7169801 -8.34166707 15.8057952 -17.90416241 15.86013508 C-22.344564 15.88621712 -26.78448461 15.92158904 -31.22460938 15.97827148 C-35.51050854 16.03264201 -39.79594541 16.06250524 -44.08216286 16.07546043 C-45.71647227 16.08469137 -47.35075668 16.10271777 -48.984869 16.1297245 C-51.2762738 16.16608437 -53.5657745 16.17101705 -55.85742188 16.16870117 C-57.81267036 16.18535576 -57.81267036 16.18535576 -59.80741882 16.2023468 C-64.11034619 15.44376087 -65.57013011 14.01213489 -68.21801758 10.60107422 C-68.90551758 7.10107422 -68.90551758 7.10107422 -68.21801758 3.60107422 C-65.46051119 0.2786673 -63.70532228 -1.12892683 -59.42843628 -1.90533447 C-55.912647 -2.15839233 -52.4263954 -2.24843539 -48.90161133 -2.28173828 C-47.61239273 -2.30871796 -46.32317413 -2.33569763 -44.99488831 -2.36349487 C-42.27407819 -2.41764665 -39.55375814 -2.45410329 -36.83251953 -2.47802734 C-33.35233105 -2.51011549 -29.87484028 -2.58712861 -26.39573574 -2.67749214 C-23.06463097 -2.75768588 -19.73337869 -2.79920542 -16.40161133 -2.84423828 C-15.1556871 -2.87623322 -13.90976288 -2.90822815 -12.62608337 -2.94119263 C-3.03249312 -2.97637893 -3.03249312 -2.97637893 0 0 Z " fill="#A6A8A0" transform="translate(135.218017578125,304.39892578125)"/>
<path d="M0 0 C2 1 2 1 3 3.80078125 C3.495 5.53908203 3.495 5.53908203 4 7.3125 C5.28035489 11.88076251 5.28035489 11.88076251 7.125 16.23046875 C8 18 8 18 8 21 C1.66476809 21.12676673 -4.67013694 21.21433632 -11.00634766 21.2746582 C-13.16174542 21.29980397 -15.31705791 21.33392524 -17.47216797 21.37719727 C-20.57020092 21.43784508 -23.66710681 21.46620912 -26.765625 21.48828125 C-28.21113739 21.52699089 -28.21113739 21.52699089 -29.68585205 21.56648254 C-36.3671852 21.56928418 -36.3671852 21.56928418 -39.60449219 18.65698242 C-41.33207997 15.36773508 -41.686727 13.66254397 -41 10 C-39.02220215 7.37090827 -37.43624313 5.33230468 -34.11898804 4.56478882 C-31.86887883 4.42175678 -29.67140085 4.43749885 -27.41796875 4.51171875 C-26.19670036 4.52233086 -26.19670036 4.52233086 -24.95075989 4.53315735 C-22.36205357 4.56104402 -19.77554727 4.62376684 -17.1875 4.6875 C-15.42776572 4.7125905 -13.66799737 4.73540236 -11.90820312 4.75585938 C-7.60462704 4.81085128 -3.3026859 4.89708008 1 5 C0.505 2.525 0.505 2.525 0 0 Z " fill="#A6A79E" transform="translate(108,254)"/>
<path d="M0 0 C0.81700882 0.00141495 1.63401764 0.0028299 2.4757843 0.00428772 C5.08415393 0.00988331 7.69243759 0.02243496 10.30078125 0.03515625 C12.06966022 0.04017182 13.83854053 0.04473463 15.60742188 0.04882812 C19.94274144 0.05985129 24.27799677 0.07711287 28.61328125 0.09765625 C26.73828125 5.80859375 26.73828125 5.80859375 25.61328125 8.41015625 C24.19724938 12.21574191 23.42668616 16.12581739 22.61328125 20.09765625 C22.11828125 18.61265625 22.11828125 18.61265625 21.61328125 17.09765625 C20.73067627 17.10812988 19.84807129 17.11860352 18.9387207 17.12939453 C15.64930587 17.16357589 12.36008112 17.18860335 9.07055664 17.20751953 C7.64962782 17.21754771 6.22871947 17.23117366 4.80786133 17.24853516 C2.75987681 17.27292446 0.71216627 17.28417115 -1.3359375 17.29296875 C-2.56658936 17.30344238 -3.79724121 17.31391602 -5.06518555 17.32470703 C-8.34537667 17.10048228 -10.50311272 16.64920196 -13.38671875 15.09765625 C-15.86710782 11.37707265 -15.85009078 9.49969054 -15.38671875 5.09765625 C-11.18889906 -0.40293507 -6.42897714 -0.04179877 0 0 Z " fill="#A7A8A0" transform="translate(82.38671875,124.90234375)"/>
<path d="M0 0 C1.21300781 0.02255859 2.42601563 0.04511719 3.67578125 0.06835938 C6.66012502 0.1271063 9.64192067 0.20920778 12.625 0.3125 C13.13046036 2.39451528 13.62916835 4.47817067 14.125 6.5625 C14.4034375 7.72265625 14.681875 8.8828125 14.96875 10.078125 C15.625 13.3125 15.625 13.3125 15.625 17.3125 C11.44419399 17.43653121 7.26437498 17.52703601 3.08227539 17.5871582 C1.66118709 17.61223147 0.24022687 17.64629999 -1.18041992 17.68969727 C-3.22867462 17.75067858 -5.27521883 17.77877762 -7.32421875 17.80078125 C-9.17019653 17.84005737 -9.17019653 17.84005737 -11.0534668 17.88012695 C-15.30944004 17.15281069 -16.74847928 15.6710669 -19.375 12.3125 C-20.0625 8.8125 -20.0625 8.8125 -19.375 5.3125 C-14.05039359 -1.19954076 -7.91607796 -0.27873514 0 0 Z " fill="#A7A8A0" transform="translate(86.375,213.6875)"/>
<path d="M0 0 C14.52 0 29.04 0 44 0 C44 51.81 44 103.62 44 157 C29.48 157 14.96 157 0 157 C0 121.03 0 85.06 0 48 C-0.66 47.67 -1.32 47.34 -2 47 C-0.02 46.505 -0.02 46.505 2 46 C2 82.3 2 118.6 2 156 C15.53 156 29.06 156 43 156 C43 104.85 43 53.7 43 1 C28.81 1 14.62 1 0 1 C0 0.67 0 0.34 0 0 Z " fill="#E49594" transform="translate(220,108)"/>
<path d="M0 0 C0.33 0 0.66 0 1 0 C0.99555878 0.61006393 0.99111755 1.22012787 0.98654175 1.84867859 C0.9419396 8.2575748 0.91198215 14.66642618 0.89013672 21.07543945 C0.88014303 23.46022333 0.86654356 25.84499515 0.84912109 28.22973633 C0.82457881 31.67792759 0.81345024 35.1259554 0.8046875 38.57421875 C0.79436493 39.62268478 0.78404236 40.67115082 0.77340698 41.75138855 C0.77242665 48.37126948 1.41798865 54.64959641 2.55715942 61.17195129 C3.08184997 64.5227066 3.15720783 67.62003161 3 71 C2.67 71 2.34 71 2 71 C0.79431947 66.32798795 0.90617574 61.78503708 1 57 C0.34 57 -0.32 57 -1 57 C-2.72884843 38.01353951 -2.90664023 18.86720932 0 0 Z " fill="#E8A7A6" transform="translate(278,157)"/>
<path d="M0 0 C4.99413548 7.49120323 4.34837383 16.25435183 4.3125 24.9375 C4.31121094 26.21971436 4.30992187 27.50192871 4.30859375 28.82299805 C4.21109837 38.48783714 3.28137035 47.61650647 1 57 C-0.2102799 53.35123024 0.10523147 50.24012868 0.4375 46.4375 C1.02516472 38.66726651 1.11705322 30.91549201 1.125 23.125 C1.12943115 21.98474365 1.1338623 20.8444873 1.13842773 19.66967773 C1.12733218 13.05142084 0.81579583 6.56910765 0 0 Z " fill="#E42700" transform="translate(442,164)"/>
<path d="M0 0 C0.33 0 0.66 0 1 0 C3.07606876 6.81008021 3.26208412 13.06582064 3.1953125 20.15625 C3.1924826 21.29912476 3.18965271 22.44199951 3.18673706 23.61950684 C3.17560025 27.24644732 3.15050741 30.87313496 3.125 34.5 C3.11496181 36.96874642 3.10583743 39.43749673 3.09765625 41.90625 C3.07568219 47.93758532 3.04226957 53.96877459 3 60 C2.34 60 1.68 60 1 60 C1 62.97 1 65.94 1 69 C0.01 69.495 0.01 69.495 -1 70 C-0.85919445 67.22882696 -0.71256882 64.45817359 -0.5625 61.6875 C-0.52318359 60.90181641 -0.48386719 60.11613281 -0.44335938 59.30664062 C-0.40146484 58.54931641 -0.35957031 57.79199219 -0.31640625 57.01171875 C-0.27974854 56.31522217 -0.24309082 55.61872559 -0.20532227 54.90112305 C0 53 0 53 1 50 C1.09042299 48.6395263 1.12788514 47.2750956 1.12939453 45.91162109 C1.13254669 45.09422455 1.13569885 44.276828 1.13894653 43.43466187 C1.1369223 42.55645782 1.13489807 41.67825378 1.1328125 40.7734375 C1.13424759 39.41830551 1.13424759 39.41830551 1.13571167 38.03579712 C1.13639192 36.12770518 1.13454845 34.21961092 1.13037109 32.31152344 C1.12500824 29.37950495 1.13032771 26.44763879 1.13671875 23.515625 C1.13605819 21.66406216 1.13477747 19.81249942 1.1328125 17.9609375 C1.13483673 17.078685 1.13686096 16.1964325 1.13894653 15.28744507 C1.52135606 11.3275799 1.52135606 11.3275799 0 8 C-0.14115161 5.32941149 -0.04247107 2.67567762 0 0 Z " fill="#E27A78" transform="translate(384,154)"/>
<path d="M0 0 C1.12591553 0.00523682 2.25183105 0.01047363 3.41186523 0.01586914 C4.62680664 0.0190918 5.84174805 0.02231445 7.09350586 0.02563477 C8.37290039 0.03401367 9.65229492 0.04239258 10.97045898 0.05102539 C12.2537207 0.05553711 13.53698242 0.06004883 14.85913086 0.06469727 C18.04211921 0.07652994 21.22501661 0.09301471 24.40795898 0.11352539 C24.40795898 0.77352539 24.40795898 1.43352539 24.40795898 2.11352539 C26.05795898 2.11352539 27.70795898 2.11352539 29.40795898 2.11352539 C29.40795898 2.77352539 29.40795898 3.43352539 29.40795898 4.11352539 C30.54233398 4.23727539 31.67670898 4.36102539 32.84545898 4.48852539 C34.02108398 4.69477539 35.19670898 4.90102539 36.40795898 5.11352539 C36.90295898 6.10352539 36.90295898 6.10352539 37.40795898 7.11352539 C32.45795898 6.12352539 32.45795898 6.12352539 27.40795898 5.11352539 C27.40795898 4.45352539 27.40795898 3.79352539 27.40795898 3.11352539 C11.08378419 1.12969255 11.08378419 1.12969255 -4.74829102 4.44555664 C-7.08024565 5.29039614 -9.13546872 5.35125819 -11.59204102 5.11352539 C-11.59204102 5.77352539 -11.59204102 6.43352539 -11.59204102 7.11352539 C-14.23204102 7.77352539 -16.87204102 8.43352539 -19.59204102 9.11352539 C-19.59204102 8.45352539 -19.59204102 7.79352539 -19.59204102 7.11352539 C-18.60204102 7.11352539 -17.61204102 7.11352539 -16.59204102 7.11352539 C-16.59204102 6.45352539 -16.59204102 5.79352539 -16.59204102 5.11352539 C-15.66520508 4.83637695 -14.73836914 4.55922852 -13.78344727 4.27368164 C-12.5859082 3.91145508 -11.38836914 3.54922852 -10.15454102 3.17602539 C-8.95958008 2.81637695 -7.76461914 2.45672852 -6.53344727 2.08618164 C-0.25892743 0.01134042 -0.25892743 0.01134042 0 0 Z " fill="#DF7070" transform="translate(321.592041015625,104.886474609375)"/>
<path d="M0 0 C4.39176006 6.58764008 4.29798355 14.95829105 4.23046875 22.6640625 C4.23001053 23.54097748 4.22955231 24.41789246 4.2290802 25.32138062 C4.22608418 27.15827809 4.21827864 28.99517364 4.20581055 30.83203125 C4.18749939 33.6250927 4.18530178 36.41782209 4.18554688 39.2109375 C4.18063201 41.00781533 4.17480383 42.80469095 4.16796875 44.6015625 C4.16685593 45.42572662 4.1657431 46.24989075 4.16459656 47.09902954 C4.12372704 52.1467861 3.71688677 57.00217293 3 62 C2.67 62 2.34 62 2 62 C2.01047363 60.9076001 2.02094727 59.8152002 2.03173828 58.68969727 C2.0685482 54.55024631 2.09111693 50.41080905 2.10986328 46.27124023 C2.11978449 44.49582469 2.13332571 42.72042485 2.15087891 40.94506836 C2.25280455 30.35379511 1.90175726 20.07812428 0.43310547 9.58178711 C0.04122359 6.34091953 -0.08002505 3.25928793 0 0 Z " fill="#DC605F" transform="translate(339,153)"/>
<path d="M0 0 C0 4.00212717 -1.23918966 5.58253584 -3.87237549 8.5005188 C-8.28778241 11.61235533 -13.64296036 10.84073171 -18.8359375 10.68359375 C-20.07042633 10.67368912 -21.30491516 10.66378448 -22.57681274 10.65357971 C-26.51076193 10.61446714 -30.44189747 10.52663751 -34.375 10.4375 C-37.04553213 10.39843443 -39.71603781 10.37044522 -42.38671875 10.34179688 C-48.92543539 10.26471442 -55.46251669 10.14765083 -62 10 C-62 9.67 -62 9.34 -62 9 C-61.34124878 9.00523682 -60.68249756 9.01047363 -60.00378418 9.01586914 C-53.12469604 9.06268783 -46.24727588 9.05345713 -39.36816406 9.01220703 C-36.80371625 9.00411423 -34.23918235 9.01013933 -31.67480469 9.03076172 C-27.97998505 9.05799274 -24.28845431 9.03384692 -20.59375 9 C-19.4538562 9.0194165 -18.3139624 9.03883301 -17.13952637 9.05883789 C-10.99862751 8.94848807 -7.65988037 8.35866065 -3.21289062 3.9375 C-2.1102846 2.65146768 -1.02698377 1.34719096 0 0 Z " fill="#676966" transform="translate(152,57)"/>
<path d="M0 0 C0.33 0 0.66 0 1 0 C1 3.63 1 7.26 1 11 C0.34 11 -0.32 11 -1 11 C-0.979375 12.299375 -0.95875 13.59875 -0.9375 14.9375 C-0.91600546 16.29165633 -0.92851801 17.64756083 -1 19 C-1.33 19.33 -1.66 19.66 -2 20 C-2.15888092 22.28988781 -2.25138073 24.58443441 -2.31640625 26.87890625 C-2.33718735 27.5655687 -2.35796844 28.25223114 -2.37937927 28.95970154 C-2.44494143 31.16052935 -2.50379015 33.36147975 -2.5625 35.5625 C-2.60567892 37.05144514 -2.649293 38.54037773 -2.69335938 40.02929688 C-2.8006293 43.68606553 -2.90187772 47.34297318 -3 51 C-3.33 51 -3.66 51 -4 51 C-4.04970487 46.28606679 -4.085863 41.5722886 -4.10986328 36.8581543 C-4.11987623 35.25689026 -4.1334906 33.65564429 -4.15087891 32.05444336 C-4.17533565 29.74328124 -4.18653029 27.43236238 -4.1953125 25.12109375 C-4.20563507 24.41351425 -4.21595764 23.70593475 -4.22659302 22.97691345 C-4.22762723 18.32022542 -3.43074302 14.41735106 -2 10 C-1.60161154 8.19249678 -1.2236115 6.38025996 -0.875 4.5625 C-0.70742187 3.69753906 -0.53984375 2.83257812 -0.3671875 1.94140625 C-0.24601562 1.30074219 -0.12484375 0.66007813 0 0 Z " fill="#E3A27D" transform="translate(102,150)"/>
<path d="M0 0 C2.62573061 0.64297504 5.25057303 1.28924411 7.875 1.9375 C8.99455078 2.21110352 8.99455078 2.21110352 10.13671875 2.49023438 C15.7734375 3.88671875 15.7734375 3.88671875 18 5 C19.66565749 5.15222973 21.33656496 5.24917215 23.0078125 5.31640625 C23.99394531 5.35830078 24.98007812 5.40019531 25.99609375 5.44335938 C27.54490234 5.50233398 27.54490234 5.50233398 29.125 5.5625 C30.68541016 5.62727539 30.68541016 5.62727539 32.27734375 5.69335938 C34.85142528 5.7996288 37.42560508 5.90166583 40 6 C40 6.33 40 6.66 40 7 C31.42 7 22.84 7 14 7 C14 6.34 14 5.68 14 5 C10.37 4.67 6.74 4.34 3 4 C3 3.34 3 2.68 3 2 C2.01 1.67 1.02 1.34 0 1 C0 0.67 0 0.34 0 0 Z " fill="#E39999" transform="translate(304,260)"/>
<path d="M0 0 C-0.56746268 3.29128352 -1.34726156 4.94184087 -4 7 C-6.69921875 7.51171875 -6.69921875 7.51171875 -9.6875 7.6875 C-11.17830078 7.78611328 -11.17830078 7.78611328 -12.69921875 7.88671875 C-13.45847656 7.92410156 -14.21773438 7.96148437 -15 8 C-13.61170312 5.22340623 -11.61384493 4.91016654 -8.84765625 3.796875 C-6.78561391 2.95605367 -6.78561391 2.95605367 -4.1875 1.3125 C-2 0 -2 0 0 0 Z " fill="#C69B7F" transform="translate(392,357)"/>
<path d="M0 0 C0.66 0 1.32 0 2 0 C2 0.66 2 1.32 2 2 C2.886875 2.2475 3.77375 2.495 4.6875 2.75 C8.10427135 4.03934768 10.2797748 5.59980129 13 8 C5.67973856 8.48801743 5.67973856 8.48801743 2.5625 6.25 C1.05601102 4.08065587 0.37048807 2.5934165 0 0 Z " fill="#B7A695" transform="translate(189,356)"/>
<path d="M0 0 C-9.41002278 3.44419134 -9.41002278 3.44419134 -14 3 C-14 3.66 -14 4.32 -14 5 C-16.64 5.66 -19.28 6.32 -22 7 C-22 6.34 -22 5.68 -22 5 C-21.01 5 -20.02 5 -19 5 C-19 4.34 -19 3.68 -19 3 C-6.75872735 -1.93946089 -6.75872735 -1.93946089 0 0 Z " fill="#E69696" transform="translate(324,107)"/>
<path d="M0 0 C1.1700097 3.91736581 0.69584017 6.97959015 0 11 C-0.66 11 -1.32 11 -2 11 C-1.938125 11.70125 -1.87625 12.4025 -1.8125 13.125 C-2.04256101 16.65260212 -3.29200568 18.93984351 -5 22 C-6.33332095 19.3333581 -5.67102033 17.83319697 -5 15 C-4.34 15 -3.68 15 -3 15 C-3.061875 14.01 -3.12375 13.02 -3.1875 12 C-3.21491645 7.53111789 -1.7208227 4.08695392 0 0 Z " fill="#EB3100" transform="translate(441,225)"/>
<path d="M0 0 C4.46839215 -0.21278058 7.82262526 0.40861915 12 2 C12 2.66 12 3.32 12 4 C14.31 4 16.62 4 19 4 C19 4.66 19 5.32 19 6 C13.76119922 5.44854729 9.02649303 4.57077907 4 3 C4 2.34 4 1.68 4 1 C2.68 0.67 1.36 0.34 0 0 Z " fill="#E49F79" transform="translate(228,375)"/>
<path d="M0 0 C0.66 0.33 1.32 0.66 2 1 C-0.97 4.3 -3.94 7.6 -7 11 C-7.66 10.67 -8.32 10.34 -9 10 C-6.03 6.7 -3.06 3.4 0 0 Z " fill="#D55214" transform="translate(160,50)"/>
<path d="M0 0 C0 0.33 0 0.66 0 1 C-0.886875 1.226875 -1.77375 1.45375 -2.6875 1.6875 C-6.43380532 3.17188513 -8.33729434 5.02403485 -11 8 C-10.64987213 5.40905378 -10.26229035 3.4225789 -8.875 1.1875 C-5.99131838 -0.63883169 -3.32254207 -0.18806842 0 0 Z " fill="#D43E3E" transform="translate(335,147)"/>
<path d="M0 0 C0 3.58912412 -0.66436554 4.10857029 -3 6.6875 C-3.556875 7.31011719 -4.11375 7.93273437 -4.6875 8.57421875 C-5.120625 9.04472656 -5.55375 9.51523438 -6 10 C-6.99 9.67 -7.98 9.34 -9 9 C-6.03 6.03 -3.06 3.06 0 0 Z " fill="#8A6F60" transform="translate(152,57)"/>
<path d="M0 0 C0 0.33 0 0.66 0 1 C-5.27913453 3.08386889 -10.39538469 3.57910004 -16 4 C-15 2 -15 2 -11.9375 0.875 C-7.90141709 -0.19682285 -4.15815272 -0.1459001 0 0 Z " fill="#E42700" transform="translate(264,41)"/>
<path d="M0 0 C0.66 0 1.32 0 2 0 C1.43628586 3.26954202 0.50037734 4.82575883 -2 7 C-2.99 6.67 -3.98 6.34 -5 6 C-4.360625 5.7525 -3.72125 5.505 -3.0625 5.25 C-0.81258459 4.18437567 -0.81258459 4.18437567 -0.25 1.875 C-0.1675 1.25625 -0.085 0.6375 0 0 Z " fill="#ACA69A" transform="translate(390,357)"/>
<path d="M0 0 C0.99 0.495 0.99 0.495 2 1 C2 1.99 2 2.98 2 4 C2.66 4 3.32 4 4 4 C4.33 6.31 4.66 8.62 5 11 C2.41952564 9.70976282 2.32977036 8.72910609 1.375 6.0625 C1.11460937 5.35222656 0.85421875 4.64195312 0.5859375 3.91015625 C0 2 0 2 0 0 Z " fill="#E5A1A0" transform="translate(281,228)"/>
<path d="M0 0 C1.48199902 0.44909061 2.96055236 0.90956564 4.4375 1.375 C5.26121094 1.63023437 6.08492188 1.88546875 6.93359375 2.1484375 C9 3 9 3 10 5 C7.69 4.67 5.38 4.34 3 4 C3 3.34 3 2.68 3 2 C2.01 1.67 1.02 1.34 0 1 C0 0.67 0 0.34 0 0 Z " fill="#D77170" transform="translate(304,260)"/>
</svg>
