<?xml version="1.0" encoding="UTF-8"?>
<svg version="1.1" xmlns="http://www.w3.org/2000/svg" width="512" height="512">
<path d="M0 0 C0.83245176 -0.00282738 1.66490353 -0.00565475 2.5225811 -0.00856781 C6.94954603 -0.02345789 11.37647938 -0.03274504 15.8034668 -0.03710938 C19.36998003 -0.04144312 22.93624438 -0.05514876 26.50268555 -0.078125 C80.91735485 -0.42146195 141.49994515 1.02842461 190.15234375 28.203125 C191.06757813 28.70457031 191.9828125 29.20601562 192.92578125 29.72265625 C208.92975274 38.88581343 224.07502717 51.46820389 235.15234375 66.203125 C235.87679688 67.10160156 236.60125 68.00007813 237.34765625 68.92578125 C272.72794029 113.73669849 278.30068378 175.03210252 278.3203125 229.96484375 C278.32353996 232.1292981 278.32690504 234.29375224 278.33039856 236.45820618 C278.33634463 240.97547916 278.33824335 245.49273315 278.33764648 250.01000977 C278.33756555 254.57385245 278.34446218 259.13759406 278.3581543 263.70141602 C278.43265636 288.93332708 278.48993534 314.05767 276.15234375 339.203125 C276.03525558 340.46979507 276.03525558 340.46979507 275.915802 341.76205444 C275.49041781 346.17498459 274.96019082 350.56265409 274.33984375 354.953125 C274.08219238 356.80852905 274.08219238 356.80852905 273.81933594 358.70141602 C272.34549697 368.79879491 270.26808546 378.49038801 267.15234375 388.203125 C266.86343262 389.11642578 266.57452148 390.02972656 266.27685547 390.97070312 C252.80664373 432.99608609 227.45529251 465.98835589 187.72436523 486.58691406 C138.72976407 511.00952041 81.89932731 512.77162957 28.28857422 512.59423828 C23.06772427 512.57712542 17.84733267 512.58733216 12.62649822 512.60456753 C-52.45973235 512.78642084 -123.92610922 508.43471133 -174.84765625 463.203125 C-176.09579145 462.20079845 -177.34542287 461.20032687 -178.59765625 460.203125 C-183.32290179 456.12963747 -187.02235159 451.09925694 -190.84765625 446.203125 C-191.58113281 445.29691406 -192.31460938 444.39070313 -193.0703125 443.45703125 C-228.05695568 398.96784301 -233.99606292 338.19193598 -234.015625 283.65234375 C-234.01885128 281.50169352 -234.02221629 279.35104349 -234.02571106 277.20039368 C-234.03165933 272.71163425 -234.03355557 268.22289394 -234.03295898 263.73413086 C-234.03287797 259.19144691 -234.03978728 254.64886434 -234.0534668 250.10620117 C-234.28622387 171.6473415 -234.28622387 171.6473415 -223.84765625 135.203125 C-223.55729492 134.17751465 -223.26693359 133.1519043 -222.96777344 132.09521484 C-215.94432805 107.54962247 -207.08302604 83.50673916 -189.84765625 64.203125 C-189.11675781 63.35234375 -188.38585937 62.5015625 -187.6328125 61.625 C-162.59425259 32.93406667 -129.0509941 18.30724444 -92.84765625 9.203125 C-92.05085449 8.99703613 -91.25405273 8.79094727 -90.43310547 8.57861328 C-74.73256294 4.61452923 -58.43818888 3.54479925 -42.359375 2.03515625 C-41.258284 1.93074219 -41.258284 1.93074219 -40.13494873 1.82421875 C-37.70686231 1.60224506 -35.27800292 1.39889338 -32.84765625 1.203125 C-31.75724533 1.11503571 -30.66683441 1.02694641 -29.54338074 0.93618774 C-19.68561416 0.20553407 -9.88066832 0.02324697 0 0 Z " fill="#379DF1" transform="translate(233.84765625,-0.203125)"/>
<path d="M0 0 C6.90776103 4.12609496 12.4965053 10.20652059 18.13208008 15.85742188 C19.12305149 16.84403725 20.11443708 17.83023675 21.10620117 18.8160553 C23.77795201 21.47450752 26.4433583 24.139233 29.10719514 26.80561256 C31.33716972 29.03666209 33.57012543 31.26471637 35.80302542 33.49283743 C41.07016419 38.7489148 46.3319988 44.0102606 51.59057617 49.27490234 C57.00784363 54.69822096 62.43425149 60.11226976 67.86516458 65.52192068 C72.53912182 70.17825384 77.20724262 74.84038225 81.87076873 79.50716257 C84.65135419 82.28955815 87.43410212 85.06969872 90.22254372 87.84422302 C92.84191882 90.45100963 95.45391658 93.06497137 98.06047821 95.68456841 C99.47065559 97.09823178 100.88822286 98.50451148 102.30601501 99.91053772 C103.56960342 101.1846476 103.56960342 101.1846476 104.85871887 102.48449707 C105.59037168 103.21598213 106.32202448 103.94746719 107.07584858 104.70111847 C110.58648568 108.89545511 112.4294735 112.90092724 112.4375 118.375 C112.45683594 119.24898438 112.47617187 120.12296875 112.49609375 121.0234375 C110.9567084 130.25974962 104.57254794 136.00264999 98.2019043 142.31567383 C97.19707818 143.32592852 96.19310315 144.33703032 95.18991089 145.34890747 C92.477966 148.0789987 89.75362861 150.79639217 87.02624869 153.51105332 C84.16609314 156.36103884 81.31575841 159.22082011 78.46382141 162.07902527 C73.67518806 166.8749222 68.87821357 171.66235442 64.07641602 176.44506836 C58.53276806 181.96693771 53.00369364 187.50308586 47.48194379 193.04684621 C42.73077429 197.81619159 37.97182414 202.57766783 33.2063325 207.33270282 C30.36440528 210.16840877 27.52521456 213.00671285 24.6930294 215.85215187 C22.03031726 218.52645417 19.35794172 221.1907144 16.67792892 223.84767532 C15.69857013 224.82176448 14.72256324 225.79923765 13.75027275 226.78038216 C7.13484622 233.45045525 1.93920958 238.3630242 -7.875 238.5625 C-15.28049042 238.34932568 -19.62372785 235.49515497 -24.6640625 230.27734375 C-28.44622206 225.30137405 -28.55894555 220.34148278 -28.56640625 214.24609375 C-27.1564701 206.16570107 -21.44710113 201.02802272 -15.83496094 195.49438477 C-15.0150769 194.67406265 -14.19519287 193.85374054 -13.35046387 193.00856018 C-10.6521543 190.3123323 -7.94339143 187.62687265 -5.234375 184.94140625 C-3.3561333 183.06876268 -1.47849089 181.19553701 0.39837646 179.32151794 C4.82632393 174.90286933 9.26185809 170.49191954 13.70021415 166.08372873 C18.75573772 161.06181663 23.80267606 156.03131376 28.84893465 151.00009453 C39.22314015 140.65718908 49.60801072 130.32503675 60 120 C58.6205423 116.89615893 57.03888587 114.79731335 54.62867737 112.41508484 C53.93188873 111.72132751 53.2351001 111.02757019 52.51719666 110.31278992 C51.75298904 109.56205704 50.98878143 108.81132416 50.20141602 108.0378418 C49.39639648 107.23895538 48.59137695 106.44006897 47.76196289 105.61697388 C46.0131006 103.88242002 44.26201104 102.1501096 42.50897408 100.41977501 C39.73437183 97.67992903 36.96689789 94.93307047 34.20140076 92.18403625 C26.33759397 84.3684713 18.46213856 76.56470735 10.57788086 68.76977539 C5.75560556 64.00196427 0.94400548 59.2235628 -3.86213875 54.43949318 C-5.69518176 52.6188615 -7.53201049 50.8020331 -9.37267876 48.98911095 C-11.94832717 46.45193916 -14.51137737 43.90264328 -17.07202148 41.3503418 C-17.83420486 40.60568161 -18.59638824 39.86102142 -19.38166809 39.09379578 C-25.04659171 33.40775173 -28.39363799 28.43301076 -28.5625 20.125 C-28.34895304 12.70656414 -25.47655702 8.42827151 -20.3125 3.3359375 C-14.51841103 -1.13450183 -6.97233833 -1.49079603 0 0 Z " fill="#FEFEFE" transform="translate(214,137)"/>
</svg>
