<?xml version="1.0" encoding="UTF-8"?>
<svg version="1.1" xmlns="http://www.w3.org/2000/svg" width="512" height="512">
<path d="M0 0 C0.83740723 0.19867676 1.67481445 0.39735352 2.53759766 0.60205078 C40.37897981 9.84262974 40.37897981 9.84262974 49.05467224 22.54406738 C52.40274329 28.51831911 52.5257155 33.75680928 52.390625 40.5 C52.38496521 41.57628662 52.37930542 42.65257324 52.37347412 43.76147461 C52.35121234 47.17478265 52.30103352 50.58701309 52.25 54 C52.22992189 56.32420351 52.21167342 58.6484236 52.1953125 60.97265625 C52.15138109 66.64880069 52.08457134 72.32432333 52 78 C52.72776579 77.99631283 53.45553158 77.99262566 54.20535088 77.98882675 C71.94236822 77.90035352 89.67934132 77.83423106 107.41653252 77.79275131 C115.99424049 77.77215701 124.57180085 77.7440966 133.14941406 77.69824219 C140.62874458 77.65827818 148.10796814 77.63254443 155.58740246 77.62364602 C159.54496388 77.61844738 163.50221942 77.60629477 167.45968246 77.57707977 C171.19107353 77.54975907 174.92203518 77.54158823 178.65351677 77.54756927 C180.66267779 77.54595865 182.67179294 77.52452356 184.68083191 77.50231934 C195.35074812 77.55052938 203.41272281 79.73452884 211.24609375 87.140625 C219.05596289 95.42012992 220.29948094 102.81929806 220.29052734 114.01293945 C220.30060318 115.82136322 220.30060318 115.82136322 220.31088257 117.6663208 C220.32659416 120.96199659 220.33323577 124.25742031 220.33451414 127.55311608 C220.33593934 129.61594414 220.34021592 131.67874607 220.34550858 133.74156761 C220.36399249 140.94906659 220.37218133 148.15649178 220.37060547 155.36401367 C220.36940482 162.06466166 220.39049603 168.76498716 220.4220928 175.46555358 C220.44831302 181.2330864 220.45897035 187.00051426 220.45769465 192.76810616 C220.45718666 196.20629653 220.4627788 199.64420013 220.48405075 203.0823307 C220.50369524 206.92144989 220.49787745 210.75974383 220.48583984 214.59887695 C220.49707886 215.72593552 220.50831787 216.85299408 220.51989746 218.01420593 C220.44954459 226.86574573 218.50679287 233.94291774 212.3125 240.5 C211.40951172 241.47453125 211.40951172 241.47453125 210.48828125 242.46875 C209.66365087 243.31718861 208.83661919 244.16338081 208 245 C207.89945558 247.23037727 207.87089697 249.46399872 207.86869812 251.69664001 C207.86658241 252.40506044 207.86446669 253.11348087 207.86228687 253.84336859 C207.85625907 256.23535664 207.85728901 258.62729235 207.8581543 261.01928711 C207.85512447 262.72732636 207.8516035 264.4353648 207.84762573 266.1434021 C207.83971997 269.83205697 207.8345854 273.52070209 207.83133507 277.20936394 C207.8254341 283.04687852 207.80890028 288.88433181 207.78999329 294.72181702 C207.78365519 296.71943184 207.77732958 298.7170467 207.77101612 300.7146616 C207.76785031 301.71538263 207.7646845 302.71610367 207.76142275 303.74714959 C207.71934369 317.34224553 207.68639614 330.93731403 207.67407227 344.5324707 C207.66568128 353.69472852 207.6431474 362.85683575 207.6047166 372.01901823 C207.5849817 376.86739898 207.57254262 381.71555473 207.57755089 386.5639782 C207.58221126 391.13181044 207.56831624 395.69921739 207.54053879 400.26696396 C207.53364885 401.93819724 207.53347666 403.6094747 207.54073906 405.28070641 C207.58777514 417.3273975 206.52407453 427.13227111 197.92578125 436.24609375 C191.00289098 442.55111957 183.86110767 445.24723226 174.48047256 445.25726891 C173.74041454 445.26077498 173.00035651 445.26428105 172.23787248 445.26789337 C169.75634594 445.2772023 167.27505434 445.27228539 164.79351807 445.26742554 C162.99705176 445.27116206 161.20058708 445.27576358 159.40412498 445.28115618 C154.46588241 445.29340145 149.52770751 445.29312391 144.58945322 445.29076743 C139.26415364 445.29035965 133.93887587 445.30139473 128.61358643 445.31088257 C118.17953628 445.32750203 107.74550873 445.33299255 97.31144646 445.33410732 C88.83054996 445.33505737 80.34966092 445.3391655 71.86876678 445.34550858 C47.82770614 445.36312374 23.78666335 445.37234704 -0.2544038 445.37084763 C-1.55071422 445.37076772 -2.84702464 445.3706878 -4.18261719 445.37060547 C-6.12945508 445.37048283 -6.12945508 445.37048283 -8.11562303 445.37035771 C-29.15059378 445.36954478 -50.18549294 445.38868348 -71.22044298 445.4168822 C-92.8152233 445.44560314 -114.4099687 445.45942292 -136.00476861 445.45769465 C-148.13009937 445.45703047 -160.25535507 445.46253524 -172.38066864 445.48405075 C-182.70451055 445.50225214 -193.02824338 445.50661842 -203.35209438 445.4930319 C-208.61914436 445.48649698 -213.88598501 445.48640413 -219.15301514 445.5037384 C-223.97686302 445.51945079 -228.80033529 445.51662409 -233.62417391 445.49917014 C-235.36709667 445.49609622 -237.11004734 445.4997474 -238.85293719 445.51089029 C-251.06302328 445.58376897 -260.99690907 444.65177972 -270.24609375 435.92578125 C-276.4820383 429.07874191 -279.25729453 421.97094905 -279.23136902 412.68190002 C-279.23222246 411.96709077 -279.2330759 411.25228152 -279.2339552 410.51581138 C-279.23456677 408.13225708 -279.22107978 405.7489925 -279.20776367 403.36547852 C-279.20560126 401.65183606 -279.20441569 399.93819214 -279.20413208 398.22454834 C-279.20207954 394.53976629 -279.19439039 390.85505382 -279.1826992 387.17028999 C-279.16552411 381.34159369 -279.16879489 375.51302123 -279.17634583 369.68431091 C-279.19552133 353.11165673 -279.20217941 336.53916383 -279.15454102 319.96655273 C-279.12838596 310.80937349 -279.12707071 301.65254684 -279.15368825 292.49536461 C-279.16667786 287.65196841 -279.16664727 282.80933698 -279.1358242 277.96600533 C-279.10689238 273.4110262 -279.11033475 268.85721948 -279.13843155 264.30224609 C-279.1429246 262.6329473 -279.13548883 260.96356627 -279.11510277 259.29438591 C-278.73862366 250.56618098 -278.73862366 250.56618098 -281.53194618 242.56348991 C-283.32495953 240.7067204 -283.32495953 240.7067204 -285.26686573 239.35693264 C-289.02090252 236.41776333 -290.53279214 231.40162358 -292 227 C-292.09818803 225.32025708 -292.13924617 223.63690675 -292.14717102 221.95431519 C-292.15790398 220.38998497 -292.15790398 220.38998497 -292.16885376 218.79405212 C-292.17154266 217.65013504 -292.17423157 216.50621796 -292.17700195 215.32763672 C-292.18357315 214.12245895 -292.19014435 212.91728119 -292.19691467 211.67558289 C-292.21666611 207.67694857 -292.22831817 203.67835441 -292.23828125 199.6796875 C-292.24233004 198.30081284 -292.246447 196.92193837 -292.25063133 195.54306412 C-292.26968234 189.06161076 -292.28391124 182.58016875 -292.2922433 176.09869277 C-292.30200342 168.6304919 -292.3282909 161.16258839 -292.36874419 153.69449222 C-292.39897349 147.91429396 -292.41371877 142.13418058 -292.41702431 136.35390484 C-292.41936787 132.90559063 -292.42823611 129.4575941 -292.45348549 126.00936508 C-292.48124686 122.15572517 -292.47691427 118.30247135 -292.4699707 114.44873047 C-292.48278076 113.31695877 -292.49559082 112.18518707 -292.50878906 111.01911926 C-292.4437804 101.09711916 -289.68350392 94.05325261 -282.92578125 86.7890625 C-276.59866566 80.91113361 -269.5469936 77.74420564 -260.84963989 77.75949097 C-259.63816788 77.75674164 -258.42669586 77.75399231 -257.17851257 77.75115967 C-255.86292862 77.75835022 -254.54734467 77.76554077 -253.19189453 77.77294922 C-251.78216052 77.77351382 -250.37242593 77.77319583 -248.96269226 77.77206421 C-245.14700168 77.77149158 -241.33143744 77.78323124 -237.51577616 77.79721212 C-233.52394156 77.80973454 -229.5321039 77.81089117 -225.54025269 77.81326294 C-217.98619882 77.81947327 -210.432203 77.83587803 -202.87817466 77.85596192 C-194.27603082 77.87833484 -185.67388416 77.88931785 -177.07171845 77.89935279 C-159.38111275 77.92024466 -141.69056105 77.95541194 -124 78 C-124.00888245 77.40388916 -124.01776489 76.80777832 -124.0269165 76.19360352 C-124.11572072 69.96396517 -124.17587105 63.73450798 -124.21972656 57.50439453 C-124.23978577 55.18238007 -124.26703991 52.86041577 -124.30175781 50.53857422 C-124.35052541 47.19225655 -124.37302643 43.84660941 -124.390625 40.5 C-124.41127014 39.4694751 -124.43191528 38.4389502 -124.45318604 37.37719727 C-124.45545385 30.01798128 -123.25561287 24.28041754 -117.94921875 18.93359375 C-84.85678935 -2.95656249 -38.42621212 -9.33603451 0 0 Z M-89 43 C-89 54.55 -89 66.1 -89 78 C-54.02 78 -19.04 78 17 78 C17 66.45 17 54.9 17 43 C-15.80788905 26.59605547 -56.19211095 26.59605547 -89 43 Z " fill="#406F92" transform="translate(292,35)"/>
<path d="M0 0 C0.33 0 0.66 0 1 0 C1.226875 1.134375 1.45375 2.26875 1.6875 3.4375 C5.80074001 19.49331964 19.76309521 27.20002978 33.08740234 35.26318359 C61.79907002 52.23791983 92.83711455 63.05388466 125.23876953 70.375 C127.05358829 70.78578126 128.86712378 71.20228147 130.67919922 71.625 C161.98648134 78.8938774 194.00178726 81.7670492 226 84 C226.0093457 85.04341553 226.01869141 86.08683105 226.02832031 87.16186523 C226.06849716 91.07048664 226.13432932 94.97834362 226.20751953 98.88647461 C226.23556984 100.57094426 226.2568629 102.25554164 226.27099609 103.94018555 C226.38325642 116.56947215 227.20087749 125.65148176 236.1328125 135.2734375 C243.09215473 141.70864517 250.23714095 142.36844869 259.38671875 142.2734375 C267.28375386 141.67582403 273.19749941 138.77443461 278.53125 132.9375 C283.51079906 126.36873316 285.14016719 119.97274645 285.31640625 111.83203125 C285.3475779 110.63981209 285.3475779 110.63981209 285.37937927 109.42350769 C285.44472087 106.88659237 285.50368808 104.34957427 285.5625 101.8125 C285.60569986 100.09178628 285.64931463 98.37108292 285.69335938 96.65039062 C285.80038648 92.43369887 285.90169724 88.2169038 286 84 C287.2468457 83.89977539 288.49369141 83.79955078 289.77832031 83.69628906 C330.82562354 80.37219315 372.56965779 76.71094382 412 64 C413.03302246 63.67193359 414.06604492 63.34386719 415.13037109 63.00585938 C443.3530609 53.94858475 470.77160641 42.39822676 494.8125 24.8125 C495.45268066 24.34972656 496.09286133 23.88695312 496.75244141 23.41015625 C504.81480754 17.28215552 509.59588451 10.06282769 511 0 C511.33 0 511.66 0 512 0 C512.11755481 3.64555558 512.18769812 7.29061474 512.25 10.9375 C512.28351562 11.95908203 512.31703125 12.98066406 512.3515625 14.03320312 C512.46581422 22.97340015 510.56290243 29.88352194 504.3125 36.5 C503.40951172 37.47453125 503.40951172 37.47453125 502.48828125 38.46875 C501.66365087 39.31718861 500.83661919 40.16338081 500 41 C499.89945558 43.23037727 499.87089697 45.46399872 499.86869812 47.69664001 C499.86658241 48.40506044 499.86446669 49.11348087 499.86228687 49.84336859 C499.85625907 52.23535664 499.85728901 54.62729235 499.8581543 57.01928711 C499.85512447 58.72732636 499.8516035 60.4353648 499.84762573 62.1434021 C499.83971997 65.83205697 499.8345854 69.52070209 499.83133507 73.20936394 C499.8254341 79.04687852 499.80890028 84.88433181 499.78999329 90.72181702 C499.78365519 92.71943184 499.77732958 94.7170467 499.77101612 96.7146616 C499.76785031 97.71538263 499.7646845 98.71610367 499.76142275 99.74714959 C499.71934369 113.34224553 499.68639614 126.93731403 499.67407227 140.5324707 C499.66568128 149.69472852 499.6431474 158.85683575 499.6047166 168.01901823 C499.5849817 172.86739898 499.57254262 177.71555473 499.57755089 182.5639782 C499.58221126 187.13181044 499.56831624 191.69921739 499.54053879 196.26696396 C499.53364885 197.93819724 499.53347666 199.6094747 499.54073906 201.28070641 C499.58777514 213.3273975 498.52407453 223.13227111 489.92578125 232.24609375 C483.00289098 238.55111957 475.86110767 241.24723226 466.48047256 241.25726891 C465.74041454 241.26077498 465.00035651 241.26428105 464.23787248 241.26789337 C461.75634594 241.2772023 459.27505434 241.27228539 456.79351807 241.26742554 C454.99705176 241.27116206 453.20058708 241.27576358 451.40412498 241.28115618 C446.46588241 241.29340145 441.52770751 241.29312391 436.58945322 241.29076743 C431.26415364 241.29035965 425.93887587 241.30139473 420.61358643 241.31088257 C410.17953628 241.32750203 399.74550873 241.33299255 389.31144646 241.33410732 C380.83054996 241.33505737 372.34966092 241.3391655 363.86876678 241.34550858 C339.82770614 241.36312374 315.78666335 241.37234704 291.7455962 241.37084763 C290.44928578 241.37076772 289.15297536 241.3706878 287.81738281 241.37060547 C285.87054492 241.37048283 285.87054492 241.37048283 283.88437697 241.37035771 C262.84940622 241.36954478 241.81450706 241.38868348 220.77955702 241.4168822 C199.1847767 241.44560314 177.5900313 241.45942292 155.99523139 241.45769465 C143.86990063 241.45703047 131.74464493 241.46253524 119.61933136 241.48405075 C109.29548945 241.50225214 98.97175662 241.50661842 88.64790562 241.4930319 C83.38085564 241.48649698 78.11401499 241.48640413 72.84698486 241.5037384 C68.02313698 241.51945079 63.19966471 241.51662409 58.37582609 241.49917014 C56.63290333 241.49609622 54.88995266 241.4997474 53.14706281 241.51089029 C40.93697672 241.58376897 31.00309093 240.65177972 21.75390625 231.92578125 C15.5179617 225.07874191 12.74270547 217.97094905 12.76863098 208.68190002 C12.76777754 207.96709077 12.7669241 207.25228152 12.7660448 206.51581138 C12.76543323 204.13225708 12.77892022 201.7489925 12.79223633 199.36547852 C12.79439874 197.65183606 12.79558431 195.93819214 12.79586792 194.22454834 C12.79792046 190.53976629 12.80560961 186.85505382 12.8173008 183.17028999 C12.83447589 177.34159369 12.83120511 171.51302123 12.82365417 165.68431091 C12.80447867 149.11165673 12.79782059 132.53916383 12.84545898 115.96655273 C12.87161404 106.80937349 12.87292929 97.65254684 12.84631175 88.49536461 C12.83332214 83.65196841 12.83335273 78.80933698 12.8641758 73.96600533 C12.89310762 69.4110262 12.88966525 64.85721948 12.86156845 60.30224609 C12.8570754 58.6329473 12.86451117 56.96356627 12.88489723 55.29438591 C13.26137634 46.56618098 13.26137634 46.56618098 10.46805382 38.56348991 C8.67504047 36.7067204 8.67504047 36.7067204 6.73313427 35.35693264 C2.97909748 32.41776333 1.46720786 27.40162358 0 23 C-0.08209792 21.22686149 -0.10746294 19.45079225 -0.09765625 17.67578125 C-0.09443359 16.64775391 -0.09121094 15.61972656 -0.08789062 14.56054688 C-0.07951172 13.48869141 -0.07113281 12.41683594 -0.0625 11.3125 C-0.05798828 10.22904297 -0.05347656 9.14558594 -0.04882812 8.02929688 C-0.03703743 5.35280915 -0.02058063 2.67643223 0 0 Z " fill="#365E7C" transform="translate(0,239)"/>
<path d="M0 0 C0.83740723 0.19867676 1.67481445 0.39735352 2.53759766 0.60205078 C40.37897981 9.84262974 40.37897981 9.84262974 49.05467224 22.54406738 C52.40274329 28.51831911 52.5257155 33.75680928 52.390625 40.5 C52.38496521 41.57628662 52.37930542 42.65257324 52.37347412 43.76147461 C52.35121234 47.17478265 52.30103352 50.58701309 52.25 54 C52.22992189 56.32420351 52.21167342 58.6484236 52.1953125 60.97265625 C52.15479485 66.64917938 52.07648122 72.32339382 52 78 C40.45 78 28.9 78 17 78 C16.67 66.45 16.34 54.9 16 43 C3.4297347 38.10158497 3.4297347 38.10158497 -9.375 34.6875 C-10.13409668 34.52926758 -10.89319336 34.37103516 -11.67529297 34.20800781 C-17.10701065 33.10652766 -22.45252337 32.20203253 -28 32 C-29.12792969 31.9484375 -30.25585938 31.896875 -31.41796875 31.84375 C-51.24389005 31.36649613 -69.80218304 35.20093559 -88 43 C-88.33 54.55 -88.66 66.1 -89 78 C-100.55 78 -112.1 78 -124 78 C-124.09205531 71.16745063 -124.17162945 64.33707097 -124.21972656 57.50439453 C-124.23978577 55.18238007 -124.26703991 52.86041577 -124.30175781 50.53857422 C-124.35052541 47.19225655 -124.37302643 43.84660941 -124.390625 40.5 C-124.41127014 39.4694751 -124.43191528 38.4389502 -124.45318604 37.37719727 C-124.45545385 30.01798128 -123.25561287 24.28041754 -117.94921875 18.93359375 C-84.85678935 -2.95656249 -38.42621212 -9.33603451 0 0 Z " fill="#E7824C" transform="translate(292,35)"/>
<path d="M0 0 C0.33 0 0.66 0 1 0 C1.11755481 3.64555558 1.18769812 7.29061474 1.25 10.9375 C1.28351563 11.95908203 1.31703125 12.98066406 1.3515625 14.03320312 C1.46581422 22.97340015 -0.43709757 29.88352194 -6.6875 36.5 C-7.59048828 37.47453125 -7.59048828 37.47453125 -8.51171875 38.46875 C-9.33634913 39.31718861 -10.16338081 40.16338081 -11 41 C-10.86078125 42.24136719 -10.7215625 43.48273438 -10.578125 44.76171875 C-10.04553376 50.86013962 -9.60668729 57.10178349 -13.70117188 62.06005859 C-19.48355275 67.03787742 -26.28087986 70.46842374 -33 74 C-35.05112554 75.14157814 -37.10060526 76.28611837 -39.1484375 77.43359375 C-51.83815052 84.40274738 -64.86158463 90.12846644 -78.45898438 95.07275391 C-80.73763912 95.90426147 -83.0024921 96.76408829 -85.265625 97.63671875 C-119.81969243 110.71772087 -157.80991447 116.34172757 -194.4375 119.6875 C-195.15652496 119.7544809 -195.87554993 119.82146179 -196.61636353 119.89047241 C-198.72152476 120.08411797 -200.82731716 120.26814677 -202.93359375 120.44921875 C-204.15103271 120.55580811 -205.36847168 120.66239746 -206.62280273 120.7722168 C-212.74072758 121.09058502 -218.87379704 121 -225 121 C-225 108.79 -225 96.58 -225 84 C-222.00421875 83.75765625 -219.0084375 83.5153125 -215.921875 83.265625 C-176.64381105 80.04117646 -136.71817891 76.15900309 -99 64 C-97.96697754 63.67193359 -96.93395508 63.34386719 -95.86962891 63.00585938 C-67.6469391 53.94858475 -40.22839359 42.39822676 -16.1875 24.8125 C-15.54731934 24.34972656 -14.90713867 23.88695312 -14.24755859 23.41015625 C-6.18519246 17.28215552 -1.40411549 10.06282769 0 0 Z " fill="#365D7C" transform="translate(511,239)"/>
<path d="M0 0 C0.33 0 0.66 0 1 0 C1.226875 1.134375 1.45375 2.26875 1.6875 3.4375 C5.80074001 19.49331964 19.76309521 27.20002978 33.08740234 35.26318359 C61.79907002 52.23791983 92.83711455 63.05388466 125.23876953 70.375 C127.05358829 70.78578126 128.86712378 71.20228147 130.67919922 71.625 C162.0194733 78.90153743 193.98131444 81.6511389 226 84 C226 96.21 226 108.42 226 121 C209.99620864 121 209.99620864 121 202.5 120.125 C200.7904938 119.93891321 199.08085244 119.7540649 197.37109375 119.5703125 C196.49694824 119.47524414 195.62280273 119.38017578 194.72216797 119.28222656 C191.91172607 118.99084801 189.10013899 118.73564031 186.28515625 118.4921875 C185.32996094 118.40952637 184.37476563 118.32686523 183.390625 118.24169922 C181.57707452 118.08670828 179.7632877 117.93444428 177.94921875 117.78564453 C134.35184132 114.00068984 90.41221583 101.88084774 51 83 C50.13842285 82.58782227 49.2768457 82.17564453 48.38916016 81.75097656 C43.61832328 79.43325937 38.9576059 76.97664415 34.35742188 74.33642578 C32.70628323 73.40039296 31.0392662 72.49207689 29.36132812 71.60498047 C14.21357506 63.51729824 14.21357506 63.51729824 12.19824219 57.67626953 C11.58654928 53.48097947 11.77223332 49.42596228 12.00390625 45.20703125 C12.14137832 42.16883266 12.13366083 41.23585027 10.58984375 38.51171875 C8.73592795 36.80235498 8.73592795 36.80235498 6.78515625 35.41015625 C2.99553348 32.41660303 1.48735214 27.46205641 0 23 C-0.08209792 21.22686149 -0.10746294 19.45079225 -0.09765625 17.67578125 C-0.09443359 16.64775391 -0.09121094 15.61972656 -0.08789062 14.56054688 C-0.07951172 13.48869141 -0.07113281 12.41683594 -0.0625 11.3125 C-0.05798828 10.22904297 -0.05347656 9.14558594 -0.04882812 8.02929688 C-0.03703743 5.35280915 -0.02058063 2.67643223 0 0 Z " fill="#365E7C" transform="translate(0,239)"/>
<path d="M0 0 C0.88464432 -0.00960754 1.76928864 -0.01921509 2.68074036 -0.02911377 C3.63905258 -0.03336365 4.59736481 -0.03761353 5.5847168 -0.04199219 C7.06091743 -0.0505423 7.06091743 -0.0505423 8.56694031 -0.05926514 C10.65252607 -0.06872269 12.73812682 -0.07525211 14.82373047 -0.07910156 C18.01060181 -0.0887962 21.19682534 -0.11980819 24.38354492 -0.15136719 C26.40893171 -0.15789827 28.43432312 -0.16314833 30.4597168 -0.16699219 C31.41195633 -0.17933899 32.36419586 -0.19168579 33.34529114 -0.20440674 C38.26685622 -0.18788723 41.79810211 -0.15504593 45.72143555 3.16113281 C48.29839498 6.08598055 49.09918642 7.89769522 49.12548828 11.78686523 C49.13817245 12.69848923 49.15085663 13.61011322 49.16392517 14.54936218 C49.16098953 15.52855118 49.15805389 16.50774017 49.1550293 17.51660156 C49.16027115 18.53281082 49.165513 19.54902008 49.1709137 20.59602356 C49.17733529 22.74703051 49.17599514 24.89807258 49.16748047 27.04907227 C49.159011 30.31949601 49.18766538 33.58814903 49.21948242 36.85839844 C49.22109571 38.95279896 49.22051446 41.04720255 49.2175293 43.14160156 C49.23438026 44.59520332 49.23438026 44.59520332 49.25157166 46.07817078 C49.15608937 55.51738672 46.04976716 62.47834972 39.6550293 69.36816406 C32.11041282 76.36408116 25.42370966 77.545832 15.33081055 77.43066406 C6.87151157 76.79896316 1.1261708 73.49630122 -4.5871582 67.32128906 C-8.69217754 62.07862003 -11.36509714 56.30051298 -11.47143555 49.60131836 C-11.48749847 48.67993576 -11.5035614 47.75855316 -11.52011108 46.80924988 C-11.56467892 42.60078773 -11.60561812 38.3924809 -11.62866211 34.18383789 C-11.64522437 31.96563223 -11.67251773 29.74747999 -11.71069336 27.52954102 C-11.76551047 24.32703032 -11.78734315 21.12576847 -11.80200195 17.92285156 C-11.82467133 16.93516281 -11.8473407 15.94747406 -11.87069702 14.92985535 C-11.85678449 10.38593829 -11.79832083 7.17383991 -8.87084961 3.55102539 C-5.63304509 0.56601235 -4.25959561 0.03729274 0 0 Z " fill="#FEE179" transform="translate(237.278564453125,304.8388671875)"/>
<path d="M0 0 C4.07700458 2.26500255 7.95801567 4.60870628 11.77612305 7.29663086 C42.01024297 28.40185351 77.90336712 40.11559111 113.55029297 48.21411133 C116.07889018 48.79015906 118.60251158 49.37965106 121.12548828 49.97924805 C131.94242402 52.51354516 142.72341181 54.24349154 153.75 55.5625 C154.59087158 55.66605804 155.43174316 55.76961609 156.2980957 55.87631226 C175.15045027 58.19261912 194.05532564 59.68201643 213 61 C213 67.27 213 73.54 213 80 C202.40825952 80.23025523 192.23493238 79.42555025 181.72216797 78.28222656 C178.91172607 77.99084801 176.10013899 77.73564031 173.28515625 77.4921875 C172.32996094 77.40952637 171.37476563 77.32686523 170.390625 77.24169922 C168.57707452 77.08670828 166.7632877 76.93444428 164.94921875 76.78564453 C121.35184132 73.00068984 77.41221583 60.88084774 38 42 C37.13842285 41.58782227 36.2768457 41.17564453 35.38916016 40.75097656 C30.61928781 38.43372795 25.96079977 35.97652749 21.36181641 33.33642578 C19.70470802 32.39875664 18.03068744 31.49065183 16.34521484 30.60498047 C1.19735919 22.57345836 1.19735919 22.57345836 -0.81640625 16.56347656 C-1.61674824 10.91685324 -1.00787693 5.58163425 0 0 Z " fill="#2B4D66" transform="translate(13,280)"/>
<path d="M0 0 C1.28920134 6.39825848 2.24957374 12.71807775 0 19 C-5.27913135 25.57248744 -13.67855518 29.17156318 -21 33 C-23.05281181 34.14088526 -25.10359744 35.28542387 -27.15234375 36.43359375 C-39.83945636 43.40516063 -52.86274014 49.1288866 -66.45898438 54.07275391 C-68.73763912 54.90426147 -71.0024921 55.76408829 -73.265625 56.63671875 C-107.81969243 69.71772087 -145.80991447 75.34172757 -182.4375 78.6875 C-183.15652496 78.7544809 -183.87554993 78.82146179 -184.61636353 78.89047241 C-194.12336361 79.7649842 -203.44352706 80.13142497 -213 80 C-213 73.73 -213 67.46 -213 61 C-210.00099609 60.85304688 -210.00099609 60.85304688 -206.94140625 60.703125 C-177.62943167 59.191622 -148.76164938 56.01676374 -120 50 C-119.00758301 49.79713379 -118.01516602 49.59426758 -116.99267578 49.38525391 C-76.94357739 41.04747727 -37.26218471 26.07746288 -4 2 C-1 0 -1 0 0 0 Z " fill="#2B4D66" transform="translate(499,280)"/>
<path d="M0 0 C0.33 0 0.66 0 1 0 C1.20625 1.134375 1.4125 2.26875 1.625 3.4375 C3.77160653 11.80186337 8.53432813 17.2915315 15.75390625 21.80859375 C23.02651731 25.66623962 29.93517705 26.16829468 37.98046875 24.3125 C46.38434161 21.5305283 51.74575376 17.83233727 55.875 9.9375 C57.44769432 6.64109104 58.39635187 3.60262341 59 0 C59.33 0 59.66 0 60 0 C60.117791 3.31219232 60.18777155 6.62383492 60.25 9.9375 C60.30027344 11.32678711 60.30027344 11.32678711 60.3515625 12.74414062 C60.4864645 22.35590825 57.43948858 29.19745424 50.93359375 36.20703125 C43.38897727 43.20294835 36.70227412 44.38469919 26.609375 44.26953125 C18.15007602 43.63783035 12.40473526 40.33516841 6.69140625 34.16015625 C2.47964963 28.78116916 -0.1392862 22.98222332 -0.09765625 16.11328125 C-0.09443359 15.17548828 -0.09121094 14.23769531 -0.08789062 13.27148438 C-0.07532227 11.80678711 -0.07532227 11.80678711 -0.0625 10.3125 C-0.05798828 9.32443359 -0.05347656 8.33636719 -0.04882812 7.31835938 C-0.03704303 4.87884526 -0.02059011 2.43945311 0 0 Z " fill="#F7CE58" transform="translate(226,338)"/>
<path d="M0 0 C11.55 0 23.1 0 35 0 C35 5.94 35 11.88 35 18 C23.45 18 11.9 18 0 18 C0 12.06 0 6.12 0 0 Z " fill="#D66E41" transform="translate(309,95)"/>
<path d="M0 0 C11.55 0 23.1 0 35 0 C35 5.94 35 11.88 35 18 C23.45 18 11.9 18 0 18 C0 12.06 0 6.12 0 0 Z " fill="#D66E41" transform="translate(168,95)"/>
</svg>
