<?xml version="1.0" encoding="UTF-8"?>
<svg version="1.1" xmlns="http://www.w3.org/2000/svg" width="512" height="512">
<path d="M0 0 C0.83245176 -0.00282738 1.66490353 -0.00565475 2.5225811 -0.00856781 C6.94954603 -0.02345789 11.37647938 -0.03274504 15.8034668 -0.03710938 C19.36998003 -0.04144312 22.93624438 -0.05514876 26.50268555 -0.078125 C80.91735485 -0.42146195 141.49994515 1.02842461 190.15234375 28.203125 C191.06757813 28.70457031 191.9828125 29.20601562 192.92578125 29.72265625 C208.92975274 38.88581343 224.07502717 51.46820389 235.15234375 66.203125 C235.87679688 67.10160156 236.60125 68.00007813 237.34765625 68.92578125 C272.72794029 113.73669849 278.30068378 175.03210252 278.3203125 229.96484375 C278.32353996 232.1292981 278.32690504 234.29375224 278.33039856 236.45820618 C278.33634463 240.97547916 278.33824335 245.49273315 278.33764648 250.01000977 C278.33756555 254.57385245 278.34446218 259.13759406 278.3581543 263.70141602 C278.43265636 288.93332708 278.48993534 314.05767 276.15234375 339.203125 C276.03525558 340.46979507 276.03525558 340.46979507 275.915802 341.76205444 C275.49041781 346.17498459 274.96019082 350.56265409 274.33984375 354.953125 C274.08219238 356.80852905 274.08219238 356.80852905 273.81933594 358.70141602 C272.34549697 368.79879491 270.26808546 378.49038801 267.15234375 388.203125 C266.86343262 389.11642578 266.57452148 390.02972656 266.27685547 390.97070312 C252.80664373 432.99608609 227.45529251 465.98835589 187.72436523 486.58691406 C138.72976407 511.00952041 81.89932731 512.77162957 28.28857422 512.59423828 C23.06772427 512.57712542 17.84733267 512.58733216 12.62649822 512.60456753 C-52.45973235 512.78642084 -123.92610922 508.43471133 -174.84765625 463.203125 C-176.09579145 462.20079845 -177.34542287 461.20032687 -178.59765625 460.203125 C-183.32290179 456.12963747 -187.02235159 451.09925694 -190.84765625 446.203125 C-191.58113281 445.29691406 -192.31460938 444.39070313 -193.0703125 443.45703125 C-228.05695568 398.96784301 -233.99606292 338.19193598 -234.015625 283.65234375 C-234.01885128 281.50169352 -234.02221629 279.35104349 -234.02571106 277.20039368 C-234.03165933 272.71163425 -234.03355557 268.22289394 -234.03295898 263.73413086 C-234.03287797 259.19144691 -234.03978728 254.64886434 -234.0534668 250.10620117 C-234.28622387 171.6473415 -234.28622387 171.6473415 -223.84765625 135.203125 C-223.55729492 134.17751465 -223.26693359 133.1519043 -222.96777344 132.09521484 C-215.94432805 107.54962247 -207.08302604 83.50673916 -189.84765625 64.203125 C-189.11675781 63.35234375 -188.38585937 62.5015625 -187.6328125 61.625 C-162.59425259 32.93406667 -129.0509941 18.30724444 -92.84765625 9.203125 C-92.05085449 8.99703613 -91.25405273 8.79094727 -90.43310547 8.57861328 C-74.73256294 4.61452923 -58.43818888 3.54479925 -42.359375 2.03515625 C-41.258284 1.93074219 -41.258284 1.93074219 -40.13494873 1.82421875 C-37.70686231 1.60224506 -35.27800292 1.39889338 -32.84765625 1.203125 C-31.75724533 1.11503571 -30.66683441 1.02694641 -29.54338074 0.93618774 C-19.68561416 0.20553407 -9.88066832 0.02324697 0 0 Z " fill="#379DF1" transform="translate(233.84765625,-0.203125)"/>
<path d="M0 0 C6.10940467 2.07283373 10.52925176 6.62034023 14 12 C14.8966327 14.92816415 15.22002346 17.69340695 15.3125 20.75 C15.36857422 21.94882813 15.36857422 21.94882813 15.42578125 23.171875 C14.16421504 31.55145242 8.62304027 36.9390123 2.83496094 42.61914062 C2.0150769 43.43960876 1.19519287 44.2600769 0.35046387 45.10540771 C-2.34552115 47.79861954 -5.05536803 50.47740746 -7.765625 53.15625 C-9.64408763 55.02724758 -11.52174672 56.89901808 -13.39837646 58.77185059 C-17.82433372 63.18541494 -22.26038031 67.58869019 -26.70021415 71.98829031 C-31.75772632 77.00096955 -36.80377735 82.02511988 -41.84893465 87.05022907 C-52.21998572 97.37955943 -62.60523796 107.69453181 -73 118 C-71.62013085 121.1040316 -70.03657395 123.20654291 -67.62867737 125.59164429 C-66.93188873 126.28684677 -66.2351001 126.98204926 -65.51719666 127.69831848 C-64.75298904 128.45062241 -63.98878143 129.20292633 -63.20141602 129.97802734 C-62.39639648 130.77852005 -61.59137695 131.57901276 -60.76196289 132.40376282 C-59.01313871 134.14162715 -57.26204753 135.87721247 -55.50897408 137.61079025 C-52.73472119 140.3549142 -49.9671692 143.10563343 -47.20140076 145.85830688 C-40.33041953 152.69523564 -33.45019558 159.52284294 -26.56506348 166.34552002 C-20.74918873 172.10866729 -14.93917952 177.87758136 -9.13786125 183.65538406 C-7.30393623 185.47873904 -5.46710197 187.29917276 -3.62732124 189.11661911 C-1.05404775 191.65870557 1.50989568 194.20986899 4.07202148 196.76318359 C4.83420486 197.51143906 5.59638824 198.25969452 6.38166809 199.03062439 C10.77463956 203.43134232 14.47144507 207.35711649 15.3984375 213.74609375 C15.33368289 221.18208126 14.64596948 226.01480367 9.5625 231.75 C4.6362211 236.07551318 1.43059747 238.13803468 -5.25 238.25 C-6.61898437 238.28867187 -6.61898437 238.28867187 -8.015625 238.328125 C-17.10668602 237.32858426 -22.13932801 231.43364689 -28.29394531 225.22363281 C-29.31390336 224.20910091 -30.33470907 223.19542061 -31.35629272 222.18252563 C-34.11744884 219.43954709 -36.86587119 216.68413593 -39.61158848 213.92571354 C-42.49228312 211.03486239 -45.38275825 208.15381681 -48.27166748 205.2711792 C-53.12062149 200.42949387 -57.96110032 195.57945547 -62.796875 190.72460938 C-68.38064474 185.11907248 -73.97867821 179.52809092 -79.58433843 173.94445157 C-84.40461864 169.14234752 -89.21702965 164.33246181 -94.02299953 159.5160358 C-96.89001852 156.64279408 -99.75963972 153.77229144 -102.63639069 150.90879059 C-105.34104762 148.21572374 -108.03566472 145.51299148 -110.7229805 142.80262375 C-111.70835646 141.81197758 -112.69711731 140.82468456 -113.68954849 139.84110641 C-124.16965355 129.44587584 -124.16965355 129.44587584 -125.43359375 121.15625 C-125.43488281 120.2796875 -125.43617188 119.403125 -125.4375 118.5 C-125.45683594 117.6234375 -125.47617188 116.746875 -125.49609375 115.84375 C-124.00357634 107.2882171 -117.05774219 101.63583762 -111.17016602 95.79785156 C-110.16229406 94.7875484 -109.15506835 93.77660019 -108.1484375 92.76506042 C-105.42595927 90.03321641 -102.69421608 87.31081816 -99.96038556 84.59034061 C-97.09516601 81.73647747 -94.2377051 78.87486403 -91.37913513 76.01434326 C-86.58013515 71.21446184 -81.77520526 66.42058116 -76.96655273 61.63037109 C-71.4115839 56.09658563 -65.86551386 50.55400495 -60.32424599 45.00650239 C-54.98532824 39.66188601 -49.64075168 34.32296482 -44.29337883 28.98680878 C-42.02102249 26.71908995 -39.75055305 24.44950652 -37.48156929 22.17841339 C-34.80954922 19.50450675 -32.13257041 16.83566396 -29.45171356 14.17061806 C-28.47003309 13.19317171 -27.49003176 12.21403554 -26.5118618 11.2330761 C-25.17408262 9.89206194 -23.82951096 8.55783421 -22.4846344 7.22393799 C-21.73488122 6.47623768 -20.98512804 5.72853737 -20.21265507 4.95817947 C-13.81645729 -0.70239699 -8.27225956 -0.76150687 0 0 Z " fill="#FEFEFE" transform="translate(311,137)"/>
</svg>
