<?xml version="1.0" encoding="UTF-8"?>
<svg version="1.1" xmlns="http://www.w3.org/2000/svg" width="512" height="512">
<path d="M0 0 C5.52514144 1.94403125 8.51400122 4.99390317 11.09518433 10.21549988 C12.21356556 13.65723147 12.23972951 16.55722467 12.22705078 20.17700195 C12.22734283 20.87998917 12.22763489 21.58297638 12.22793579 22.30726624 C12.22654877 24.61773262 12.2110175 26.92787159 12.1953125 29.23828125 C12.19158013 30.84539107 12.18873422 32.45250317 12.18673706 34.05961609 C12.17911821 38.2797377 12.15948483 42.49972061 12.1373291 46.7197876 C12.11683293 51.02996952 12.10772729 55.34017396 12.09765625 59.65039062 C12.07623721 68.10032391 12.04212248 76.55014468 12 85 C12.72131324 84.99815641 13.44262648 84.99631283 14.18579769 84.99441338 C31.80847113 84.9500749 49.43113024 84.91706636 67.05384731 84.89637566 C75.57636466 84.88610159 84.09884458 84.87211609 92.62133789 84.84912109 C100.05715321 84.82906784 107.49294139 84.81625551 114.928783 84.81182301 C118.85908024 84.80923565 122.78929991 84.80323689 126.71957207 84.78853989 C158.24040197 84.67522839 158.24040197 84.67522839 172 87 C172.91690613 87.15435516 173.83381226 87.30871033 174.77850342 87.46774292 C176.8493877 87.83869373 178.88916435 88.27098259 180.9375 88.75 C181.67145996 88.91918945 182.40541992 89.08837891 183.16162109 89.26269531 C197.65830345 92.73499149 210.90976662 97.91143823 224 105 C224.60295898 105.31694824 225.20591797 105.63389648 225.82714844 105.96044922 C263.34008859 125.69925488 290.70675104 161.57696459 303.5402832 201.54516602 C305.90877037 209.2780498 307.82437243 216.99407339 309 225 C309.16983398 226.12196777 309.33966797 227.24393555 309.51464844 228.39990234 C310.22823782 234.19034977 310.20132815 239.99330996 310.23828125 245.8203125 C310.246353 247.03774139 310.25442474 248.25517029 310.26274109 249.50949097 C310.27651923 252.07288208 310.28726916 254.63629105 310.29516602 257.19970703 C310.30673806 259.82020444 310.32727097 262.44067734 310.35668945 265.06103516 C310.39925687 268.85595646 310.41551496 272.65018248 310.42578125 276.4453125 C310.44328934 277.61417999 310.46079742 278.78304749 310.47883606 279.98733521 C310.46193918 286.31095667 310.30366429 290.22319412 306 295 C302.18069828 298.62833663 299.11720994 299.31000458 294 299.5 C288.88279006 299.31000458 285.81930172 298.62833663 282 295 C277.06934192 289.38892974 277.12450292 283.48609981 276.5625 276.25 C273.6477374 245.87926907 261.38114487 218.93035692 238.0703125 198.4765625 C206.67938256 173.15614319 172.43745794 171.71992877 133.67311192 171.59528303 C129.38235771 171.57944904 125.0916702 171.55272578 120.80096436 171.5272522 C112.70910739 171.48081768 104.61723737 171.4439049 96.52531695 171.41057932 C87.29886851 171.37210525 78.07248763 171.32276309 68.84609652 171.27259517 C49.8974474 171.16980203 30.94875682 171.08037385 12 171 C12.00888245 171.89678467 12.01776489 172.79356934 12.0269165 173.7175293 C12.10724661 182.19148345 12.16805781 190.6653087 12.20724869 199.13955688 C12.22807492 203.49571041 12.25630099 207.85154787 12.30175781 212.20751953 C12.34539387 216.41560957 12.3691744 220.62339663 12.37950897 224.83169556 C12.38686863 226.43279791 12.4012402 228.0338847 12.42292023 229.63485718 C12.62632242 245.28539237 12.62632242 245.28539237 8 252 C3.91277845 255.79527715 -0.04674216 256.83935157 -5.48828125 257.1484375 C-13.16872185 256.69453899 -17.74608555 251.57700617 -22.80078125 246.2734375 C-24.69208601 244.3183054 -26.60774153 242.55967449 -28.6875 240.8125 C-32.66559417 237.40839938 -36.31999589 233.71872571 -40 230 C-45.34464761 224.58504599 -45.34464761 224.58504599 -51 219.5 C-55.55937735 215.64811224 -59.67246864 211.35187792 -63.8671875 207.11328125 C-66.82940843 204.13199023 -69.78707598 201.21436684 -73 198.5 C-77.55937735 194.64811224 -81.67246864 190.35187792 -85.8671875 186.11328125 C-88.82940843 183.13199023 -91.78707598 180.21436684 -95 177.5 C-98.88714761 174.21603046 -102.42354417 170.61386156 -106 167 C-111.3120156 161.61461721 -111.3120156 161.61461721 -116.9375 156.5625 C-121.0859689 152.97703001 -124.98083247 149.17002947 -128.875 145.3125 C-129.54265381 144.65773682 -130.21030762 144.00297363 -130.89819336 143.32836914 C-131.52733643 142.70051514 -132.15647949 142.07266113 -132.8046875 141.42578125 C-133.37171387 140.86286377 -133.93874023 140.29994629 -134.52294922 139.7199707 C-138.41348282 135.18958901 -138.56217359 130.8208778 -138.421875 125.01953125 C-137.24106447 116.56798922 -129.25668768 111.31849776 -123.2265625 105.9375 C-119.94757564 102.99018534 -116.84257381 99.890803 -113.75 96.75 C-110.63389453 93.59323243 -107.51246846 90.49353712 -104.125 87.625 C-100.20167668 84.29263751 -96.61791333 80.65584689 -93 77 C-88.8549215 72.8115516 -84.69083635 68.77329278 -80.1875 64.96875 C-77.00179249 62.10161324 -74.01415242 59.04568121 -71 56 C-66.85491669 51.81155808 -62.69083641 47.77329283 -58.1875 43.96875 C-55.00179249 41.10161324 -52.01415242 38.04568121 -49 35 C-44.85555574 30.81220381 -40.69513085 26.77111242 -36.1875 22.97265625 C-32.99282435 20.09174339 -30.01591157 17.00357144 -27 13.9375 C-12.22947108 -1.0348014 -12.22947108 -1.0348014 0 0 Z " fill="#3067cc" transform="translate(202,21)"/>
<path d="M0 0 C4.6861965 2.17573409 7.92511568 5.24718616 10 10 C10.80671195 14.22257382 11.1048937 18.46750907 11.4375 22.75 C14.3522626 53.12073093 26.61885513 80.06964308 49.9296875 100.5234375 C81.32061744 125.84385681 115.56254206 127.28007123 154.32688808 127.40471697 C158.61764229 127.42055096 162.9083298 127.44727422 167.19903564 127.4727478 C175.29089261 127.51918232 183.38276263 127.5560951 191.47468305 127.58942068 C200.70113149 127.62789475 209.92751237 127.67723691 219.15390348 127.72740483 C238.1025526 127.83019797 257.05124318 127.91962615 276 128 C275.99111755 127.10321533 275.98223511 126.20643066 275.9730835 125.2824707 C275.89275339 116.80851655 275.83194219 108.3346913 275.79275131 99.86044312 C275.77192508 95.50428959 275.74369901 91.14845213 275.69824219 86.79248047 C275.65460613 82.58439043 275.6308256 78.37660337 275.62049103 74.16830444 C275.61313137 72.56720209 275.5987598 70.9661153 275.57707977 69.36514282 C275.37259656 53.6314299 275.37259656 53.6314299 280 47 C285.23815851 42.83085343 289.32325422 41.45272576 296 42 C302.30454236 43.90035085 306.35101244 48.0577049 310.80078125 52.7265625 C312.69208601 54.6816946 314.60774153 56.44032551 316.6875 58.1875 C320.66559417 61.59160062 324.31999589 65.28127429 328 69 C333.34464761 74.41495401 333.34464761 74.41495401 339 79.5 C343.55937735 83.35188776 347.67246864 87.64812208 351.8671875 91.88671875 C354.82940843 94.86800977 357.78707598 97.78563316 361 100.5 C365.55937735 104.35188776 369.67246864 108.64812208 373.8671875 112.88671875 C376.82940843 115.86800977 379.78707598 118.78563316 383 121.5 C386.88714761 124.78396954 390.42354417 128.38613844 394 132 C399.3120156 137.38538279 399.3120156 137.38538279 404.9375 142.4375 C409.0859689 146.02296999 412.98083247 149.82997053 416.875 153.6875 C417.54265381 154.34226318 418.21030762 154.99702637 418.89819336 155.67163086 C419.52733643 156.29948486 420.15647949 156.92733887 420.8046875 157.57421875 C421.37171387 158.13713623 421.93874023 158.70005371 422.52294922 159.2800293 C426.41348282 163.81041099 426.56217359 168.1791222 426.421875 173.98046875 C425.24106447 182.43201078 417.25668768 187.68150224 411.2265625 193.0625 C407.94757564 196.00981466 404.84257381 199.109197 401.75 202.25 C398.63389453 205.40676757 395.51246846 208.50646288 392.125 211.375 C388.20167668 214.70736249 384.61791333 218.34415311 381 222 C376.8549215 226.1884484 372.69083635 230.22670722 368.1875 234.03125 C365.00179249 236.89838676 362.01415242 239.95431879 359 243 C354.85491669 247.18844192 350.69083641 251.22670717 346.1875 255.03125 C343.00179249 257.89838676 340.01415242 260.95431879 337 264 C332.85555574 268.18779619 328.69513085 272.22888758 324.1875 276.02734375 C320.99282435 278.90825661 318.01591157 281.99642856 315 285.0625 C301.14531278 299.10644886 301.14531278 299.10644886 293.25 299.25 C288.75596793 299.19172005 285.77822629 298.60877529 282 296 C276.9473559 290.66665345 275.74755592 286.07278469 275.77294922 278.82299805 C275.77265717 278.12001083 275.77236511 277.41702362 275.77206421 276.69273376 C275.77345123 274.38226738 275.7889825 272.07212841 275.8046875 269.76171875 C275.80841987 268.15460893 275.81126578 266.54749683 275.81326294 264.94038391 C275.82088179 260.7202623 275.84051517 256.50027939 275.8626709 252.2802124 C275.88316707 247.97003048 275.89227271 243.65982604 275.90234375 239.34960938 C275.92376279 230.89967609 275.95787752 222.44985532 276 214 C275.28421752 214.00276538 274.56843504 214.00553076 273.83096218 214.00837994 C256.30633889 214.07502061 238.78174833 214.12446395 221.25702572 214.15543652 C212.78173674 214.17081784 204.30653302 214.19173722 195.83129883 214.22631836 C188.43278121 214.25649148 181.03432542 214.2756382 173.63574797 214.28226548 C169.72869005 214.28613121 165.82180879 214.29502656 161.91480827 214.31719017 C107.89780856 214.61126014 62.25456809 201.58901081 23 163 C-0.53130007 139.54547416 -16.1903286 106.75346475 -21 74 C-21.16983398 72.87803223 -21.33966797 71.75606445 -21.51464844 70.60009766 C-22.22823782 64.80965023 -22.20132815 59.00669004 -22.23828125 53.1796875 C-22.246353 51.96225861 -22.25442474 50.74482971 -22.26274109 49.49050903 C-22.27651923 46.92711792 -22.28726916 44.36370895 -22.29516602 41.80029297 C-22.30673806 39.17979556 -22.32727097 36.55932266 -22.35668945 33.93896484 C-22.39925687 30.14404354 -22.41551496 26.34981752 -22.42578125 22.5546875 C-22.44328934 21.38582001 -22.46079742 20.21695251 -22.47883606 19.01266479 C-22.46193918 12.68904333 -22.30366429 8.77680588 -18 4 C-12.72867143 -1.00776214 -6.89190982 -0.92775709 0 0 Z " fill="#3067cc" transform="translate(22,192)"/>
</svg>