<?xml version="1.0" encoding="UTF-8"?>
<svg version="1.1" xmlns="http://www.w3.org/2000/svg" width="512" height="512">
<path d="M0 0 C1.2478125 0.32613281 2.495625 0.65226563 3.78125 0.98828125 C24.19672944 7.09073434 45.64072327 19.40426375 59.51513672 35.78930664 C62.60554865 39.29413305 64.79585425 41.37933698 69.53125 41.98046875 C71.18611078 42.07722773 72.84285276 42.14519733 74.5 42.1875 C86.67835619 42.94157431 97.48713765 45.96039918 109 50 C109.58523438 49.19820312 110.17046875 48.39640625 110.7734375 47.5703125 C129.37278624 22.69433428 153.78313924 0.21101299 185.5859375 -4.53515625 C220.50293271 -7.77372617 250.14075769 8.24960824 277.92773438 27.32324219 C296.22934716 40.55356773 296.22934716 40.55356773 317.8203125 43.55859375 C321.31252503 42.66363606 323.96391195 40.9207904 327 39 C327.66 39 328.32 39 329 39 C332.29649232 46.78244064 335.33406279 54.58286804 337.75 62.6875 C338.04716919 63.66384399 338.04716919 63.66384399 338.3503418 64.65991211 C341.55360413 75.73928637 342.38984315 86.6883007 342.375 98.1875 C342.37478851 98.86809479 342.37457703 99.54868958 342.37435913 100.24990845 C342.32621868 115.7960809 339.80958476 128.92287596 333 143 C332.55914062 143.92167969 332.11828125 144.84335938 331.6640625 145.79296875 C326.28175385 156.33456221 318.52780242 164.89045492 310 173 C310.54269531 173.36351562 311.08539063 173.72703125 311.64453125 174.1015625 C317.022663 177.88079021 320.11904996 180.73398208 321.49609375 187.40234375 C322.87758723 197.32915772 320.80914387 206.81647973 314.87109375 214.9609375 C307.30988094 223.20092307 298.81257774 226.08693788 288 227 C287.72027344 227.94359375 287.44054687 228.8871875 287.15234375 229.859375 C283.01505555 243.31613395 277.01010739 253.94017354 267 264 C266.26265625 264.77214844 265.5253125 265.54429687 264.765625 266.33984375 C250.19341817 280.64310045 230.81218144 285.30483574 211 286 C211 291.28 211 296.56 211 302 C213.31 302.33 215.62 302.66 218 303 C221.28273409 303.83709553 224.47677306 304.9208847 227.6875 306 C228.59943115 306.30615234 229.5113623 306.61230469 230.45092773 306.92773438 C269.6870709 320.45534399 269.6870709 320.45534399 278 334 C281.51224056 343.80994722 282.30421236 354.58983955 283.5625 364.875 C283.78075437 366.62362761 283.99909807 368.37224408 284.2175293 370.12084961 C288.41794964 404.0415722 288.41794964 404.0415722 288 421 C288.69561035 420.98428955 289.3912207 420.9685791 290.10791016 420.95239258 C293.28018971 420.88977137 296.45233885 420.85092323 299.625 420.8125 C301.26662109 420.77479492 301.26662109 420.77479492 302.94140625 420.73632812 C313.49620821 420.64037538 313.49620821 420.64037538 318 424 C322.1711034 428.50549566 321.44312995 434.21652385 321.375 440 C321.38660156 440.98484375 321.39820313 441.9696875 321.41015625 442.984375 C321.37323123 452.09254663 321.37323123 452.09254663 318 456 C314 459 314 459 298 459 C298 474.18 298 489.36 298 505 C154.12 505 10.24 505 -138 505 C-138 489.82 -138 474.64 -138 459 C-143.61 459 -149.22 459 -155 459 C-160.94297492 454.24562006 -160.94297492 454.24562006 -162 450 C-162.29348298 446.84856944 -162.32467653 443.72596179 -162.3125 440.5625 C-162.32861328 439.72912109 -162.34472656 438.89574219 -162.36132812 438.03710938 C-162.36536173 432.93459907 -161.82140671 429.42089031 -159 425 C-153.17153199 419.71795086 -146.39235806 420.92680834 -139 421 C-139.02030273 420.27619141 -139.04060547 419.55238281 -139.06152344 418.80664062 C-139.21139546 408.93955587 -138.30336395 399.29952021 -137.25 389.5 C-137.16074249 388.65315643 -137.07148499 387.80631287 -136.97952271 386.93380737 C-135.76856279 375.45967578 -134.45673646 364.00005229 -132.9375 352.5625 C-132.78764648 351.39847656 -132.63779297 350.23445313 -132.48339844 349.03515625 C-131.52947388 342.17180186 -130.11577701 336.23155401 -127 330 C-127.75023437 329.52691406 -128.50046875 329.05382812 -129.2734375 328.56640625 C-150.49801022 314.8533007 -163.69802571 296.5262076 -169.53621197 271.7218256 C-170.06123654 268.64062206 -170.13524044 265.7372064 -170.14717102 262.61094666 C-170.15432632 261.3203685 -170.16148163 260.02979034 -170.16885376 258.70010376 C-170.17169385 257.27655054 -170.1744056 255.85299705 -170.17700195 254.42944336 C-170.18327166 252.92422836 -170.18991891 251.4190149 -170.19691467 249.9138031 C-170.21792014 244.97249419 -170.22832276 240.03118515 -170.23828125 235.08984375 C-170.24233195 233.38122606 -170.24644896 231.67260853 -170.25063133 229.96399117 C-170.2696856 221.92396211 -170.28390879 213.88394218 -170.2922433 205.8438949 C-170.30197748 196.60884337 -170.3281953 187.37403398 -170.36874419 178.13906759 C-170.39910158 170.97522961 -170.41373111 163.81146018 -170.41702431 156.64755923 C-170.41935511 152.38237628 -170.42805231 148.11745183 -170.45348549 143.85233879 C-170.64893659 109.28030139 -170.64893659 109.28030139 -166 93 C-165.80555613 92.30682615 -165.61111225 91.61365231 -165.41077614 90.89947319 C-155.9565959 57.71661702 -132.39115897 28.8617674 -102.57714844 11.75048828 C-71.10411813 -5.48314056 -34.52134624 -9.0940796 0 0 Z M97 256 C96.93530518 256.56283691 96.87061035 257.12567383 96.80395508 257.70556641 C93.80366764 282.98009084 85.75522365 303.91357209 66 321 C62.85712667 323.22684074 59.67232561 325.32979649 56.40625 327.37109375 C53.90796711 328.77575263 53.90796711 328.77575263 53 331 C53.99713877 333.00142806 54.99761052 335.00119653 56 337 C56.72021484 340.00878906 56.72021484 340.00878906 57.2109375 343.265625 C57.40147705 344.5252002 57.5920166 345.78477539 57.78833008 347.08251953 C57.98485029 348.4715437 58.18037594 349.86070888 58.375 351.25 C58.47783295 351.95944763 58.58066589 352.66889526 58.68661499 353.39984131 C61.92461973 375.83333106 63.88533474 398.43903754 66 421 C71.61 421 77.22 421 83 421 C83.16081055 419.40945801 83.32162109 417.81891602 83.48730469 416.18017578 C84.09936577 410.14448078 84.72036619 404.10973046 85.34375 398.07519531 C85.60977131 395.48852179 85.87352997 392.90161434 86.13476562 390.31445312 C87.5092507 376.71762387 88.99133475 363.14338681 90.953125 349.6171875 C91.09772156 348.56056915 91.24231812 347.50395081 91.39129639 346.41531372 C92.46151825 339.38174367 93.96005492 333.09061083 99.109375 327.85546875 C117.29726167 316.18081176 137.42505407 308.51908908 158.12573242 302.61547852 C159.99144778 302.15895208 159.99144778 302.15895208 161 301 C161.07313567 298.46950598 161.09247527 295.96695163 161.0625 293.4375 C161.05798828 292.72658203 161.05347656 292.01566406 161.04882812 291.28320312 C161.03700864 289.52209987 161.01907263 287.76103964 161 286 C160.14003418 285.89510254 160.14003418 285.89510254 159.26269531 285.78808594 C137.54498684 283.07881705 137.54498684 283.07881705 128 279 C127.01 278.57976562 126.02 278.15953125 125 277.7265625 C114.71396601 272.97714375 106.38560873 266.20051981 99.2421875 257.43359375 C98.83226562 256.96050781 98.42234375 256.48742187 98 256 C97.67 256 97.34 256 97 256 Z " fill="#E3936B" transform="translate(170,6)"/>
<path d="M0 0 C3.23460705 1.48036936 5.86772708 3.3397972 8.6875 5.5 C21.49461332 14.87602991 35.31649448 22.04587449 50 28 C50.74975098 28.30534668 51.49950195 28.61069336 52.27197266 28.92529297 C73.54116562 37.46122578 95.33421267 42.01487883 118 45 C118.83370117 45.11327637 119.66740234 45.22655273 120.52636719 45.34326172 C133.31937786 47.05530733 146.10502084 47.53391642 159 48 C159.33 58.23 159.66 68.46 160 79 C161.98 76.69 163.96 74.38 166 72 C171.16871856 69.41564072 175.3101131 69.34760368 181 70 C185.39573018 71.99805917 188.03927023 74.54813869 190.2421875 78.8984375 C193.28095915 87.3255465 192.06304499 95.7680666 189 104 C185.01901981 112.42029692 178.3378646 117.60340773 169.9375 121.375 C165.98182655 122.21663265 162.02715005 122.65992955 158 123 C157.58041016 124.41539062 157.58041016 124.41539062 157.15234375 125.859375 C153.01505555 139.31613395 147.01010739 149.94017354 137 160 C136.26265625 160.77214844 135.5253125 161.54429687 134.765625 162.33984375 C120.19341817 176.64310045 100.81218144 181.30483574 81 182 C81 187.28 81 192.56 81 198 C83.31 198.33 85.62 198.66 88 199 C91.28273409 199.83709553 94.47677306 200.9208847 97.6875 202 C98.59943115 202.30615234 99.5113623 202.61230469 100.45092773 202.92773438 C139.6870709 216.45534399 139.6870709 216.45534399 148 230 C151.5122212 239.80989317 152.30435064 250.58986524 153.5625 260.875 C153.78076158 262.62435913 153.99910524 264.37370802 154.2175293 266.12304688 C155.34578874 275.23771336 156.44166466 284.35665046 157.3125 293.5 C157.42670288 294.65798096 157.42670288 294.65798096 157.54321289 295.83935547 C158.18666855 303.27573788 158 310.45159405 158 318 C90.35 318 22.7 318 -47 318 C-45.84888634 293.82661309 -45.84888634 293.82661309 -44.9140625 285.9921875 C-44.81161224 285.09033722 -44.70916199 284.18848694 -44.60360718 283.25930786 C-44.39007515 281.39270683 -44.1732897 279.52647487 -43.953125 277.66064453 C-43.62437787 274.86971841 -43.30750596 272.07762822 -42.9921875 269.28515625 C-42.3707342 263.85110561 -41.70248845 258.4241485 -41 253 C-40.88652222 252.11735474 -40.77304443 251.23470947 -40.65612793 250.32531738 C-40.31734387 247.75827162 -39.95596099 245.19552328 -39.5859375 242.6328125 C-39.48656891 241.87797577 -39.38720032 241.12313904 -39.28482056 240.34542847 C-38.20252498 233.21063915 -35.78861123 226.64636084 -29.83056641 222.18945312 C-25.90574548 219.63920939 -21.83583565 217.41344561 -17.6875 215.25 C-16.69145752 214.72994385 -15.69541504 214.2098877 -14.66918945 213.67407227 C-0.42498505 206.44724142 14.70637423 201.4915406 30 197 C30.33 192.05 30.66 187.1 31 182 C28.669375 181.9175 26.33875 181.835 23.9375 181.75 C5.40782003 180.72596633 -11.56605044 173.96668175 -25 161 C-25.65529694 160.545681 -26.31059387 160.091362 -26.98574829 159.62327576 C-31.2841438 156.03425106 -33.16107558 152.6203768 -33.70455933 147.09094238 C-34.03433723 140.70513512 -33.8997157 134.32374162 -33.78125 127.93359375 C-33.76631611 125.56993021 -33.75493452 123.20624178 -33.74694824 120.84254456 C-33.71650548 114.64247423 -33.63800731 108.44392 -33.54931641 102.2444458 C-33.46725688 95.90991726 -33.43089367 89.57514203 -33.390625 83.24023438 C-33.30500783 70.82615936 -33.16859393 58.4132061 -33 46 C-31.67826782 45.30837769 -31.67826782 45.30837769 -30.32983398 44.6027832 C-29.16782471 43.98749756 -28.00581543 43.37221191 -26.80859375 42.73828125 C-25.65931396 42.13282471 -24.51003418 41.52736816 -23.32592773 40.90356445 C-12.00345329 34.42324931 -5.91911908 24.89985468 -1.74609375 12.76171875 C-0.60673399 8.54429807 -0.18893105 4.35486068 0 0 Z " fill="#FEDCCD" transform="translate(300,110)"/>
<path d="M0 0 C0.94505299 2.35134345 1.8815055 4.70557468 2.8125 7.0625 C3.1216333 7.84036865 3.4307666 8.6182373 3.74926758 9.41967773 C5.82504935 14.73048323 7.71495298 20.08267956 9.4921875 25.5 C14.46635314 40.54002964 19.49245299 53.82441226 30 66 C30.80566406 66.97453125 31.61132812 67.9490625 32.44140625 68.953125 C34.54875201 71.40131103 36.71641472 73.71641472 39 76 C39.79664062 76.79664063 40.59328125 77.59328125 41.4140625 78.4140625 C45.0849954 82.44983146 45.0849954 82.44983146 49.9453125 83.96875 C57.53483513 80.39041994 63.64157096 72.54093718 68.75 66.0625 C69.17289307 65.52665283 69.59578613 64.99080566 70.03149414 64.4387207 C71.39711134 62.6541702 72.6976193 60.83116001 74 59 C74.52045898 58.32582031 75.04091797 57.65164063 75.57714844 56.95703125 C82.62463931 47.07035064 85.84239344 35.24628792 89.75 23.875 C90.87704622 20.60392256 92.00819639 17.3346164 93.15411377 14.07009888 C93.86323272 12.04965675 94.56148703 10.02536191 95.2477417 7.99703979 C95.56527405 7.09164459 95.8828064 6.18624939 96.20996094 5.25341797 C96.48418884 4.45386688 96.75841675 3.6543158 97.04095459 2.83053589 C98 1 98 1 101 0 C103.00195312 0.61743164 103.00195312 0.61743164 105.28125 1.66015625 C106.11881836 2.03922119 106.95638672 2.41828613 107.81933594 2.80883789 C108.70395508 3.22254639 109.58857422 3.63625488 110.5 4.0625 C111.39750977 4.4742749 112.29501953 4.8860498 113.21972656 5.31030273 C119.63213856 8.2818659 125.89656801 11.43033221 132 15 C129.43522043 17.68581412 126.88393964 19.80499514 123.8125 21.875 C112.38857391 30.65973524 106.2990577 45.61434904 104.3203125 59.51953125 C103.19543001 71.74233974 103.63974309 82.85344004 107.02734375 94.6796875 C107.99567829 98.36145819 108.29330352 101.9758306 108.56079102 105.77001953 C108.64482681 106.93759796 108.72886261 108.10517639 108.81544495 109.30813599 C108.9067997 110.64060867 108.9067997 110.64060867 109 112 C109.99990558 111.97077076 110.99981115 111.94154152 112.0300169 111.91142654 C143.29971344 111.01653236 174.55574544 110.82188232 205.83690667 110.79981136 C209.85222713 110.79683689 213.86754499 110.79275322 217.882864 110.78830719 C229.06991706 110.77620058 240.25696845 110.76586363 251.4440279 110.7624321 C252.50229711 110.76210275 252.50229711 110.76210275 253.58194549 110.76176675 C254.28868163 110.76154847 254.99541778 110.76133019 255.72357017 110.7611053 C257.15466201 110.76066189 258.58575386 110.76021533 260.0168457 110.75976562 C260.72664651 110.7595442 261.43644731 110.75932277 262.16775724 110.75909463 C273.77488006 110.75511096 285.38194153 110.73751172 296.98904047 110.7144061 C308.99342491 110.69070586 320.99777827 110.67823201 333.00218648 110.67706418 C339.70873903 110.67615028 346.41519741 110.67013842 353.1217289 110.65224457 C359.3922714 110.63582282 365.66265789 110.63357947 371.93321419 110.64238358 C374.23185392 110.6431558 376.53050193 110.63878691 378.82912064 110.62892532 C381.9625061 110.61626602 385.09533282 110.62204874 388.22871399 110.63250732 C389.13907907 110.62445092 390.04944416 110.61639452 390.98739606 110.60809398 C396.08060682 110.64793932 399.58381781 111.17572252 404 114 C408.1711034 118.50549566 407.44312995 124.21652385 407.375 130 C407.39240234 131.47726562 407.39240234 131.47726562 407.41015625 132.984375 C407.37323123 142.09254663 407.37323123 142.09254663 404 146 C400 149 400 149 384 149 C384 164.18 384 179.36 384 195 C240.12 195 96.24 195 -52 195 C-52 179.82 -52 164.64 -52 149 C-57.61 149 -63.22 149 -69 149 C-74.94297492 144.24562006 -74.94297492 144.24562006 -76 140 C-76.29348298 136.84856944 -76.32467653 133.72596179 -76.3125 130.5625 C-76.32861328 129.72912109 -76.34472656 128.89574219 -76.36132812 128.03710938 C-76.36536173 122.93459907 -75.82140671 119.42089031 -73 115 C-69.06311675 111.43219956 -65.71595467 110.87316047 -60.51879883 110.97827148 C-58.83739555 111.00841591 -58.83739555 111.00841591 -57.12202454 111.03916931 C-55.91257675 111.06620438 -54.70312897 111.09323944 -53.45703125 111.12109375 C-51.59893074 111.15651024 -51.59893074 111.15651024 -49.70329285 111.19264221 C-46.41361488 111.25628831 -43.12407267 111.32449353 -39.83453369 111.39489746 C-36.47635263 111.46565149 -33.11805683 111.53042611 -29.75976562 111.59570312 C-23.17305725 111.72495102 -16.5864926 111.86020915 -10 112 C-10.02255859 110.78828125 -10.04511719 109.5765625 -10.06835938 108.328125 C-10.06651729 104.97699493 -9.73930319 102.01044202 -8.90625 98.75 C-8.5669043 97.35503296 -8.5669043 97.35503296 -8.22070312 95.93188477 C-7.98287109 94.96436279 -7.74503906 93.99684082 -7.5 93 C-2.91122999 72.9908654 -3.84989314 52.347123 -14.59765625 34.3203125 C-19.62375168 26.78689384 -25.41089223 19.43564311 -34 16 C-30.47674338 13.10589635 -26.56651758 11.13087968 -22.5 9.125 C-21.79601074 8.77566406 -21.09202148 8.42632812 -20.36669922 8.06640625 C-3.93995402 0 -3.93995402 0 0 0 Z " fill="#9C6B6B" transform="translate(84,316)"/>
<path d="M0 0 C3.06808788 2.70146103 5.00440678 6.05652308 7.125 9.5 C11.28121239 16.09284852 15.83733109 22.14773272 21 28 C21.91652344 29.05960938 21.91652344 29.05960938 22.8515625 30.140625 C26.75928852 34.36429483 31.08509577 37.61176465 35.875 40.75 C36.70390747 41.29744873 36.70390747 41.29744873 37.54956055 41.85595703 C40.98409958 44.01882987 44.45457528 45.64627762 48.23486328 47.12988281 C49.1290799 47.48238098 50.02329651 47.83487915 50.9446106 48.19805908 C51.6228891 48.46269958 52.3011676 48.72734009 53 49 C53.09339245 57.6069827 53.16411109 66.21374761 53.20724869 74.82111454 C53.22797066 78.81948528 53.25599967 82.81750501 53.30175781 86.81567383 C53.34577411 90.68663837 53.3692522 94.55726907 53.37950897 98.42846489 C53.38680184 99.8926054 53.40103709 101.35673126 53.42292023 102.82072639 C53.6166421 116.33993232 51.37347169 128.92868966 45 141 C44.60425781 141.7734375 44.20851562 142.546875 43.80078125 143.34375 C34.05620743 160.99008425 17.81862564 172.66572198 -1.1875 178.75 C-9.19573688 180.97870743 -16.73586782 181.10330165 -25 181 C-25 186.61 -25 192.22 -25 198 C-23.659375 198.226875 -22.31875 198.45375 -20.9375 198.6875 C-13.74661988 200.10498284 -6.90495319 202.58786969 0 205 C-2.5727544 213.97236569 -5.56861667 222.78787416 -8.65844727 231.59301758 C-9.25701776 233.31081628 -9.84731798 235.03152105 -10.42895508 236.75512695 C-15.53589528 251.87057075 -22.4061368 264.44530179 -33.0625 276.4375 C-33.56072266 277.00605713 -34.05894531 277.57461426 -34.57226562 278.16040039 C-43.70926318 288.43074832 -43.70926318 288.43074832 -48 291 C-55.05789088 290.7745983 -61.83378547 281.32705295 -66.375 276.5625 C-67.9490898 274.7357785 -69.48736354 272.87792468 -71 271 C-71.46164551 270.42797852 -71.92329102 269.85595703 -72.39892578 269.26660156 C-82.38477813 256.5561369 -87.10664743 242.53841355 -91.92773438 227.30078125 C-93.74551956 221.70504908 -95.8896097 216.24801065 -98.0390625 210.7734375 C-99 208 -99 208 -99 205 C-96.10538781 204.0170943 -93.20941921 203.03856299 -90.3125 202.0625 C-89.49587891 201.78470703 -88.67925781 201.50691406 -87.83789062 201.22070312 C-87.04189453 200.95322266 -86.24589844 200.68574219 -85.42578125 200.41015625 C-84.69786377 200.16402588 -83.96994629 199.91789551 -83.2199707 199.66430664 C-80.85386608 198.95627071 -78.42180915 198.48436183 -76 198 C-75.67 192.39 -75.34 186.78 -75 181 C-77.124375 181.103125 -79.24875 181.20625 -81.4375 181.3125 C-100.43011803 181.61199492 -118.03048532 172.33273208 -131.53808594 159.47363281 C-149.61773005 141.24906169 -153.46611387 119.33853278 -153.42433167 94.83757019 C-153.40857131 91.14468581 -153.37205222 87.45215983 -153.33294678 83.75946045 C-153.30539657 80.71503943 -153.29708442 77.67069374 -153.28938007 74.6261673 C-153.27945538 70.99031848 -153.2596024 67.35454726 -153.23828125 63.71875 C-153.2348855 63.02743484 -153.23148975 62.33611969 -153.2279911 61.62385559 C-153.21648176 59.68604566 -153.19695647 57.74828824 -153.17700195 55.81054688 C-153.16715775 54.70932495 -153.15731354 53.60810303 -153.14717102 52.47351074 C-153 50 -153 50 -152 49 C-150.65887565 48.83146197 -149.31006955 48.72346394 -147.9609375 48.640625 C-100.60693147 45.33918988 -35.39847488 35.16559018 0 0 Z " fill="#FEDCCD" transform="translate(183,110)"/>
<path d="M0 0 C19.16328287 14.12458236 19.16328287 14.12458236 41.8203125 17.55859375 C45.31252503 16.66363606 47.96391195 14.9207904 51 13 C51.66 13 52.32 13 53 13 C56.29649232 20.78244064 59.33406279 28.58286804 61.75 36.6875 C62.04716919 37.66384399 62.04716919 37.66384399 62.3503418 38.65991211 C65.55360413 49.73928637 66.38984315 60.6883007 66.375 72.1875 C66.37478851 72.86809479 66.37457703 73.54868958 66.37435913 74.24990845 C66.32621868 89.7960809 63.80958476 102.92287596 57 117 C56.55914062 117.92167969 56.11828125 118.84335938 55.6640625 119.79296875 C51.99493499 126.9791881 47.34040299 132.977655 42 139 C41.25363281 139.8765625 40.50726563 140.753125 39.73828125 141.65625 C33.61228696 148.41301857 33.61228696 148.41301857 28.3125 148.8125 C27.57257813 148.82539063 26.83265625 148.83828125 26.0703125 148.8515625 C22.5730954 149.10230637 20.59472813 150.76732695 18 153 C16.60644236 154.95851344 15.25717453 156.95127113 14 159 C13.67 159 13.34 159 13 159 C13 148.11 13 137.22 13 126 C9.885625 126.0825 6.77125 126.165 3.5625 126.25 C-19.69567453 126.45424491 -43.53819861 122.89115477 -66 117 C-67.38541992 116.63914307 -67.38541992 116.63914307 -68.79882812 116.27099609 C-97.3517806 108.64215742 -122.49926011 95.71153324 -146 78 C-145.95359375 78.59425781 -145.9071875 79.18851562 -145.859375 79.80078125 C-145.3495653 91.50819687 -150.31120473 101.95539849 -157.58984375 110.96875 C-163.52814415 117.34019702 -170.37519182 121.70342631 -179 123 C-179.01981934 122.16976318 -179.03963867 121.33952637 -179.06005859 120.48413086 C-179.96789289 84.33376795 -184.29442136 47.37975036 -209.86108398 19.46508789 C-211 18 -211 18 -211 16 C-195.60308044 15.10885996 -181.39083239 18.69514414 -167 24 C-166.41476562 23.19820312 -165.82953125 22.39640625 -165.2265625 21.5703125 C-146.3857173 -3.62865879 -121.87735392 -25.79260095 -89.75 -30.8125 C-55.91050498 -33.31449593 -27.02995072 -18.62254567 0 0 Z " fill="#9D6B6B" transform="translate(446,32)"/>
<path d="M0 0 C-1.93800855 0.98186716 -3.8729541 1.94368343 -5.859375 2.82421875 C-21.13514356 9.79931142 -28.42491051 24.37842619 -35 39 C-35.30437988 39.67546875 -35.60875977 40.3509375 -35.92236328 41.046875 C-51.15619041 75.92410238 -51.32866381 114.68080311 -52 152 C-55.3508401 152.64365361 -58.7061482 153.26079416 -62.0625 153.875 C-62.96677734 154.04902344 -63.87105469 154.22304687 -64.80273438 154.40234375 C-75.7798061 156.38482493 -86.89020572 157.1264288 -98 158 C-98.09357742 166.18128699 -98.16420175 174.36234235 -98.20724869 182.54403591 C-98.22793173 186.3450636 -98.25588521 190.14571944 -98.30175781 193.9465332 C-98.62332703 221.32943211 -96.98326451 246.06389109 -77 267 C-61.37349863 281.9429606 -42.29772794 288.19631215 -21 289 C-21 294.61 -21 300.22 -21 306 C-22.93939453 306.64582031 -22.93939453 306.64582031 -24.91796875 307.3046875 C-25.74345215 307.58022461 -26.56893555 307.85576172 -27.41943359 308.13964844 C-29.04411094 308.68131002 -30.66935812 309.22126835 -32.29541016 309.75878906 C-41.9973625 312.98087066 -51.48790012 316.48537851 -60.8125 320.6875 C-61.62952393 321.05568848 -62.44654785 321.42387695 -63.28833008 321.80322266 C-68.01240421 323.9755821 -72.52456686 326.35298147 -77 329 C-76.27425781 329.56976563 -75.54851562 330.13953125 -74.80078125 330.7265625 C-58.75698323 343.74956173 -51.46837012 358.73219029 -49 379 C-47.97692869 391.62762304 -50.38496313 403.0210591 -53.42749023 415.234375 C-54.16264769 418.78570277 -54.55017293 422.40138346 -55 426 C-69.19 426 -83.38 426 -98 426 C-98 409.88477996 -98 409.88477996 -97.265625 403.12109375 C-97.18773239 402.35314484 -97.10983978 401.58519592 -97.02958679 400.79397583 C-96.77788103 398.34088368 -96.51490494 395.88919925 -96.25 393.4375 C-96.16074249 392.59315399 -96.07148499 391.74880798 -95.97952271 390.87887573 C-94.76767057 379.42326519 -93.45344697 367.98198854 -91.9375 356.5625 C-91.78764648 355.398396 -91.63779297 354.23429199 -91.48339844 353.03491211 C-90.52941652 346.17165571 -89.11573894 340.23147788 -86 334 C-86.75023437 333.52691406 -87.50046875 333.05382812 -88.2734375 332.56640625 C-109.49801022 318.8533007 -122.69802571 300.5262076 -128.53621197 275.7218256 C-129.06123654 272.64062206 -129.13524044 269.7372064 -129.14717102 266.61094666 C-129.15432632 265.3203685 -129.16148163 264.02979034 -129.16885376 262.70010376 C-129.17169385 261.27655054 -129.1744056 259.85299705 -129.17700195 258.42944336 C-129.18327166 256.92422836 -129.18991891 255.4190149 -129.19691467 253.9138031 C-129.21792014 248.97249419 -129.22832276 244.03118515 -129.23828125 239.08984375 C-129.24233195 237.38122606 -129.24644896 235.67260853 -129.25063133 233.96399117 C-129.2696856 225.92396211 -129.28390879 217.88394218 -129.2922433 209.8438949 C-129.30197748 200.60884337 -129.3281953 191.37403398 -129.36874419 182.13906759 C-129.39910158 174.97522961 -129.41373111 167.81146018 -129.41702431 160.64755923 C-129.41935511 156.38237628 -129.42805231 152.11745183 -129.45348549 147.85233879 C-129.64893659 113.28030139 -129.64893659 113.28030139 -125 97 C-124.80555613 96.30682615 -124.61111225 95.61365231 -124.41077614 94.89947319 C-114.9565959 61.71661702 -91.39115897 32.8617674 -61.57714844 15.75048828 C-43.03248109 5.59601917 -21.30273772 -1.39944992 0 0 Z " fill="#E27D47" transform="translate(129,2)"/>
<path d="M0 0 C-0.63772339 0.5556665 -0.63772339 0.5556665 -1.28833008 1.12255859 C-4.92695499 4.72232182 -6.42921933 7.38139438 -6.76171875 12.5390625 C-6.76830572 14.56784849 -6.74283363 16.59695805 -6.6875 18.625 C-6.70973633 20.16027344 -6.70973633 20.16027344 -6.73242188 21.7265625 C-6.76008167 28.02812734 -6.76008167 28.02812734 -3.51953125 33.1484375 C-2.68808594 33.75945312 -1.85664062 34.37046875 -1 35 C-0.505 35.495 -0.505 35.495 0 36 C2.27763552 36.10324362 4.55854761 36.13402438 6.83851719 36.1386652 C7.56567172 36.14150742 8.29282625 36.14434964 9.04201576 36.14727798 C11.50959408 36.1556839 13.97712582 36.15689777 16.44471741 36.15821838 C18.21924577 36.16277973 19.99377305 36.16777911 21.76829904 36.17318195 C26.66871407 36.18682117 31.56912212 36.19419806 36.46955121 36.20060861 C41.74498323 36.20858728 47.02040061 36.2222937 52.29582214 36.23532104 C61.44386908 36.25711989 70.59191748 36.27525185 79.73997688 36.29092598 C92.96669948 36.31359367 106.1934059 36.34174073 119.42011481 36.37124526 C140.877156 36.4189593 162.33420379 36.46221311 183.79125977 36.50268555 C204.64054885 36.54202111 225.48983206 36.58344265 246.33911133 36.62768555 C247.6232567 36.63040982 248.90740208 36.63313409 250.23046095 36.63594092 C256.67234103 36.64962007 263.11422102 36.66334041 269.55610096 36.67708123 C323.03738854 36.79110586 376.51868895 36.89762825 430 37 C430 52.18 430 67.36 430 83 C286.12 83 142.24 83 -6 83 C-6 67.82 -6 52.64 -6 37 C-11.61 37 -17.22 37 -23 37 C-28.94297492 32.24562006 -28.94297492 32.24562006 -30 28 C-30.29348298 24.84856944 -30.32467653 21.72596179 -30.3125 18.5625 C-30.33666992 17.31243164 -30.33666992 17.31243164 -30.36132812 16.03710938 C-30.36536173 10.93459907 -29.82140671 7.42089031 -27 3 C-19.98371656 -3.35850687 -8.71999079 -1.62232387 0 0 Z " fill="#8A5D5D" transform="translate(38,428)"/>
<path d="M0 0 C2.2315746 2.75253725 3.60873398 5.19530189 4.74243164 8.54638672 C5.20420555 9.88961502 5.20420555 9.88961502 5.67530823 11.25997925 C6.00030807 12.22348297 6.32530792 13.18698669 6.66015625 14.1796875 C7.37863081 16.24511418 8.09806411 18.31020756 8.81835938 20.375 C9.93824331 23.60767475 11.05137518 26.84209878 12.1472168 30.08300781 C16.58908148 43.17206477 21.08583133 54.35607505 30 65 C30.58950439 65.7513623 31.17900879 66.50272461 31.78637695 67.27685547 C33.19315338 69.05777218 34.63651668 70.78718154 36.125 72.5 C36.87728882 73.36625 36.87728882 73.36625 37.64477539 74.25 C43.02972877 80.71107982 43.02972877 80.71107982 50 85 C54.72272754 83.9373863 57.75834122 80.77975862 61.0625 77.4375 C61.62251709 76.87393799 62.18253418 76.31037598 62.75952148 75.72973633 C74.12225578 63.92709256 82.25538607 50.50572413 87.63671875 35.1015625 C87.96162796 34.18539154 88.28653717 33.26922058 88.62129211 32.32528687 C89.64821621 29.42688061 90.66814447 26.52607571 91.6875 23.625 C92.71892196 20.70299815 93.75178926 17.78151465 94.7858429 14.86044312 C95.42649734 13.04926077 96.0653801 11.23745056 96.70231628 9.42495728 C96.98964127 8.61005829 97.27696625 7.7951593 97.57299805 6.95556641 C97.825186 6.23801178 98.07737396 5.52045715 98.33720398 4.78115845 C99 3 99 3 100 1 C105.37561701 1.59729078 109.75659055 3.41063399 114.625 5.625 C115.41753174 5.98400391 116.21006348 6.34300781 117.02661133 6.71289062 C137.57849682 16.16855069 137.57849682 16.16855069 143 25 C146.5122212 34.80989317 147.30435064 45.58986524 148.5625 55.875 C148.78076158 57.62435913 148.99910524 59.37370802 149.2175293 61.12304688 C150.34578874 70.23771336 151.44166466 79.35665046 152.3125 88.5 C152.42670288 89.65798096 152.42670288 89.65798096 152.54321289 90.83935547 C153.18666855 98.27573788 153 105.45159405 153 113 C85.35 113 17.7 113 -52 113 C-50.84888634 88.82661309 -50.84888634 88.82661309 -49.9140625 80.9921875 C-49.81161224 80.09033722 -49.70916199 79.18848694 -49.60360718 78.25930786 C-49.39007515 76.39270683 -49.1732897 74.52647487 -48.953125 72.66064453 C-48.62437787 69.86971841 -48.30750596 67.07762822 -47.9921875 64.28515625 C-47.3707342 58.85110561 -46.70248845 53.4241485 -46 48 C-45.88652222 47.11735474 -45.77304443 46.23470947 -45.65612793 45.32531738 C-45.31734387 42.75827162 -44.95596099 40.19552328 -44.5859375 37.6328125 C-44.48656891 36.87797577 -44.38720032 36.12313904 -44.28482056 35.34542847 C-43.21105326 28.2668599 -40.80692562 21.64425671 -34.89648438 17.21142578 C-30.66379749 14.5076935 -26.21792426 12.22321415 -21.75 9.9375 C-20.76386719 9.42123047 -19.77773438 8.90496094 -18.76171875 8.37304688 C-12.63458105 5.20453364 -6.45776725 2.42477254 0 0 Z " fill="#5866CA" transform="translate(305,315)"/>
<path d="M0 0 C-0.33 6.27 -0.66 12.54 -1 19 C1.64 19 4.28 19 7 19 C10.85432365 20.81555013 13.49849853 24.04398928 15 28 C15.69216887 35.38013826 15.9979263 42.5747613 12 49 C10.25 51 10.25 51 8 52 C4.67955183 51.77100357 1.989803 51.4949015 -1 50 C-0.86695438 54.07903136 -0.86695438 54.07903136 0 58 C2.83068782 60.44319227 2.83068782 60.44319227 6 62 C8 64 8 64 8.5 67.3125 C7.97908992 71.15421181 7.86508303 71.59840473 5.125 73.9375 C2 76 2 76 0 76 C5.66680414 97.18891983 16.42638177 114.99921786 35.75 126.25 C49.24893452 133.70648489 61.79121008 135.97486024 77 137 C77 142.61 77 148.22 77 154 C78.340625 154.226875 79.68125 154.45375 81.0625 154.6875 C88.25338012 156.10498284 95.09504681 158.58786969 102 161 C99.4272456 169.97236569 96.43138333 178.78787416 93.34155273 187.59301758 C92.74298224 189.31081628 92.15268202 191.03152105 91.57104492 192.75512695 C86.46410472 207.87057075 79.5938632 220.44530179 68.9375 232.4375 C68.43927734 233.00605713 67.94105469 233.57461426 67.42773438 234.16040039 C58.29073682 244.43074832 58.29073682 244.43074832 54 247 C46.94210912 246.7745983 40.16621453 237.32705295 35.625 232.5625 C34.0509102 230.7357785 32.51263646 228.87792468 31 227 C30.53835449 226.42797852 30.07670898 225.85595703 29.60107422 225.26660156 C19.61522187 212.5561369 14.89335257 198.53841355 10.07226562 183.30078125 C8.25448044 177.70504908 6.1103903 172.24801065 3.9609375 166.7734375 C3 164 3 164 3 161 C5.89461219 160.0170943 8.79058079 159.03856299 11.6875 158.0625 C12.50412109 157.78470703 13.32074219 157.50691406 14.16210938 157.22070312 C14.95810547 156.95322266 15.75410156 156.68574219 16.57421875 156.41015625 C17.30213623 156.16402588 18.03005371 155.91789551 18.7800293 155.66430664 C21.14613392 154.95627071 23.57819085 154.48436183 26 154 C26.33 148.39 26.66 142.78 27 137 C24.875625 137.103125 22.75125 137.20625 20.5625 137.3125 C1.56988197 137.61199492 -16.03048532 128.33273208 -29.53808594 115.47363281 C-47.61773005 97.24906169 -51.46611387 75.33853278 -51.42433167 50.83757019 C-51.40857131 47.14468581 -51.37205222 43.45215983 -51.33294678 39.75946045 C-51.30539657 36.71503943 -51.29708442 33.67069374 -51.28938007 30.6261673 C-51.27945538 26.99031848 -51.2596024 23.35454726 -51.23828125 19.71875 C-51.2348855 19.02743484 -51.23148975 18.33611969 -51.2279911 17.62385559 C-51.21648176 15.68604566 -51.19695647 13.74828824 -51.17700195 11.81054688 C-51.16715775 10.70932495 -51.15731354 9.60810303 -51.14717102 8.47351074 C-51 6 -51 6 -50 5 C-48.5769507 4.81969308 -47.14616519 4.69980227 -45.71484375 4.60546875 C-44.80250977 4.53884033 -43.89017578 4.47221191 -42.95019531 4.40356445 C-41.45891113 4.29661255 -41.45891113 4.29661255 -39.9375 4.1875 C-30.05112683 3.4247787 -20.37963584 2.04455622 -10.63256836 0.2331543 C-9.67616455 0.05953369 -8.71976074 -0.11408691 -7.734375 -0.29296875 C-6.46932129 -0.53309692 -6.46932129 -0.53309692 -5.17871094 -0.77807617 C-3 -1 -3 -1 0 0 Z " fill="#FECABD" transform="translate(81,154)"/>
<path d="M0 0 C0.99 0.33 1.98 0.66 3 1 C2.67 19.48 2.34 37.96 2 57 C2.66 56.67 3.32 56.34 4 56 C7.3125 55.5625 7.3125 55.5625 11 56 C14.0347762 58.44017628 15.76881522 61.30644566 17 65 C17.95027159 78.68756579 17.95027159 78.68756579 14 84 C11.625 86.4375 11.625 86.4375 9 88 C6.22712751 87.80654378 4.46914446 87.23457223 2 86 C2.14029419 88.1462026 2.28738164 90.29196218 2.4375 92.4375 C2.51871094 93.63246094 2.59992188 94.82742187 2.68359375 96.05859375 C2.67656114 98.88570244 2.67656114 98.88570244 4 100 C4.1328125 101.8125 4.1328125 101.8125 4.125 104 C4.12886719 105.0828125 4.12886719 105.0828125 4.1328125 106.1875 C4 108 4 108 3 109 C2.12834391 126.28058198 10.53542143 143.85069988 21.73193359 156.61865234 C37.62819712 173.81566706 58.30238629 179.84195848 81 181 C81 186.61 81 192.22 81 198 C83.31 198.33 85.62 198.66 88 199 C89.55423345 199.42193647 91.09775653 199.88755151 92.62109375 200.41015625 C93.41064453 200.67763672 94.20019531 200.94511719 95.01367188 201.22070312 C95.81353516 201.49849609 96.61339844 201.77628906 97.4375 202.0625 C98.26443359 202.34416016 99.09136719 202.62582031 99.94335938 202.91601562 C101.96412338 203.60517792 103.98233282 204.3018231 106 205 C105.28017542 207.03784079 104.56005799 209.07557814 103.83984375 211.11328125 C103.50238632 212.06842369 103.50238632 212.06842369 103.15811157 213.04286194 C101.91145053 216.56866113 100.65995812 220.09264616 99.40014648 223.61376953 C98.88904653 225.04325365 98.37805972 226.47277823 97.8671875 227.90234375 C97.48836174 228.96228546 97.48836174 228.96228546 97.10188293 230.04364014 C95.72551558 233.91029318 94.39753495 237.78641269 93.1328125 241.69140625 C87.90456977 257.52450995 78.57764143 270.08774465 67 282 C66.36191406 282.68835938 65.72382813 283.37671875 65.06640625 284.0859375 C61.84487642 287.48066786 59.48289434 289.41421425 55 291 C34.09045222 275.34817217 22.65416183 255.20858342 14.4375 230.8125 C13.72261929 228.7460809 13.00583296 226.68032003 12.28710938 224.61523438 C10.98784573 220.86294237 9.69479797 217.10882014 8.42358398 213.34692383 C8.17172836 212.60162918 7.91987274 211.85633453 7.66038513 211.0884552 C7.02616313 209.08274038 6.51019774 207.04079097 6 205 C13.92 202.36 21.84 199.72 30 197 C30.33 192.05 30.66 187.1 31 182 C28.669375 181.9175 26.33875 181.835 23.9375 181.75 C5.40782003 180.72596633 -11.56605044 173.96668175 -25 161 C-25.65529694 160.545681 -26.31059387 160.091362 -26.98574829 159.62327576 C-31.2841438 156.03425106 -33.16107558 152.6203768 -33.70455933 147.09094238 C-34.03433723 140.70513512 -33.8997157 134.32374162 -33.78125 127.93359375 C-33.76631611 125.56993021 -33.75493452 123.20624178 -33.74694824 120.84254456 C-33.71650548 114.64247423 -33.63800731 108.44392 -33.54931641 102.2444458 C-33.46725688 95.90991726 -33.43089367 89.57514203 -33.390625 83.24023438 C-33.30500783 70.82615936 -33.16859393 58.4132061 -33 46 C-31.67826782 45.30837769 -31.67826782 45.30837769 -30.32983398 44.6027832 C-29.16782471 43.98749756 -28.00581543 43.37221191 -26.80859375 42.73828125 C-25.65931396 42.13282471 -24.51003418 41.52736816 -23.32592773 40.90356445 C-12.00345329 34.42324931 -5.91911908 24.89985468 -1.74609375 12.76171875 C-0.60673399 8.54429807 -0.18893105 4.35486068 0 0 Z " fill="#FECABD" transform="translate(300,110)"/>
<path d="M0 0 C0.94505299 2.35134345 1.8815055 4.70557468 2.8125 7.0625 C3.1216333 7.84036865 3.4307666 8.6182373 3.74926758 9.41967773 C5.82504935 14.73048323 7.71495298 20.08267956 9.4921875 25.5 C14.46635314 40.54002964 19.49245299 53.82441226 30 66 C30.80566406 66.97453125 31.61132812 67.9490625 32.44140625 68.953125 C34.54875201 71.40131103 36.71641472 73.71641472 39 76 C39.79664062 76.79664063 40.59328125 77.59328125 41.4140625 78.4140625 C45.0849954 82.44983146 45.0849954 82.44983146 49.9453125 83.96875 C57.53483513 80.39041994 63.64157096 72.54093718 68.75 66.0625 C69.17289307 65.52665283 69.59578613 64.99080566 70.03149414 64.4387207 C71.39711134 62.6541702 72.6976193 60.83116001 74 59 C74.52045898 58.32582031 75.04091797 57.65164063 75.57714844 56.95703125 C82.62463931 47.07035064 85.84239344 35.24628792 89.75 23.875 C90.87704622 20.60392256 92.00819639 17.3346164 93.15411377 14.07009888 C93.86323272 12.04965675 94.56148703 10.02536191 95.2477417 7.99703979 C95.56527405 7.09164459 95.8828064 6.18624939 96.20996094 5.25341797 C96.48418884 4.45386688 96.75841675 3.6543158 97.04095459 2.83053589 C98 1 98 1 101 0 C103.00195312 0.61743164 103.00195312 0.61743164 105.28125 1.66015625 C106.11881836 2.03922119 106.95638672 2.41828613 107.81933594 2.80883789 C108.70395508 3.22254639 109.58857422 3.63625488 110.5 4.0625 C111.39750977 4.4742749 112.29501953 4.8860498 113.21972656 5.31030273 C119.63213856 8.2818659 125.89656801 11.43033221 132 15 C129.43522043 17.68581412 126.88393964 19.80499514 123.8125 21.875 C112.38857391 30.65973524 106.2990577 45.61434904 104.3203125 59.51953125 C103.19543001 71.74233974 103.63974309 82.85344004 107.02734375 94.6796875 C108.30360865 100.34855892 108.5543349 106.20635366 109 112 C69.73 112 30.46 112 -10 112 C-10 103.03076923 -10 103.03076923 -8.90625 98.75 C-8.68001953 97.82002197 -8.45378906 96.89004395 -8.22070312 95.93188477 C-7.98287109 94.96436279 -7.74503906 93.99684082 -7.5 93 C-2.91122999 72.9908654 -3.84989314 52.347123 -14.59765625 34.3203125 C-19.62375168 26.78689384 -25.41089223 19.43564311 -34 16 C-30.47674338 13.10589635 -26.56651758 11.13087968 -22.5 9.125 C-21.79601074 8.77566406 -21.09202148 8.42632812 -20.36669922 8.06640625 C-3.93995402 0 -3.93995402 0 0 0 Z " fill="#5866CA" transform="translate(84,316)"/>
<path d="M0 0 C13.2652482 6.52734435 21.18131749 16.93050103 26.375 30.8125 C26.95863676 32.5279557 27.49693908 34.25920999 28 36 C28.35578125 37.21558594 28.7115625 38.43117188 29.078125 39.68359375 C30.25928486 44.5327154 30.38297869 49.27617634 30.375 54.25 C30.3747583 55.68049683 30.3747583 55.68049683 30.37451172 57.13989258 C30.24429557 65.44288547 28.93726726 73.25304405 27.0703125 81.32421875 C25.88222374 86.51451892 24.95248342 91.7613412 24 97 C9.81 97 -4.38 97 -19 97 C-17.84888634 72.82661309 -17.84888634 72.82661309 -16.9140625 64.9921875 C-16.81161224 64.09033722 -16.70916199 63.18848694 -16.60360718 62.25930786 C-16.39007515 60.39270683 -16.1732897 58.52647487 -15.953125 56.66064453 C-15.62437787 53.86971841 -15.30750596 51.07762822 -14.9921875 48.28515625 C-14.3707342 42.85110561 -13.70248845 37.4241485 -13 32 C-12.88652222 31.11735474 -12.77304443 30.23470947 -12.65612793 29.32531738 C-12.31734387 26.75827162 -11.95596099 24.19552328 -11.5859375 21.6328125 C-11.48656891 20.87797577 -11.38720032 20.12313904 -11.28482056 19.34542847 C-10.25731933 12.57185857 -8.10966639 6.49596761 -2.75 2 C-1.8425 1.34 -0.935 0.68 0 0 Z " fill="#DCE9FA" transform="translate(272,331)"/>
<path d="M0 0 C1.11177467 0.88637378 2.21406614 1.7846465 3.3125 2.6875 C4.23482422 3.43580078 4.23482422 3.43580078 5.17578125 4.19921875 C10.15226663 9.11176642 10.90504347 14.46978852 11.9375 21.125 C12.1022583 22.14819336 12.2670166 23.17138672 12.43676758 24.22558594 C14.79224941 39.41203996 16.42974501 54.71488439 18 70 C18.16556396 71.5768457 18.16556396 71.5768457 18.33447266 73.18554688 C19.10061741 81.22000356 19 88.81911025 19 97 C5.14 97 -8.72 97 -23 97 C-24.155 92.00875 -25.31 87.0175 -26.5 81.875 C-26.86544922 80.33183105 -27.23089844 78.78866211 -27.60742188 77.19873047 C-32.26235926 56.49164788 -30.33302512 35.14965281 -18.984375 16.79296875 C-13.8318687 9.54091756 -7.70875722 4.34493589 0 0 Z " fill="#EBF3FE" transform="translate(439,331)"/>
<path d="M0 0 C2.96299582 2.00437953 5.44740795 4.50109536 8 7 C8.60199219 7.5775 9.20398437 8.155 9.82421875 8.75 C22.55994419 22.02949799 26.6510726 41.31626106 26.36328125 59.1875 C25.93961916 67.68237564 23.62097563 76.0114209 21.57250977 84.234375 C20.83735231 87.78570277 20.44982707 91.40138346 20 95 C5.81 95 -8.38 95 -23 95 C-23 78.88477996 -23 78.88477996 -22.265625 72.12109375 C-22.14878609 70.96917038 -22.14878609 70.96917038 -22.02958679 69.79397583 C-21.77788103 67.34088368 -21.51490494 64.88919925 -21.25 62.4375 C-21.16074249 61.59315399 -21.07148499 60.74880798 -20.97952271 59.87887573 C-19.76767057 48.42326519 -18.45344697 36.98198854 -16.9375 25.5625 C-16.78764648 24.398396 -16.63779297 23.23429199 -16.48339844 22.03491211 C-14.27214247 6.12641694 -14.27214247 6.12641694 -8.625 1.4375 C-8.06039062 0.94121094 -7.49578125 0.44492187 -6.9140625 -0.06640625 C-4.21335409 -1.38369055 -2.81268859 -0.94338623 0 0 Z " fill="#DCE9FA" transform="translate(54,333)"/>
<path d="M0 0 C4.0914366 1.51967645 6.59250968 3.77963962 8.76196289 7.5456543 C10.23015343 10.91024715 10.89480531 13.77054065 11.43359375 17.39453125 C11.62928955 18.69970703 11.82498535 20.00488281 12.02661133 21.34960938 C12.22707536 22.7745991 12.42650946 24.19973404 12.625 25.625 C12.72944427 26.35227295 12.83388855 27.0795459 12.9414978 27.82885742 C14.79703708 40.78764494 16.22136674 53.78536767 17.5 66.8125 C17.58708221 67.69072418 17.67416443 68.56894836 17.7638855 69.4737854 C18.0119678 72.00277835 18.25191508 74.53238748 18.48828125 77.0625 C18.55989471 77.79985886 18.63150818 78.53721771 18.70529175 79.29692078 C19.20759074 84.86917453 19.1875 90.15492564 19.1875 95.8125 C4.9975 95.8125 -9.1925 95.8125 -23.8125 95.8125 C-24.8025 90.5325 -25.7925 85.2525 -26.8125 79.8125 C-27.369375 77.564375 -27.92625 75.31625 -28.5 73 C-32.52688087 54.29311425 -30.18504731 33.16244642 -19.82495117 16.89599609 C-16.00195786 11.1537108 -7.84268968 -0.81131273 0 0 Z " fill="#EBF3FE" transform="translate(216.8125,332.1875)"/>
<path d="M0 0 C15.52902206 -0.89878584 29.99062903 2.29747742 44 9 C43.55527344 10.32064453 43.55527344 10.32064453 43.1015625 11.66796875 C38.23224066 26.39680397 36.09203385 41.5319883 43 56 C47.74933367 64.92153311 53.82909915 72.05752665 62 78 C60.65113272 86.81469085 54.8416298 94.48906047 48 100 C42.69135758 103.73039737 38.44687399 106.03083674 32 107 C31.98018066 106.16976318 31.96036133 105.33952637 31.93994141 104.48413086 C31.03210711 68.33376795 26.70557864 31.37975036 1.13891602 3.46508789 C0 2 0 2 0 0 Z " fill="#8B5E5E" transform="translate(235,48)"/>
<path d="M0 0 C6.21027647 0.56262826 11.62830173 2.00166779 17.5 4.0625 C18.32242188 4.34416016 19.14484375 4.62582031 19.9921875 4.91601562 C21.99717343 5.60377243 23.99893723 6.30091076 26 7 C25.28017542 9.03784079 24.56005799 11.07557814 23.83984375 13.11328125 C23.61487213 13.75004288 23.38990051 14.3868045 23.15811157 15.04286194 C21.91145053 18.56866113 20.65995812 22.09264616 19.40014648 25.61376953 C18.88904653 27.04325365 18.37805972 28.47277823 17.8671875 29.90234375 C17.61463699 30.60897156 17.36208649 31.31559937 17.10188293 32.04364014 C15.72551558 35.91029318 14.39753495 39.78641269 13.1328125 43.69140625 C9.32765799 55.20307075 3.43632218 69.04245188 -7 76 C-9.13122477 73.42174658 -11.25385207 70.83654747 -13.375 68.25 C-13.97828125 67.52039063 -14.5815625 66.79078125 -15.203125 66.0390625 C-15.78320312 65.33007812 -16.36328125 64.62109375 -16.9609375 63.890625 C-17.49509277 63.24125977 -18.02924805 62.59189453 -18.57958984 61.92285156 C-20 60 -20 60 -22 56 C-17.05 51.38 -12.1 46.76 -7 42 C-10.81563952 37.54842056 -13.99954962 33.9245177 -18.3125 30.1875 C-22.89696169 26.20607662 -22.89696169 26.20607662 -24 24 C-23.11957031 23.76925781 -22.23914063 23.53851563 -21.33203125 23.30078125 C-12.52294173 21.00369578 -12.52294173 21.00369578 -6 15 C-5.32710938 14.08347656 -5.32710938 14.08347656 -4.640625 13.1484375 C-1.6182956 8.75077843 -0.33244081 5.31905289 0 0 Z " fill="#DBE8FA" transform="translate(380,308)"/>
<path d="M0 0 C0.08636719 0.556875 0.17273438 1.11375 0.26171875 1.6875 C1.87881417 10.47025676 5.42379721 16.63446064 12.796875 21.8125 C16.35653172 23.73118022 20.01897465 24.46551049 24 25 C19.01595832 31.03331362 13.58084697 36.5184171 8 42 C12.40843437 47.29012124 17.07559794 52.18808428 22 57 C20.03257717 61.16932012 17.40927859 64.52477153 14.5625 68.125 C14.07201172 68.75792969 13.58152344 69.39085937 13.07617188 70.04296875 C12.59857422 70.65011719 12.12097656 71.25726563 11.62890625 71.8828125 C11.19650635 72.43340332 10.76410645 72.98399414 10.31860352 73.55126953 C9 75 9 75 6 77 C4.24209039 74.67228521 2.4937391 72.33829645 0.75 70 C0.25886719 69.35160156 -0.23226563 68.70320313 -0.73828125 68.03515625 C-1.22167969 67.38417969 -1.70507812 66.73320312 -2.203125 66.0625 C-2.64301758 65.47597656 -3.08291016 64.88945312 -3.53613281 64.28515625 C-7.66401022 57.84137164 -10.30923891 50.83506182 -12.890625 43.6640625 C-13.41484039 42.22321793 -13.41484039 42.22321793 -13.949646 40.75326538 C-14.68131233 38.73885667 -15.41062917 36.72359317 -16.13769531 34.70751953 C-17.25492781 31.61134361 -18.38081525 28.51841446 -19.5078125 25.42578125 C-20.219261 23.46372688 -20.93021629 21.50149359 -21.640625 19.5390625 C-21.97805725 18.61203522 -22.3154895 17.68500793 -22.66314697 16.72988892 C-22.97056824 15.87494843 -23.2779895 15.02000793 -23.59472656 14.13916016 C-23.86690002 13.38607574 -24.13907349 12.63299133 -24.41949463 11.85708618 C-25 10 -25 10 -25 8 C-21.02163777 6.66425789 -17.04218033 5.33180936 -13.0625 4 C-11.92619141 3.6184375 -10.78988281 3.236875 -9.61914062 2.84375 C-8.53955078 2.4828125 -7.45996094 2.121875 -6.34765625 1.75 C-4.84730835 1.24726563 -4.84730835 1.24726563 -3.31665039 0.734375 C-1 0 -1 0 0 0 Z " fill="#DBE8FA" transform="translate(331,307)"/>
<path d="M0 0 C8.6678988 1.36646875 16.74670244 4.11684805 25 7 C22.4272456 15.97236569 19.43138333 24.78787416 16.34155273 33.59301758 C15.74298224 35.31081628 15.15268202 37.03152105 14.57104492 38.75512695 C9.78928258 52.90811429 3.98622417 65.55338146 -7 76 C-8.75085334 73.93821926 -10.50070381 71.87560123 -12.25 69.8125 C-12.74113281 69.23435547 -13.23226562 68.65621094 -13.73828125 68.06054688 C-16.54579056 64.74768589 -19.30568908 61.4063788 -22 58 C-20.34136495 53.67495164 -17.128959 50.90581175 -13.875 47.75 C-13.03001953 46.91855469 -13.03001953 46.91855469 -12.16796875 46.0703125 C-10.78313972 44.70895515 -9.39216796 43.35385141 -8 42 C-12.38630742 36.69025943 -17.09568355 31.85052728 -22.0234375 27.0390625 C-24 25 -24 25 -24 24 C-22.845 23.773125 -21.69 23.54625 -20.5 23.3125 C-13.62819905 21.58236572 -7.86994318 18.01991162 -4 12 C-2.07206688 8.0013239 -0.79655969 4.34757813 0 0 Z " fill="#DCE8F9" transform="translate(158,308)"/>
<path d="M0 0 C0.20625 1.299375 0.4125 2.59875 0.625 3.9375 C2.11044968 10.39818866 4.82568323 15.83569311 10.40625 19.640625 C14.81802426 21.95281994 18.98246583 23.60387888 24 24 C18.90499173 30.3343346 13.07469335 35.62789574 7 41 C9.47063354 44.22232518 11.94049684 46.96985383 15.0625 49.5625 C17.80337248 51.84042281 19.94865289 54.07954633 22 57 C20.0874377 59.41994007 18.16922761 61.83534387 16.25 64.25 C15.71117187 64.93191406 15.17234375 65.61382812 14.6171875 66.31640625 C11.89773687 69.73230155 9.18651512 72.99910712 6 76 C4.8048154 74.56888286 3.61942708 73.1295856 2.4375 71.6875 C1.44556641 70.48673828 1.44556641 70.48673828 0.43359375 69.26171875 C-6.3892871 60.34062818 -10.63028276 51.49347028 -14.0625 40.8125 C-14.70003245 38.88311742 -15.3426409 36.95547451 -15.9855957 35.02789307 C-16.60899097 33.15740791 -17.22812225 31.28550338 -17.84716797 29.41357422 C-19.74297516 23.80002569 -21.87411895 18.287465 -24.0390625 12.7734375 C-25 10 -25 10 -25 7 C-22.10538781 6.0170943 -19.20941921 5.03856299 -16.3125 4.0625 C-15.49587891 3.78470703 -14.67925781 3.50691406 -13.83789062 3.22070312 C-4.25338855 0 -4.25338855 0 0 0 Z " fill="#DCE8F9" transform="translate(109,308)"/>
<path d="M0 0 C11.63908477 8.24435171 16.31609894 21.51984159 19 35 C22.00046073 53.70632067 17.60127725 69.97050547 13 88 C6.4 88 -0.2 88 -7 88 C-6.67492144 71.20969219 -5.48853071 54.54032275 -4.0625 37.8125 C-3.97713989 36.79848114 -3.89177979 35.78446228 -3.80383301 34.73971558 C-2.81942115 23.11372708 -1.69969921 11.54544848 0 0 Z " fill="#EAF2FE" transform="translate(60,339)"/>
<path d="M0 0 C2.66283497 0.36047111 3.81164663 0.80648626 5.7109375 2.7578125 C14.37803578 15.08706498 19.39922995 29.14666717 19.375 44.25 C19.3747583 45.67940918 19.3747583 45.67940918 19.37451172 47.13769531 C19.23162339 56.24344233 17.63827498 64.82083959 15.54003906 73.65429688 C14.59705512 77.75022353 13.80881644 81.87576482 13 86 C6.4 86 -0.2 86 -7 86 C-7.30026824 70.67051638 -6.29106768 55.58237938 -4.97363281 40.31640625 C-4.67871753 36.89827126 -4.39744629 33.47916776 -4.12001991 30.05957413 C-3.85000009 26.75266221 -3.56910209 23.44670369 -3.2890625 20.140625 C-3.19001617 18.92393127 -3.09096985 17.70723755 -2.98892212 16.45367432 C-2.4866767 10.72843076 -1.86913487 5.44560484 0 0 Z " fill="#EAF2FE" transform="translate(283,341)"/>
<path d="M0 0 C1.98 0 3.96 0 6 0 C6.33 10.23 6.66 20.46 7 31 C9.97 27.535 9.97 27.535 13 24 C18.16871856 21.41564072 22.3101131 21.34760368 28 22 C32.39573018 23.99805917 35.03927023 26.54813869 37.2421875 30.8984375 C40.28095915 39.3255465 39.06304499 47.7680666 36 56 C31.99629884 64.46835475 25.32120611 69.45025541 17 73.4375 C12.65934915 74.25137203 8.40174397 74.15658378 4 74 C4.16265854 73.15090057 4.32531708 72.30180115 4.49290466 71.42697144 C5.0077263 67.94778534 5.12015837 64.68393804 5.11352539 61.16845703 C5.11367142 60.51409164 5.11381744 59.85972626 5.1139679 59.18553162 C5.11327647 57.04292374 5.10552052 54.90040501 5.09765625 52.7578125 C5.09578933 51.26423185 5.09436672 49.77065058 5.09336853 48.27706909 C5.08956494 44.36114793 5.07975324 40.44526432 5.06866455 36.52935791 C5.05840388 32.52738961 5.05386096 28.52541519 5.04882812 24.5234375 C5.0381289 16.6822745 5.0210786 8.84114193 5 1 C3.35 1 1.7 1 0 1 C0 0.67 0 0.34 0 0 Z " fill="#FDCABD" transform="translate(453,158)"/>
<path d="M0 0 C2.55130633 1.00631227 4.00831825 2.30753944 5.98583984 4.20532227 C6.69482422 4.87885742 7.40380859 5.55239258 8.13427734 6.24633789 C8.86388672 6.95338867 9.59349609 7.66043945 10.34521484 8.38891602 C11.46283203 9.45529297 11.46283203 9.45529297 12.60302734 10.54321289 C14.44010383 12.29785645 16.27042753 14.05900996 18.09521484 15.82641602 C14.68731058 19.93354583 11.27055734 23.76589295 7.22021484 27.26391602 C6.43904297 27.94325195 5.65787109 28.62258789 4.85302734 29.32250977 C4.27294922 29.81879883 3.69287109 30.31508789 3.09521484 30.82641602 C6.10947804 35.49134716 9.38901143 39.8562154 12.84521484 44.20141602 C13.35181641 44.84208008 13.85841797 45.48274414 14.38037109 46.14282227 C15.61662123 47.70562904 16.85563198 49.26625137 18.09521484 50.82641602 C14.85558969 54.71396621 11.54438829 58.49397223 8.03271484 62.13891602 C7.40236328 62.79504883 6.77201172 63.45118164 6.12255859 64.12719727 C3.89112622 65.99747295 1.83647591 66.89049153 -0.90478516 67.82641602 C-7.18698085 62.8967927 -12.95467647 58.11439192 -17.90478516 51.82641602 C-16.62658988 49.08966205 -15.23573738 46.83155085 -13.30322266 44.51391602 C-12.81337891 43.91321289 -12.32353516 43.31250977 -11.81884766 42.69360352 C-10.78963826 41.44496876 -9.75574131 40.20018361 -8.71728516 38.95922852 C-8.23001953 38.35852539 -7.74275391 37.75782227 -7.24072266 37.13891602 C-6.7926123 36.59879883 -6.34450195 36.05868164 -5.8828125 35.50219727 C-4.56874597 33.57402048 -4.56874597 33.57402048 -4.90478516 29.82641602 C-6.07760411 28.10491403 -6.07760411 28.10491403 -7.74853516 26.59204102 C-8.33505859 26.0184082 -8.92158203 25.44477539 -9.52587891 24.85375977 C-10.14591797 24.26723633 -10.76595703 23.68071289 -11.40478516 23.07641602 C-12.02482422 22.47442383 -12.64486328 21.87243164 -13.28369141 21.25219727 C-14.81523336 19.76777968 -16.35888289 18.29587256 -17.90478516 16.82641602 C-14.34450552 12.51660382 -10.63496556 8.37549603 -6.77978516 4.32641602 C-5.95220703 3.44985352 -5.12462891 2.57329102 -4.27197266 1.67016602 C-1.90478516 -0.17358398 -1.90478516 -0.17358398 0 0 Z " fill="#D47181" transform="translate(355.90478515625,333.173583984375)"/>
<path d="M0 0 C3.54699931 0.36805876 5.23555588 1.87957888 7.671875 4.37890625 C8.66767578 5.38920898 8.66767578 5.38920898 9.68359375 6.41992188 C10.36550781 7.12697266 11.04742187 7.83402344 11.75 8.5625 C12.44738281 9.27341797 13.14476562 9.98433594 13.86328125 10.71679688 C15.5824658 12.47130714 17.29425872 14.23243352 19 16 C15.66883385 19.95374187 12.31571444 23.81041857 8.625 27.4375 C7.93664062 28.11683594 7.24828125 28.79617188 6.5390625 29.49609375 C6.03117187 29.99238281 5.52328125 30.48867188 5 31 C6.33104006 33.86090769 7.83555357 36.22259802 9.8203125 38.671875 C10.35527344 39.33574219 10.89023438 39.99960937 11.44140625 40.68359375 C11.99699219 41.36550781 12.55257812 42.04742187 13.125 42.75 C13.68832031 43.44738281 14.25164062 44.14476562 14.83203125 44.86328125 C16.21807736 46.57821965 17.60747208 48.290324 19 50 C15.76472962 56.70032591 9.59051103 64.32836332 3 68 C-0.9030386 67.81566758 -3.09913184 65.42603148 -5.875 62.875 C-6.69742188 62.12992187 -7.51984375 61.38484375 -8.3671875 60.6171875 C-11.44037452 57.56223898 -14.22899528 54.32783448 -17 51 C-16.61666504 50.53625977 -16.23333008 50.07251953 -15.83837891 49.59472656 C-14.09660276 47.48306702 -12.36076248 45.36660489 -10.625 43.25 C-10.02171875 42.52039063 -9.4184375 41.79078125 -8.796875 41.0390625 C-8.21679688 40.33007812 -7.63671875 39.62109375 -7.0390625 38.890625 C-6.50490723 38.24125977 -5.97075195 37.59189453 -5.42041016 36.92285156 C-4.01633187 35.02210894 -2.98766843 33.14203194 -2 31 C-6.81191572 26.07559794 -11.70987876 21.40843437 -17 17 C-13.63345862 12.68661885 -10.03561653 9.14639294 -5.85546875 5.6171875 C-3.85183607 3.93659631 -3.85183607 3.93659631 -1.75 1.5 C-1.1725 1.005 -0.595 0.51 0 0 Z " fill="#D47181" transform="translate(132,333)"/>
<path d="M0 0 C11.22 0 22.44 0 34 0 C33.08681569 10.04502743 32.45247665 15.88830314 25.1875 22.69921875 C22.31594438 24.85907416 19.59187908 26.61297333 16 27 C8.61415953 23.7232765 3.91696373 18.29034739 0.6875 11.0625 C0 8 0 8 0 0 Z " fill="#FEDCCD" transform="translate(347,304)"/>
<path d="M0 0 C3.0625 0.5625 3.0625 0.5625 5.8125 2.5625 C10.22925024 5.28050015 13.98870345 5.44934847 19.0625 4.5625 C21.79469193 2.64390833 21.79469193 2.64390833 24.0625 0.5625 C27.8289742 -0.0652457 29.54999667 0.29510696 32.9375 2.0625 C35.33314213 4.8809025 35.92076149 6.82259948 35.671875 10.53515625 C34.28245902 15.15763634 30.25812764 17.26663959 26.30859375 19.59765625 C19.52559678 22.74742806 10.6640032 22.89772558 3.55859375 20.8359375 C-0.65527433 18.86893266 -4.09315108 16.26877283 -6.9375 12.5625 C-8.0625 9.0625 -8.0625 9.0625 -7.9375 5.5625 C-5.55461814 2.16869856 -4.09909597 0.78493327 0 0 Z " fill="#D57281" transform="translate(341.9375,228.4375)"/>
<path d="M0 0 C10.89 0 21.78 0 33 0 C33 9.06142612 32.28061261 14.17186717 26.3203125 20.89453125 C22.96586111 23.95826352 19.61666281 26.62312957 15 27 C8.89594213 23.86352758 4.11210726 18.6207553 0.6875 12.75 C0 10 0 10 0 0 Z " fill="#FEDCCE" transform="translate(125,304)"/>
<path d="M0 0 C3.0625 1 3.0625 1 6.0625 3.0625 C9.59790597 5.34578302 10.93944914 5.74214916 15.0625 5 C16.39972529 4.18508561 17.71095487 3.32666793 19 2.4375 C22.10939423 0.34074374 22.92271351 0.00229158 26.875 -0.0625 C30.0625 1 30.0625 1 32 2.625 C33.5913695 6.18217887 33.78368205 8.13184174 33.0625 12 C28.31294488 17.81673911 22.98431118 20.54681293 15.546875 21.40625 C6.88602099 21.6236773 0.73298677 20.81666447 -5.9375 15 C-8.49253625 12.12841059 -8.9375 11.48087962 -8.9375 7.5 C-7.9375 4 -7.9375 4 -5.75 1.5 C-2.9375 0 -2.9375 0 0 0 Z " fill="#D57281" transform="translate(120.9375,229)"/>
<path d="M0 0 C0.87591797 0.00322266 1.75183594 0.00644531 2.65429688 0.00976562 C3.52634766 -0.00634766 4.39839844 -0.02246094 5.296875 -0.0390625 C6.55467773 -0.0400293 6.55467773 -0.0400293 7.83789062 -0.04101562 C8.60544678 -0.04399658 9.37300293 -0.04697754 10.16381836 -0.05004883 C12.75309229 0.41952458 13.63432238 1.2538271 15.21679688 3.32226562 C15.64501713 6.17706732 15.62339272 7.66719454 14.09179688 10.13476562 C11.4414373 11.81332669 9.28433264 11.52676801 6.21679688 11.32226562 C6.26320312 12.02351562 6.30960938 12.72476563 6.35742188 13.44726562 C6.60366009 19.91981304 6.19384974 25.01509475 2.21679688 30.32226562 C-1.30893119 32.672751 -2.63333957 32.98624379 -6.78320312 32.32226562 C-12.06202498 27.04344377 -12.95874193 23.29754281 -13.09570312 16.00976562 C-13.13308594 14.71425781 -13.17046875 13.41875 -13.20898438 12.08398438 C-12.24417441 3.56002108 -7.93606168 0.06720299 0 0 Z " fill="#2D4E67" transform="translate(182.783203125,173.677734375)"/>
<path d="M0 0 C0.85529297 -0.04125 1.71058594 -0.0825 2.59179688 -0.125 C8.77853548 -0.2016753 8.77853548 -0.2016753 11.37255859 1.80078125 C16.77842325 8.1921811 16.19001775 14.45971607 15.6875 22.5 C14.87074942 26.15135553 13.41921051 28.66375942 10.9375 31.5 C7.35311338 33.09306072 5.38632964 32.73294321 1.6875 31.5 C-1.77998482 28.30991396 -3.17366205 24.95779847 -3.6171875 20.30078125 C-3.62417355 17.34917631 -3.53320207 14.44269422 -3.3125 11.5 C-4.26125 11.54125 -5.21 11.5825 -6.1875 11.625 C-9.3125 11.5 -9.3125 11.5 -11.3125 9.5 C-11.5625 6 -11.5625 6 -11.3125 2.5 C-8.11143764 -0.70106236 -4.35690622 0.05182937 0 0 Z " fill="#2E4F67" transform="translate(80.3125,173.5)"/>
<path d="M0 0 C1.36318359 0.41572266 1.36318359 0.41572266 2.75390625 0.83984375 C12.00397798 3.50576186 20.36987682 4.63313816 30 5 C30 10.61 30 16.22 30 22 C27.93124985 22.68958338 25.86237595 23.37879718 23.79296875 24.06640625 C21.79351348 24.73475563 19.79636732 25.41002871 17.80078125 26.08984375 C16.73214844 26.45207031 15.66351563 26.81429688 14.5625 27.1875 C13.55316406 27.53167969 12.54382813 27.87585938 11.50390625 28.23046875 C9 29 9 29 7 29 C3.45313199 19.33410779 1.06234159 10.2904432 0 0 Z " fill="#E3936C" transform="translate(78,286)"/>
<path d="M0 0 C2.84100919 1.68334224 4.96480371 3.21256391 6.4375 6.25 C6.9375 8.6875 6.9375 8.6875 6.4375 11.25 C3.46360983 14.90363649 0.89559495 16.84513814 -3.5625 18.25 C-7.12109375 18.5859375 -7.12109375 18.5859375 -11 18.625 C-12.27746094 18.65335938 -13.55492187 18.68171875 -14.87109375 18.7109375 C-19.12543101 18.17970809 -21.2118046 16.85444908 -24.5625 14.25 C-25.201875 13.816875 -25.84125 13.38375 -26.5 12.9375 C-27.5625 11.25 -27.5625 11.25 -27.6875 7.875 C-26.21269801 3.12286025 -23.85558495 1.5183986 -19.5625 -0.75 C-13.32967258 -2.82760914 -5.98827932 -2.83831083 0 0 Z " fill="#EAB0A5" transform="translate(204.5625,212.75)"/>
<path d="M0 0 C3.69706118 1.91454954 5.53734841 3.14319486 7.5 6.8125 C7.5625 9.875 7.5625 9.875 6.5 12.8125 C1.51680392 17.6610151 -2.48072016 19.10276039 -9.375 19.125 C-10.56867188 19.14175781 -11.76234375 19.15851563 -12.9921875 19.17578125 C-17.81066688 18.67676278 -21.06424606 16.90820696 -24.875 14 C-26.5 11.8125 -26.5 11.8125 -27.1875 8.9375 C-26.18203326 4.36719663 -23.32052789 2.32406759 -19.5 -0.1875 C-13.4069211 -2.2185263 -6.09844418 -2.03281473 0 0 Z " fill="#EAAFA5" transform="translate(433.5,205.1875)"/>
<path d="M0 0 C3.3125 2.125 3.3125 2.125 5.3125 4.125 C5.65173233 7.12962922 5.88164369 9.22754122 5.3125 12.125 C3.0625 14.5 3.0625 14.5 0.3125 16.125 C-0.26242187 16.48207031 -0.83734375 16.83914062 -1.4296875 17.20703125 C-4.53308983 18.46879517 -7.22120975 18.42672164 -10.5625 18.4375 C-11.75617188 18.45425781 -12.94984375 18.47101563 -14.1796875 18.48828125 C-18.99816688 17.98926278 -22.25174606 16.22070696 -26.0625 13.3125 C-27.6875 11.125 -27.6875 11.125 -28.375 8.25 C-27.36953326 3.67969663 -24.50802789 1.63656759 -20.6875 -0.875 C-14.18559899 -3.04230034 -6.20064536 -3.06612795 0 0 Z " fill="#EAAFA5" transform="translate(298.6875,205.875)"/>
<path d="M0 0 C3.34580058 2.34206041 3.88880054 3.38840297 4.625 7.4375 C4 11 4 11 1.25 13.875 C-5.18778532 18.08432117 -12.49296114 17.7699527 -20 17 C-23.80669645 15.50191682 -27.13017805 13.73964389 -29 10 C-29.4375 7.1875 -29.4375 7.1875 -29 4 C-20.94136473 -4.24604539 -10.19780697 -5.45136225 0 0 Z " fill="#EAAFA5" transform="translate(85,214)"/>
<path d="M0 0 C4.32504836 1.65863505 7.09418825 4.871041 10.25 8.125 C10.80429687 8.68832031 11.35859375 9.25164062 11.9296875 9.83203125 C13.29104485 11.21686028 14.64614859 12.60783204 16 14 C14.03257717 18.16932012 11.40927859 21.52477153 8.5625 25.125 C8.07201172 25.75792969 7.58152344 26.39085937 7.07617188 27.04296875 C6.35977539 27.95369141 6.35977539 27.95369141 5.62890625 28.8828125 C5.19650635 29.43340332 4.76410645 29.98399414 4.31860352 30.55126953 C3 32 3 32 0 34 C-1.79246661 31.5630847 -3.58400284 29.12549489 -5.375 26.6875 C-5.88289063 25.99720703 -6.39078125 25.30691406 -6.9140625 24.59570312 C-7.40390625 23.92861328 -7.89375 23.26152344 -8.3984375 22.57421875 C-8.84880371 21.96151123 -9.29916992 21.34880371 -9.76318359 20.7175293 C-13.01162107 16.20652305 -13.01162107 16.20652305 -12.86328125 13.5703125 C-11.83182661 10.49928467 -10.53055993 9.09199548 -8.1875 6.875 C-7.50042969 6.21242188 -6.81335938 5.54984375 -6.10546875 4.8671875 C-4.14009199 3.12423743 -2.12717481 1.53921413 0 0 Z " fill="#EAF1FD" transform="translate(337,350)"/>
<path d="M0 0 C4.06348939 1.66681968 7.05788882 4.50885254 10.25 7.4375 C10.80429688 7.92798828 11.35859375 8.41847656 11.9296875 8.92382812 C13.34802723 10.21815046 14.68115689 11.60443175 16 13 C16 17.89178165 12.5941618 20.92212196 9.6875 24.6875 C9.09259766 25.48478516 8.49769531 26.28207031 7.88476562 27.10351562 C7.30791016 27.85697266 6.73105469 28.61042969 6.13671875 29.38671875 C5.60780029 30.07983154 5.07888184 30.77294434 4.53393555 31.48706055 C3 33 3 33 0 33 C-2.15625 30.55078125 -2.15625 30.55078125 -4.5 27.3125 C-5.2734375 26.25675781 -6.046875 25.20101563 -6.84375 24.11328125 C-7.5553125 23.08589844 -8.266875 22.05851562 -9 21 C-9.91265625 19.72189453 -9.91265625 19.72189453 -10.84375 18.41796875 C-12 16 -12 16 -12.03515625 13.55078125 C-10.59794012 10.00926378 -8.17643987 7.74863104 -5.4375 5.1875 C-4.91736328 4.68541016 -4.39722656 4.18332031 -3.86132812 3.66601562 C-2.5831143 2.43470873 -1.29272853 1.2160593 0 0 Z " fill="#EAF1FD" transform="translate(114,350)"/>
<path d="M0 0 C4.06026821 2.03013411 6.65457376 4.42395554 9.75 7.625 C10.25660156 8.140625 10.76320313 8.65625 11.28515625 9.1875 C12.52803902 10.45383339 13.76465276 11.7263144 15 13 C13.43283614 17.64836739 10.90965657 21.25571235 8.0625 25.1875 C7.61970703 25.81591797 7.17691406 26.44433594 6.72070312 27.09179688 C4.64310421 29.98681176 2.99276576 32.00482282 0 34 C-2.13122477 31.42174658 -4.25385207 28.83654747 -6.375 26.25 C-6.97828125 25.52039063 -7.5815625 24.79078125 -8.203125 24.0390625 C-8.78320312 23.33007812 -9.36328125 22.62109375 -9.9609375 21.890625 C-10.49509277 21.24125977 -11.02924805 20.59189453 -11.57958984 19.92285156 C-13 18 -13 18 -15 14 C-10.05 9.38 -5.1 4.76 0 0 Z " fill="#EBF1FD" transform="translate(373,350)"/>
<path d="M0 0 C4.21494152 0.45678417 6.3473375 2.84920427 9.3125 5.75 C10.66794922 7.04164063 10.66794922 7.04164063 12.05078125 8.359375 C14 11 14 11 14.02734375 13.453125 C12.76066575 16.59333054 11.15202542 19.19701517 9.25 22 C8.57453125 23.010625 7.8990625 24.02125 7.203125 25.0625 C5.0072693 27.9903076 2.64872915 30.48092892 0 33 C-1.77223719 30.91784697 -3.54282726 28.83433081 -5.3125 26.75 C-5.81201172 26.16347656 -6.31152344 25.57695312 -6.82617188 24.97265625 C-9.31081912 22.04373434 -11.7434313 19.11144626 -14 16 C-12.32357676 11.74685214 -9.2824091 8.87898186 -6.125 5.6875 C-5.59519531 5.12482422 -5.06539062 4.56214844 -4.51953125 3.98242188 C-2.9453125 2.38671875 -2.9453125 2.38671875 0 0 Z " fill="#EAF2FE" transform="translate(151,351)"/>
<path d="M0 0 C4.48082006 4.23861357 6.0947132 8.70514803 6.375 14.75 C6.24300233 21.05760316 4.31222021 26.37948376 0.125 31.125 C-3.02108927 32.42044852 -4.79470688 32.06843104 -8 31 C-12.47760235 26.64677549 -14.05528546 21.81536192 -14.375 15.6875 C-14.26382534 10.64188071 -12.69156356 6.25789152 -10 2 C-6.26744552 -0.48836965 -4.41559065 -0.54226552 0 0 Z " fill="#315169" transform="translate(408,166)"/>
<path d="M0 0 C3.02705068 2.45561765 4.7665043 5.2995129 6 9 C6.95027159 22.68756579 6.95027159 22.68756579 3 28 C0.47728545 30.58910177 -0.84950495 31.94247525 -4.5 32.125 C-8.57381936 30.29178129 -11.00231456 26.99537088 -13 23 C-13.61558617 14.53569013 -13.38436845 8.24577111 -8.75 1.0625 C-5.69223448 -0.79400049 -3.47022507 -0.5384832 0 0 Z " fill="#2F4F67" transform="translate(311,166)"/>
<path d="M0 0 C2.70126365 1.26021296 4.87970758 2.87970758 7 5 C7.35345775 8.7466522 7.50023653 11.15177284 5.5625 14.4375 C2.69367862 16.18678133 2.02103235 16.07052883 -1.1875 15.8125 C-6.59808638 15.49897264 -9.24071546 17.99174708 -13.15234375 21.46875 C-15 23 -15 23 -17 23 C-17 16.73 -17 10.46 -17 4 C-6.52139037 -1.23930481 -6.52139037 -1.23930481 0 0 Z " fill="#EAAC9D" transform="translate(476,195)"/>
<path d="M0 0 C0 3 0 3 -1.875 5.75 C-4.18524592 9.28331729 -5.02610123 11.94208846 -6 16 C-9.3 14.02 -12.6 12.04 -16 10 C-12.41936487 6.41936487 -10.18104489 4.86919538 -5.75 2.75 C-4.67234375 2.22921875 -3.5946875 1.7084375 -2.484375 1.171875 C-1.66453125 0.78515625 -0.8446875 0.3984375 0 0 Z " fill="#4152C4" transform="translate(289,322)"/>
<path d="M0 0 C-1.58962659 4.03520597 -3.28232318 8.01811282 -5 12 C-8.33333333 10.33333333 -11.66666667 8.66666667 -15 7 C-10.40272057 3.32217645 -6.02578256 0 0 0 Z " fill="#4352C1" transform="translate(65,325)"/>
</svg>
