<?xml version="1.0" encoding="UTF-8"?>
<svg version="1.1" xmlns="http://www.w3.org/2000/svg" width="512" height="512">
<path d="M0 0 C1.17146047 -0.00445784 2.34292094 -0.00891569 3.54988021 -0.01350862 C4.84304335 -0.01332426 6.1362065 -0.01313989 7.4685564 -0.01294994 C8.851378 -0.01624873 10.23419864 -0.01997433 11.61701804 -0.02409142 C15.42572535 -0.03411784 19.23441689 -0.03782925 23.04313552 -0.04048073 C27.14757545 -0.04438188 31.25200287 -0.05396035 35.35643482 -0.0626936 C45.27299226 -0.08246334 55.18955072 -0.09252485 65.10612294 -0.10142139 C69.77476408 -0.10580344 74.44340409 -0.11117047 79.11204433 -0.11641026 C94.62954155 -0.13342303 110.14703805 -0.14791754 125.66454315 -0.155159 C129.69213518 -0.15706892 133.71972721 -0.15898925 137.74731922 -0.16094494 C138.7483708 -0.16142868 139.74942237 -0.16191242 140.78080884 -0.16241082 C156.99976378 -0.17071238 173.21864499 -0.1960512 189.43756773 -0.22852562 C206.08504551 -0.26158666 222.73248581 -0.27960689 239.3799966 -0.28280324 C248.72864147 -0.28496922 258.07717884 -0.29373074 267.42579174 -0.31926441 C275.38701194 -0.34095836 283.34809851 -0.34902827 291.30934491 -0.33929763 C295.37112078 -0.33474913 299.43262087 -0.33667093 303.49435902 -0.35605907 C307.21478232 -0.37366457 310.93472816 -0.37271464 314.65515635 -0.35716178 C316.63443764 -0.3536565 318.61372379 -0.36983154 320.59293574 -0.38676625 C328.125659 -0.33219679 334.21116177 0.1201622 339.91817778 5.58153456 C343.96156505 10.18902386 345.6472152 13.69752605 345.71216297 19.78558826 C345.72815037 20.92066822 345.74413776 22.05574818 345.76060963 23.22522449 C345.76865368 25.05963093 345.76865368 25.05963093 345.77686024 26.93109608 C345.78588871 28.1938335 345.79491718 29.45657093 345.80421925 30.75757313 C345.81873125 33.43079346 345.82840557 36.10358623 345.8313036 38.7767992 C345.8366743 42.18425435 345.87430409 45.59051654 345.92004776 48.99763584 C345.95715011 52.26705046 345.95834182 55.53649936 345.96436024 58.80609608 C345.98389256 60.02093678 346.00342487 61.23577747 346.02354908 62.48743153 C345.98547009 69.67808176 345.21139936 74.61730804 340.40576649 80.13422108 C335.58498274 84.71396564 331.17335144 86.38231306 324.56543732 86.39148998 C322.80227347 86.40116332 322.80227347 86.40116332 321.00349015 86.41103208 C319.07248396 86.40638627 319.07248396 86.40638627 317.10246754 86.40164661 C315.71791836 86.40538357 314.33337129 86.40998527 312.94882756 86.41537726 C309.14461622 86.42761712 305.34049275 86.42734564 301.53626621 86.42498851 C297.43321779 86.42458059 293.33019763 86.4356171 289.22716236 86.44510365 C281.18862874 86.46172006 273.15012445 86.46721348 265.11157509 86.4683284 C258.57762386 86.46927858 252.04368232 86.47338735 245.50973415 86.47972965 C226.98638574 86.49734386 208.46306051 86.50656825 189.93970367 86.5050687 C188.4416511 86.50494884 188.4416511 86.50494884 186.91333485 86.50482655 C185.91341427 86.50474478 184.9134937 86.50466302 183.88327251 86.50457878 C167.67737314 86.50376585 151.47156671 86.52290498 135.26569422 86.55110328 C118.62718808 86.579826 101.98872727 86.59364391 85.35019571 86.59191573 C76.00829413 86.59125161 66.66648997 86.59675336 57.32461071 86.61827183 C49.3707511 86.63647558 41.41703308 86.64083761 33.46316167 86.62725298 C29.40542777 86.62071921 25.34796557 86.62062069 21.29025745 86.63795948 C17.57360586 86.6536775 13.85744167 86.65083999 10.14080206 86.63339122 C8.1636112 86.62886584 6.1864053 86.64398866 4.20927304 86.65987051 C-3.3436471 86.60116123 -9.33478328 86.11042292 -15.10669738 80.72233427 C-19.27283253 76.05756936 -20.83575061 71.72196604 -20.88476086 65.55292225 C-20.89752056 64.45795933 -20.91028027 63.36299641 -20.92342663 62.23485279 C-20.92565228 61.06082401 -20.92787792 59.88679523 -20.93017101 58.67718983 C-20.93682781 57.46025944 -20.94348461 56.24332905 -20.95034313 54.98952198 C-20.96046104 52.41659524 -20.96516042 49.8436423 -20.96483898 47.27069569 C-20.96920593 43.34650569 -21.00552027 39.4234461 -21.04345226 35.49945545 C-21.04932188 32.99620408 -21.0532903 30.49294738 -21.05517101 27.98968983 C-21.06954205 26.82173374 -21.08391308 25.65377766 -21.0987196 24.45042896 C-21.05550788 16.69456152 -20.24169435 10.82368722 -14.55907726 5.07562733 C-13.89005383 4.62058826 -13.22103039 4.1655492 -12.53173351 3.69672108 C-11.86013195 3.22363514 -11.18853039 2.7505492 -10.49657726 2.26312733 C-6.94868344 0.15770368 -4.0342271 0.00710738 0 0 Z " fill="#E56353" transform="translate(163.59423351287842,281.86577892303467)"/>
<path d="M0 0 C1.17544257 -0.00644889 2.35088513 -0.01289778 3.56194717 -0.0195421 C4.84928463 -0.01644489 6.13662209 -0.01334769 7.46296978 -0.01015663 C8.84751896 -0.01389359 10.23206603 -0.01849529 11.61660975 -0.02388728 C15.4208211 -0.03612714 19.22494456 -0.03585565 23.02917111 -0.03349853 C27.13221953 -0.03309061 31.23523968 -0.04412712 35.33827496 -0.05361366 C43.37680858 -0.07023007 51.41531287 -0.0757235 59.45386223 -0.07683842 C65.98781345 -0.0777886 72.521755 -0.08189737 79.05570316 -0.08823967 C97.57905157 -0.10585388 116.1023768 -0.11507827 134.62573365 -0.11357872 C136.12378622 -0.11345885 136.12378622 -0.11345885 137.65210247 -0.11333656 C138.65202304 -0.1132548 139.65194361 -0.11317304 140.68216481 -0.1130888 C156.88806418 -0.11227586 173.09387061 -0.131415 189.29974309 -0.1596133 C205.93824924 -0.18833602 222.57671004 -0.20215393 239.21524161 -0.20042574 C248.55714319 -0.19976163 257.89894735 -0.20526338 267.24082661 -0.22678185 C275.19468621 -0.2449856 283.14840424 -0.24934763 291.10227565 -0.235763 C295.16000954 -0.22922923 299.21747175 -0.22913071 303.27517986 -0.2464695 C306.99183145 -0.26218751 310.70799564 -0.25935001 314.42463525 -0.24190123 C316.40182612 -0.23737586 318.37903202 -0.25249868 320.35616428 -0.26838052 C327.88382906 -0.20986756 333.96901521 0.24720137 339.6721347 5.70455611 C343.71540588 10.3121689 345.40111901 13.82052431 345.46606731 19.90863609 C345.48205471 21.04371605 345.49804211 22.17879601 345.51451397 23.34827232 C345.52255802 25.18267876 345.52255802 25.18267876 345.53076458 27.05414391 C345.53979305 28.31688133 345.54882153 29.57961876 345.55812359 30.88062096 C345.57263559 33.55384129 345.58230991 36.22663406 345.58520794 38.89984703 C345.59057864 42.30730218 345.62820843 45.71356437 345.6739521 49.12068367 C345.71105445 52.39009829 345.71224617 55.65954719 345.71826458 58.92914391 C345.7377969 60.1439846 345.75732922 61.3588253 345.77745342 62.61047935 C345.73937444 69.80112959 344.9653037 74.74035587 340.15967083 80.25726891 C335.33888708 84.83701347 330.92725578 86.50536089 324.31934166 86.51453781 C322.55617781 86.52421115 322.55617781 86.52421115 320.75739449 86.53407991 C318.8263883 86.5294341 318.8263883 86.5294341 316.85637188 86.52469444 C315.4718227 86.5284314 314.08727563 86.5330331 312.70273191 86.53842509 C308.89852056 86.55066495 305.0943971 86.55039347 301.29017055 86.54803634 C297.18712213 86.54762842 293.08410197 86.55866493 288.9810667 86.56815147 C280.94253308 86.58476788 272.90402879 86.59026131 264.86547943 86.59137623 C258.33152821 86.59232641 251.79758666 86.59643518 245.2636385 86.60277748 C226.74029009 86.62039169 208.21696485 86.62961608 189.69360801 86.62811653 C188.19555544 86.62799666 188.19555544 86.62799666 186.66723919 86.62787437 C185.66731862 86.62779261 184.66739804 86.62771085 183.63717685 86.62762661 C167.43127748 86.62681368 151.22547105 86.64595281 135.01959857 86.67415111 C118.38109242 86.70287383 101.74263162 86.71669174 85.10410005 86.71496356 C75.76219847 86.71429944 66.42039431 86.71980119 57.07851505 86.74131966 C49.12465545 86.75952341 41.17093742 86.76388544 33.21706601 86.75030081 C29.15933212 86.74376704 25.10186991 86.74366852 21.0441618 86.76100731 C17.32751021 86.77672533 13.61134602 86.77388782 9.89470641 86.75643905 C7.91751554 86.75191367 5.94030964 86.76703649 3.96317738 86.78291833 C-3.58974276 86.72420906 -9.58087893 86.23347074 -15.35279304 80.84538209 C-19.51892819 76.18061719 -21.08184626 71.84501387 -21.13085651 65.67597008 C-21.14361622 64.58100716 -21.15637592 63.48604424 -21.16952229 62.35790062 C-21.17174793 61.18387184 -21.17397358 60.00984306 -21.17626667 58.80023766 C-21.18292347 57.58330727 -21.18958027 56.36637688 -21.19643879 55.11256981 C-21.2065567 52.53964307 -21.21125608 49.96669013 -21.21093464 47.39374352 C-21.21530159 43.46955352 -21.25161593 39.54649393 -21.28954792 35.62250328 C-21.29541754 33.11925191 -21.29938596 30.61599521 -21.30126667 28.11273766 C-21.3156377 26.94478157 -21.33000874 25.77682549 -21.34481525 24.57347679 C-21.30395133 17.23900429 -20.58148121 11.2731311 -15.42831135 5.74156761 C-10.64994472 1.48374824 -6.30459761 0.00875569 0 0 Z " fill="#44C4A1" transform="translate(163.84032917022705,143.74273109436035)"/>
<path d="M0 0 C1.16387698 -0.00445784 2.32775396 -0.00891569 3.52689993 -0.01350862 C4.81159906 -0.01332426 6.09629819 -0.01313989 7.4199276 -0.01294994 C8.79378691 -0.01624876 10.16764525 -0.01997437 11.54150236 -0.02409142 C15.32547591 -0.03411767 19.1094336 -0.03782922 22.89341855 -0.04048073 C26.97129253 -0.04438197 31.04915393 -0.05396048 35.12701988 -0.0626936 C44.9798075 -0.0824638 54.83259615 -0.09252523 64.68539864 -0.10142139 C69.32452306 -0.10580365 73.96364634 -0.11117064 78.60276985 -0.11641026 C94.02332955 -0.1334236 109.44388853 -0.14791772 124.86445618 -0.155159 C128.86694528 -0.15706891 132.86943437 -0.15898924 136.87192345 -0.16094494 C137.86673148 -0.16142868 138.86153952 -0.16191242 139.88649325 -0.16241082 C156.00130844 -0.1707109 172.1160494 -0.19604697 188.23083217 -0.22852562 C204.77322364 -0.26159441 221.31557737 -0.27960762 237.85800207 -0.28280324 C247.14687538 -0.28496857 256.43564047 -0.2937206 265.72448158 -0.31926441 C273.63553443 -0.340969 281.54645276 -0.34902305 289.457532 -0.33929763 C293.49310401 -0.33475212 297.52839846 -0.3366535 301.56393242 -0.35605907 C305.26158701 -0.3736861 308.95876146 -0.37269714 312.65642111 -0.35716178 C314.62104531 -0.35366275 316.58567452 -0.36981555 318.55022871 -0.38676625 C326.15456602 -0.33144561 333.12530443 0.27601009 339.01868308 5.54613417 C343.1800981 10.21899351 344.682438 14.66539421 344.73032188 20.82318592 C344.74308159 21.94139729 344.75584129 23.05960865 344.76898766 24.21170521 C344.77232613 26.01026463 344.77232613 26.01026463 344.77573204 27.84515858 C344.78238884 29.08665668 344.78904564 30.32815479 344.79590416 31.60727406 C344.80602205 34.23147571 344.81072145 36.85570306 344.81040001 39.4799242 C344.81023729 42.16281511 344.82414975 44.84502455 344.85141563 47.52777576 C344.88809745 51.40461502 344.89787454 55.28066298 344.90073204 59.15765858 C344.91510307 60.35264973 344.92947411 61.54764088 344.94428062 62.77884388 C344.90151368 70.59455579 344.04622532 75.24082699 338.62338829 81.09515858 C338.04717735 81.5617992 337.47096642 82.02843983 336.87729454 82.50922108 C336.29850548 82.99133045 335.71971642 83.47343983 335.12338829 83.97015858 C331.77465238 86.28552587 328.75187798 86.26224973 324.81432629 86.27123547 C323.63589903 86.27631001 322.45747177 86.28138455 321.24333459 86.28661287 C319.29191703 86.2873595 319.29191703 86.2873595 317.30107689 86.28812122 C315.91000549 86.29213573 314.51893526 86.29657393 313.12786645 86.30140078 C309.29635829 86.31337346 305.46486273 86.31901633 301.63333952 86.32358193 C297.5043579 86.32953537 293.37539136 86.34114583 289.24641991 86.35187244 C279.27054013 86.37640189 269.29465536 86.39102414 259.3187547 86.40393251 C256.50166632 86.40764397 253.68457842 86.41161723 250.86749053 86.41568518 C233.37790368 86.44092056 215.88831606 86.46297608 198.39871502 86.47541332 C194.34705986 86.47834307 190.29540472 86.48130473 186.24374962 86.48431873 C184.73320041 86.48543781 184.73320041 86.48543781 183.19213506 86.48657949 C166.87616425 86.49923508 150.56030236 86.53246063 134.24438248 86.57412057 C117.49746436 86.61653087 100.75060202 86.64010729 84.00363034 86.64533389 C74.59906625 86.64874896 65.1946724 86.66051558 55.79016113 86.69343662 C47.78134626 86.72142584 39.77273652 86.73244143 31.76387653 86.72124116 C27.67773797 86.71605165 23.59202908 86.7189599 19.50595284 86.7437067 C15.76324003 86.76618472 12.02126589 86.76547135 8.27854028 86.74650283 C6.28731513 86.74237592 4.29608562 86.76285926 2.30497152 86.78428972 C-4.94588845 86.71995245 -10.00694432 86.01566207 -15.56020546 81.13422108 C-20.03959718 76.4190719 -21.79930515 72.02625124 -21.8507328 65.55292225 C-21.86349251 64.45795933 -21.87625221 63.36299641 -21.88939857 62.23485279 C-21.89162422 61.06082401 -21.89384987 59.88679523 -21.89614296 58.67718983 C-21.90279976 57.46025944 -21.90945656 56.24332905 -21.91631508 54.98952198 C-21.92643299 52.41659524 -21.93113237 49.8436423 -21.93081093 47.27069569 C-21.93517788 43.34650569 -21.97149222 39.4234461 -22.00942421 35.49945545 C-22.01529383 32.99620408 -22.01926225 30.49294738 -22.02114296 27.98968983 C-22.03551399 26.82173374 -22.04988503 25.65377766 -22.06469154 24.45042896 C-22.02616 17.53458436 -21.29193861 13.00940377 -17.56020546 7.13422108 C-15.30629921 5.07562733 -15.30629921 5.07562733 -12.99770546 3.69672108 C-12.2332914 3.22363514 -11.46887733 2.7505492 -10.68129921 2.26312733 C-6.99117395 0.29913801 -4.11545105 0.00729805 0 0 Z " fill="#27A2DB" transform="translate(164.56020545959473,419.86577892303467)"/>
<path d="M0 0 C1.18103501 -0.00644889 2.36207001 -0.01289778 3.57889396 -0.0195421 C4.87760828 -0.01644489 6.1763226 -0.01334769 7.5143919 -0.01015663 C8.9070403 -0.0138924 10.29968661 -0.01849363 11.69232959 -0.02388728 C15.52353383 -0.03614192 19.35465091 -0.03585392 23.18587029 -0.03349853 C27.31618389 -0.03309098 31.44646931 -0.04412359 35.57676983 -0.05361366 C43.67058458 -0.07023829 51.7643702 -0.07572388 59.85820059 -0.07683842 C66.43652069 -0.07778823 73.01483117 -0.08189518 79.59314823 -0.08823967 C98.23814548 -0.10585632 116.88311969 -0.11507792 135.52812532 -0.11357872 C136.53362915 -0.11349881 137.53913298 -0.1134189 138.57510662 -0.11333656 C139.58183623 -0.1132548 140.58856585 -0.11317304 141.62580242 -0.1130888 C157.94237161 -0.11227585 174.25884849 -0.13141467 190.57539097 -0.1596133 C207.32347179 -0.18832963 224.07150757 -0.20215427 240.81961364 -0.20042574 C250.22465517 -0.19976139 259.62959995 -0.20527332 269.03461933 -0.22678185 C277.04233025 -0.24497723 285.04990056 -0.24935455 293.05762319 -0.235763 C297.14357927 -0.22922492 301.22926549 -0.22914621 305.31519604 -0.2464695 C309.05650657 -0.26216858 312.79733256 -0.25936943 316.53863104 -0.24190123 C318.53152076 -0.23736783 320.52442532 -0.25251353 322.51725703 -0.26838052 C330.4939312 -0.20666905 335.23675043 0.5410295 341.20962811 6.07367516 C341.67626873 6.64988609 342.14290936 7.22609703 342.62369061 7.81976891 C343.34685467 8.6879525 343.34685467 8.6879525 344.08462811 9.57367516 C346.35520397 12.85762885 346.38695425 15.83976669 346.42569256 19.70331383 C346.43852779 20.81844856 346.45136303 21.9335833 346.46458721 23.08250999 C346.47566761 24.89184769 346.47566761 24.89184769 346.48697186 26.73773766 C346.4950436 27.97969398 346.50311535 29.22165031 346.51143169 30.50124168 C346.52527368 33.13325288 346.53628904 35.76513881 346.54385662 38.39716148 C346.55270267 41.08684604 346.57354331 43.77601162 346.60538006 46.46552086 C346.6480823 50.34808485 346.66423155 54.22996787 346.67447186 58.11273766 C346.69197994 59.30884163 346.70948803 60.5049456 346.72752666 61.73729515 C346.7081687 69.22022985 346.11546749 75.00341577 340.87193584 80.77184105 C335.97067971 85.2222509 330.79375548 86.50479218 324.32213497 86.51733112 C323.15290155 86.52439671 321.98366812 86.53146231 320.77900338 86.53874201 C318.86608565 86.53511938 318.86608565 86.53511938 316.91452312 86.53142357 C315.53878544 86.53587815 314.16305032 86.54119292 312.78731894 86.54729229 C309.01203568 86.56145629 305.23683481 86.56313589 301.46152878 86.56269538 C297.387768 86.564345 293.31404103 86.57741417 289.24029827 86.58888817 C280.33530793 86.61172563 271.43034143 86.61965734 262.52532578 86.62471461 C256.96355427 86.62797291 251.40178968 86.63449617 245.84002209 86.641716 C230.43649932 86.66127983 215.03298297 86.67768547 199.62944698 86.68059254 C198.64399117 86.68078011 197.65853536 86.68096768 196.64321725 86.68116093 C194.64552323 86.68152718 192.64782921 86.68189088 190.65013519 86.68225204 C189.65849832 86.68243485 188.66686145 86.68261766 187.64517498 86.68280602 C186.15590115 86.68307684 186.15590115 86.68307684 184.63654098 86.68335313 C168.54843365 86.68689487 152.46046016 86.7139182 136.37239924 86.7513039 C119.84911251 86.7893933 103.32589218 86.80875006 86.80256057 86.80905205 C77.52765272 86.80963645 68.25290456 86.81811772 58.97803783 86.84704971 C51.08060014 86.87157198 43.1833804 86.87884076 35.28591493 86.86380219 C31.25824488 86.85663686 27.23100515 86.85747408 23.20338345 86.88021278 C19.51186683 86.90085387 15.82110993 86.89815558 12.12960109 86.87733794 C10.17082385 86.87220929 8.212029 86.8915832 6.25335145 86.91199964 C-1.39948732 86.83941556 -7.41967353 85.77232048 -13.75130939 81.25726891 C-18.15120813 76.62429632 -19.86383614 72.21707351 -19.92831135 65.90302086 C-19.94114658 64.80790688 -19.95398182 63.71279289 -19.967206 62.58449364 C-19.97459293 61.40014229 -19.98197987 60.21579094 -19.98959064 58.99555016 C-19.99766239 57.77578987 -20.00573414 56.55602959 -20.01405048 55.29930687 C-20.0278917 52.71442651 -20.03861368 50.12952788 -20.04647541 47.54462242 C-20.06366544 43.60277933 -20.10755072 39.66177977 -20.15170002 35.72015953 C-20.16182902 33.2077959 -20.17034447 30.69542515 -20.17709064 28.18305016 C-20.19459873 27.00881996 -20.21210682 25.83458977 -20.23014545 24.62477684 C-20.21080806 17.28212661 -19.54777319 11.23173634 -14.30375385 5.74184227 C-9.63799927 1.6557472 -6.1606211 0.00849712 0 0 Z " fill="#FCD462" transform="translate(162.75130939483643,5.742731094360352)"/>
<path d="M0 0 C11.00466584 8.8661073 16.88120407 21.63095321 18.37890625 35.51171875 C18.83427159 48.62917834 15.2811488 60.74338631 7 71 C-2.94121122 81.55019271 -14.18071395 87.79326696 -28.81762695 88.40454102 C-43.46702707 88.63922347 -56.13880097 83.78091556 -66.8125 73.6875 C-70.80757154 69.47438758 -73.6061159 65.27182565 -76 60 C-76.391875 59.23816406 -76.78375 58.47632813 -77.1875 57.69140625 C-81.91531363 47.16873771 -81.71231889 33.24993164 -78.375 22.3125 C-76.28361006 17.06177633 -73.43387958 12.47262816 -70 8 C-69.38382813 7.175 -68.76765625 6.35 -68.1328125 5.5 C-50.89117391 -14.7099793 -20.4762676 -14.76859719 0 0 Z " fill="#44C4A1" transform="translate(83,148)"/>
<path d="M0 0 C10.03324234 9.29872148 16.00005189 20.64687873 17.3203125 34.31640625 C17.829733 49.51411795 13.02111268 62.65024857 2.6875 73.8125 C-7.8048804 83.55875557 -20.32464655 87.61269184 -34.41796875 87.40234375 C-47.55182358 86.91260679 -58.47082838 82.09602746 -68 73 C-79.7328388 59.578115 -82.08864211 45.25534767 -81 28 C-79.38686034 16.20941557 -71.21290059 5.19419149 -62 -2 C-41.91111625 -14.04872271 -19.12428355 -15.20060835 0 0 Z " fill="#E56353" transform="translate(84,287)"/>
<path d="M0 0 C9.31388129 7.60926528 16.28533122 19.42133366 17.8828125 31.44140625 C19.1008908 47.40561429 15.36672951 60.05661161 5.2265625 72.46875 C0.80759637 77.2316451 -4.36878207 80.48191562 -10.1171875 83.44140625 C-10.90351562 83.85777344 -11.68984375 84.27414062 -12.5 84.703125 C-22.97293441 89.38147344 -36.93756737 89.13227111 -47.8046875 85.81640625 C-53.07124882 83.71423861 -57.61926635 80.86882216 -62.1171875 77.44140625 C-63.1484375 76.69890625 -64.1796875 75.95640625 -65.2421875 75.19140625 C-74.6417294 66.20054008 -80.09775629 54.59723683 -80.46044922 41.63793945 C-80.64568505 26.26479048 -76.45331649 14.29317883 -65.9921875 2.81640625 C-47.43234693 -14.72366286 -20.13784126 -14.82472078 0 0 Z " fill="#27A2DB" transform="translate(83.1171875,424.55859375)"/>
<path d="M0 0 C10.32029145 7.45772886 17.79543115 17.57575052 20.6875 30.15625 C22.70617918 43.85443018 21.10583851 57.83019877 12.68359375 69.171875 C12.16925781 69.81640625 11.65492187 70.4609375 11.125 71.125 C10.66222656 71.74890625 10.19945313 72.3728125 9.72265625 73.015625 C2.51740331 82.19683373 -9.39771884 88.39723724 -20.875 90.125 C-36.62584541 91.35207736 -49.67792387 87.47164147 -61.8984375 77.46875 C-66.66660608 73.05455027 -69.91552212 67.87338067 -72.875 62.125 C-73.29136719 61.33867188 -73.70773438 60.55234375 -74.13671875 59.7421875 C-78.81506719 49.26925309 -78.56586486 35.30462013 -75.25 24.4375 C-73.14783236 19.17093868 -70.30241591 14.62292115 -66.875 10.125 C-66.1325 9.09375 -65.39 8.0625 -64.625 7 C-47.35351083 -11.05655686 -20.74390328 -12.92584928 0 0 Z " fill="#FCD462" transform="translate(79.875,7.875)"/>
</svg>
